<mxfile host="app.diagrams.net" modified="2023-09-26T06:34:43.082Z" agent="Mozilla/5.0 (Windows NT 10.0; Win64; x64) AppleWebKit/537.36 (KHTML, like Gecko) Chrome/116.0.0.0 Safari/537.36" etag="rCPKbT7OmmOU1SG-d0cc" version="21.7.5" type="device">
  <diagram id="R2lEEEUBdFMjLlhIrx00" name="Page-1">
    <mxGraphModel dx="4033" dy="1316" grid="1" gridSize="10" guides="1" tooltips="1" connect="1" arrows="1" fold="1" page="1" pageScale="1" pageWidth="850" pageHeight="1100" background="#FFFFFF" math="0" shadow="0" extFonts="Permanent Marker^https://fonts.googleapis.com/css?family=Permanent+Marker">
      <root>
        <mxCell id="0" />
        <mxCell id="1" parent="0" />
        <mxCell id="5I6KbbuqI9N9IZFCoAGK-53" value="" style="rounded=0;whiteSpace=wrap;html=1;fontSize=20;strokeWidth=3;" vertex="1" parent="1">
          <mxGeometry x="-850" y="1040" width="730" height="400" as="geometry" />
        </mxCell>
        <mxCell id="iftpOIWhje2gakNTgD5A-1" value="" style="rounded=0;whiteSpace=wrap;html=1;" parent="1" vertex="1">
          <mxGeometry x="90" y="160" width="890.45" height="1300" as="geometry" />
        </mxCell>
        <mxCell id="iftpOIWhje2gakNTgD5A-53" value="&lt;span style=&quot;background-color: rgb(255, 255, 255); font-size: 20px;&quot;&gt;app/Http/views&lt;/span&gt;" style="points=[[0.25,0,0],[0.5,0,0],[0.75,0,0],[1,0.25,0],[1,0.5,0],[1,0.75,0],[0.75,1,0],[0.5,1,0],[0.25,1,0],[0,0.75,0],[0,0.5,0],[0,0.25,0]];shape=mxgraph.bpmn.task;whiteSpace=wrap;rectStyle=rounded;size=10;html=1;container=1;expand=0;collapsible=0;taskMarker=abstract;align=left;verticalAlign=top;labelBackgroundColor=#D5E8D4;fontSize=20;fontStyle=1;fillColor=#D5E8D4;" parent="1" vertex="1">
          <mxGeometry x="280" y="987.26" width="660" height="200" as="geometry" />
        </mxCell>
        <mxCell id="5I6KbbuqI9N9IZFCoAGK-29" value="&lt;font style=&quot;font-size: 20px;&quot;&gt;User&lt;/font&gt;" style="rounded=0;whiteSpace=wrap;html=1;fontSize=20;strokeWidth=3;" vertex="1" parent="iftpOIWhje2gakNTgD5A-53">
          <mxGeometry x="60" y="66.76999999999998" width="110" height="110" as="geometry" />
        </mxCell>
        <mxCell id="5I6KbbuqI9N9IZFCoAGK-30" value="&lt;font style=&quot;font-size: 20px;&quot;&gt;Item&lt;/font&gt;" style="rounded=0;whiteSpace=wrap;html=1;fontSize=20;strokeWidth=3;" vertex="1" parent="iftpOIWhje2gakNTgD5A-53">
          <mxGeometry x="205" y="66.76999999999998" width="110" height="110" as="geometry" />
        </mxCell>
        <mxCell id="5I6KbbuqI9N9IZFCoAGK-31" value="&lt;font style=&quot;font-size: 20px;&quot;&gt;Order&lt;/font&gt;" style="rounded=0;whiteSpace=wrap;html=1;fontSize=20;strokeWidth=3;" vertex="1" parent="iftpOIWhje2gakNTgD5A-53">
          <mxGeometry x="350" y="66.76999999999998" width="110" height="110" as="geometry" />
        </mxCell>
        <mxCell id="5I6KbbuqI9N9IZFCoAGK-32" value="&lt;font style=&quot;font-size: 20px;&quot;&gt;Product&lt;/font&gt;" style="rounded=0;whiteSpace=wrap;html=1;fontSize=20;strokeWidth=3;" vertex="1" parent="iftpOIWhje2gakNTgD5A-53">
          <mxGeometry x="500" y="66.76999999999998" width="110" height="110" as="geometry" />
        </mxCell>
        <mxCell id="iftpOIWhje2gakNTgD5A-6" value="&lt;span style=&quot;background-color: rgb(255, 255, 255); font-size: 20px;&quot;&gt;resources/views&lt;/span&gt;" style="points=[[0.25,0,0],[0.5,0,0],[0.75,0,0],[1,0.25,0],[1,0.5,0],[1,0.75,0],[0.75,1,0],[0.5,1,0],[0.25,1,0],[0,0.75,0],[0,0.5,0],[0,0.25,0]];shape=mxgraph.bpmn.task;whiteSpace=wrap;rectStyle=rounded;size=10;html=1;container=1;expand=0;collapsible=0;taskMarker=abstract;align=left;verticalAlign=top;labelBackgroundColor=#D5E8D4;fontStyle=1;fontSize=20;fillColor=#D5E8D4;" parent="1" vertex="1">
          <mxGeometry x="340" y="200" width="600" height="250" as="geometry" />
        </mxCell>
        <mxCell id="5I6KbbuqI9N9IZFCoAGK-9" value="errors" style="image;aspect=fixed;html=1;points=[];align=center;fontSize=20;image=img/lib/azure2/general/Folder_Blank.svg;" vertex="1" parent="iftpOIWhje2gakNTgD5A-6">
          <mxGeometry x="290.3225806451613" y="134.6153846153846" width="66.34615384615385" height="53.846153846153854" as="geometry" />
        </mxCell>
        <mxCell id="5I6KbbuqI9N9IZFCoAGK-6" value="show" style="image;aspect=fixed;html=1;points=[];align=center;fontSize=20;image=img/lib/azure2/general/Folder_Blank.svg;" vertex="1" parent="iftpOIWhje2gakNTgD5A-6">
          <mxGeometry x="199.76129032258072" y="132.21153846153845" width="66.34615384615385" height="53.846153846153854" as="geometry" />
        </mxCell>
        <mxCell id="5I6KbbuqI9N9IZFCoAGK-5" value="layouts" style="image;aspect=fixed;html=1;points=[];align=center;fontSize=20;image=img/lib/azure2/general/Folder_Blank.svg;" vertex="1" parent="iftpOIWhje2gakNTgD5A-6">
          <mxGeometry x="113.6322580645161" y="134.6153846153846" width="66.34615384615385" height="53.846153846153854" as="geometry" />
        </mxCell>
        <mxCell id="5I6KbbuqI9N9IZFCoAGK-4" value="cart" style="image;aspect=fixed;html=1;points=[];align=center;fontSize=20;image=img/lib/azure2/general/Folder_Blank.svg;" vertex="1" parent="iftpOIWhje2gakNTgD5A-6">
          <mxGeometry x="26.535483870967703" y="134.6153846153846" width="66.34615384615385" height="53.846153846153854" as="geometry" />
        </mxCell>
        <mxCell id="iftpOIWhje2gakNTgD5A-3" value="&lt;span style=&quot;font-size: 30px;&quot;&gt;sever&lt;/span&gt;" style="rounded=0;whiteSpace=wrap;html=1;fontStyle=1;fontSize=30;" parent="1" vertex="1">
          <mxGeometry x="90" y="160" width="150" height="80" as="geometry" />
        </mxCell>
        <mxCell id="iftpOIWhje2gakNTgD5A-28" value="&lt;span style=&quot;background-color: rgb(255, 255, 255); font-size: 20px;&quot;&gt;app/Http/views&lt;/span&gt;" style="points=[[0.25,0,0],[0.5,0,0],[0.75,0,0],[1,0.25,0],[1,0.5,0],[1,0.75,0],[0.75,1,0],[0.5,1,0],[0.25,1,0],[0,0.75,0],[0,0.5,0],[0,0.25,0]];shape=mxgraph.bpmn.task;whiteSpace=wrap;rectStyle=rounded;size=10;html=1;container=1;expand=0;collapsible=0;taskMarker=abstract;align=left;verticalAlign=top;labelBackgroundColor=#D5E8D4;fontSize=20;fontStyle=1;fillColor=#D5E8D4;" parent="1" vertex="1">
          <mxGeometry x="340" y="510" width="600" height="410" as="geometry" />
        </mxCell>
        <mxCell id="5I6KbbuqI9N9IZFCoAGK-28" value="&lt;font style=&quot;font-size: 20px;&quot;&gt;AdminController&lt;/font&gt;" style="rounded=0;whiteSpace=wrap;html=1;fontSize=16;strokeWidth=3;" vertex="1" parent="iftpOIWhje2gakNTgD5A-28">
          <mxGeometry x="30" y="350" width="200" height="43.23" as="geometry" />
        </mxCell>
        <mxCell id="5I6KbbuqI9N9IZFCoAGK-20" value="&lt;font style=&quot;font-size: 20px;&quot;&gt;admin&lt;/font&gt;" style="image;aspect=fixed;html=1;points=[];align=center;fontSize=12;image=img/lib/azure2/general/Folder_Blank.svg;" vertex="1" parent="iftpOIWhje2gakNTgD5A-28">
          <mxGeometry x="260" y="160" width="262.73" height="213.23" as="geometry" />
        </mxCell>
        <mxCell id="5I6KbbuqI9N9IZFCoAGK-19" value="&lt;font style=&quot;font-size: 20px;&quot;&gt;auth&lt;/font&gt;" style="image;aspect=fixed;html=1;points=[];align=center;fontSize=12;image=img/lib/azure2/general/Folder_Blank.svg;" vertex="1" parent="iftpOIWhje2gakNTgD5A-28">
          <mxGeometry x="400" y="50" width="98.57" height="80" as="geometry" />
        </mxCell>
        <mxCell id="5I6KbbuqI9N9IZFCoAGK-27" value="&lt;font style=&quot;font-size: 20px;&quot;&gt;AdminHomeController&lt;/font&gt;" style="rounded=0;whiteSpace=wrap;html=1;fontSize=16;strokeWidth=3;" vertex="1" parent="iftpOIWhje2gakNTgD5A-28">
          <mxGeometry x="274.46000000000004" y="300" width="230" height="43.23" as="geometry" />
        </mxCell>
        <mxCell id="5I6KbbuqI9N9IZFCoAGK-21" value="&lt;font style=&quot;font-size: 20px;&quot;&gt;AdminProductController&lt;/font&gt;" style="rounded=0;whiteSpace=wrap;html=1;fontSize=16;labelBorderColor=none;strokeWidth=3;" vertex="1" parent="iftpOIWhje2gakNTgD5A-28">
          <mxGeometry x="278.59000000000015" y="230" width="225.54" height="43.23" as="geometry" />
        </mxCell>
        <mxCell id="iftpOIWhje2gakNTgD5A-67" value="" style="verticalLabelPosition=bottom;html=1;verticalAlign=top;align=center;strokeColor=none;fillColor=#00BEF2;shape=mxgraph.azure.sql_database;" parent="1" vertex="1">
          <mxGeometry x="351.91999999999996" y="1290" width="100" height="120" as="geometry" />
        </mxCell>
        <mxCell id="iftpOIWhje2gakNTgD5A-68" value="" style="rounded=0;whiteSpace=wrap;html=1;" parent="1" vertex="1">
          <mxGeometry x="-860" y="490" width="600" height="450" as="geometry" />
        </mxCell>
        <mxCell id="iftpOIWhje2gakNTgD5A-70" value="" style="verticalLabelPosition=bottom;html=1;verticalAlign=top;align=center;strokeColor=none;fillColor=#00BEF2;shape=mxgraph.azure.mobile;pointerEvents=1;" parent="1" vertex="1">
          <mxGeometry x="-780" y="567" width="90" height="143" as="geometry" />
        </mxCell>
        <mxCell id="iftpOIWhje2gakNTgD5A-71" value="" style="verticalLabelPosition=bottom;html=1;verticalAlign=top;align=center;strokeColor=none;fillColor=#00BEF2;shape=mxgraph.azure.laptop;pointerEvents=1;" parent="1" vertex="1">
          <mxGeometry x="-550" y="581.62" width="180" height="120" as="geometry" />
        </mxCell>
        <mxCell id="iftpOIWhje2gakNTgD5A-72" value="" style="dashed=0;outlineConnect=0;html=1;align=center;labelPosition=center;verticalLabelPosition=bottom;verticalAlign=top;shape=mxgraph.weblogos.chrome" parent="1" vertex="1">
          <mxGeometry x="-570" y="744" width="120" height="120" as="geometry" />
        </mxCell>
        <mxCell id="iftpOIWhje2gakNTgD5A-74" value="" style="shape=image;verticalLabelPosition=bottom;labelBackgroundColor=default;verticalAlign=top;aspect=fixed;imageAspect=0;image=data:image/jpeg,iVBORw0KGgoAAAANSUhEUgAAAyAAAAH6CAYAAAD/SigIAAAAAXNSR0IArs4c6QAAAARnQU1BAACxjwv8YQUAAAAJcEhZcwAADsMAAA7DAcdvqGQAAP+lSURBVHhe7L33t29Fmec/s74znWyV1HbPTE9sBZGsBMkgOSkgKEGJYkKCiAKiBAUDQYKgBMFIUgEFyTmDIJNjdysiba+eteZv2N/1qlmvM4/l/pxz7r3nnHvOPe8fXqvi3rv2U1W7nmdX1d7/6N/9u383hBBCCCGEEMJCEAMkhBBCCCGEsGDEAAkhhBBCCCEsGDFAQgghhBBCCAtGDJAQQgghhBDCghEDJIQQQgghhLBgxAAJIYQQQgghLBgxQEIIIYQQQggLRgyQEEIIIYQQwoIRAySEEEIIIYSwYMQACSGEEEIIISwYMUBCCCGEEEIIC0YMkBBCCCGEEMKCEQMkhBBCCCGEsGDEAAkhhBBCCCEsGDFAQgghhBBCCAtGDJAQQgghhBDCghEDJIQQQgghhLBgxAAJIYQQQgghLBgxQEIIIYQQQggLRgyQEEIIIYQQwoIRAySEEEIIIYSwYMQACSGEEEIIISwYMUBCCCGEEEIIC0YMkBBCCCGEEMKCEQMkhBBCCCGEsGDEAAkhhBBCCCEsGDFAQgghhBBCCAtGDJAQQgghhBDCghEDJIQQQgghhLBgxAAJIYQQQgghLBgxQEIIIYQQQggLRgyQEEIIIYQQwoIRAySEEEIIIYSwYMQACSGEEEIIISwYMUBCCCGEEEIIC0YMkBBCCCGEEMKCEQMkhBBCCCGEsGDEAAkhhBBCCCEsGDFAQgghhBBCCAtGDJAQQgghhBDCghEDJIQQQgghhLBgxAAJIYQQQgghLBgxQEIIIYQQQggLRgyQEEIIIYQQwoIRAySEEEIIIYSwYMQACSGEEEIIISwYMUBCCCGEEEIIC0YMkBBCWM3823/7b0f9M/FXf/VXo/EhhBDCYiYGSAghrGZW1gAJIYQQliIxQEIIYTUQQyOEEMJyJQZICCEsMBgfK2OArOxxs2E+zx1CCCFUYoCEEMICs7LKvsdNOnZl02Asfbr8PSt6/IqcO4QQwppFDJAQQlhFxpTv2VCPm805zDMp33Tpsz2u5hmLG6Pmq3n78EzxIYQQlgcxQEIIYRWZjUI9lqfG9f6ar6ZXJqXV42aiP1amS5stM51/towds6LnCCGEsHiIARJCCKvITEq16X2eGtf7a1xN65kuz6RjoD9ujFXNO+l442vaTOEaZ3wNhxBCWDrEAAkhhFWgV5Zxx/7PQdq/+Tf/ZiqMnzjy4uo371i44nlMr2HpyzF2vhpnPtMMT8Jjccf84Hl0SfP8Y9cwvs9XMW/N05+jhleFei8yl+cPIYTlSAyQEEJYBaoyWpXh6leJxejQ8AD8puFWhdowaTW9xtf0GvbcNa3G4xru48V4Ib2H69Xwv/7X/7q5Hm86fiHuzW9+c+Mtb3nLVJlruB5fj6uYB/Tj1vi5oJZB5voaIYSw3IgBEkIIK8GYEqoCDCrl+KvSrEKuYltdlHDP4zE1rYbBa3kMYASIZRDi/tW/+ldTZejTxo4R0yv1HF6/Qp56DuK8h5qv3hN+MWxapT++D88nC3GNEEJYk4kBEkIIK8gkZZdwVbgrNZ9KtEaF58HveYyraZ5fA+Bf/It/MfzlX/7l8C//5b9sEP7zP//zYd111x3WXnvtYZ111mnuG9/4xuH1r3/98LrXvW744z/+4+GP/uiPGn/4h384/MEf/MHvhAE/8YZrfM1X4zkv53/DG94wrLXWWg2u/2d/9mfDm970puEv/uIvpsqLS/k1hrxf8b6VB26ll5GMhcfyhRBCWL3EAAkhhBVkkmJrnEZH9dd8NW+lpnEMSjqGBUq7ivs/+2f/rCn066233pShgYuiTzrHr7/++sOGG244bLrppsMWW2wxbLXVVsN222037LzzzsNuu+027LXXXsPee+/dwL/PPvs0avyee+7ZwmK8GIe7xx57DLvsssuwww47DO985zuHLbfccth8882HTTbZZNhggw1amTA2MEIwSoB76I0T0aDiOOXA8b3BUv2g/DxuUtrKMpfnCiGE5UwMkBBCWEGmU2yJm6T81jRcQKnWuPjn//yfNwODWQxw9uJP//RP2wwGCjv5MTA23njjYdttt21Gxb777jsccsghwzHHHDOcfPLJw1lnnTWcf/75w0UXXTRcccUVwzXXXDN873vfG370ox8Nd9999/DQQw8Njz766PDYY49NQVj6sHHGP/LII1M8/PDDw/333z/89Kc/HW655ZbhxhtvHK666qrh0ksvHS644ILhs5/97HDaaacNH/vYx4YjjjhiOPDAA5vRQtnf/va3D29729uaPJABhhT3yiwKRgpGFgYKMukNFGeBQJlOqgPjTRuLn0TNV4+b7fEhhBB+nxggIYQwA2PK5nSKqcZFjYf6Jh9QplGugVkAZwXwk84sBjMJ22yzTZu5wMg44YQThs985jNNub/uuuuGm266abjvvvuGJ554Ynj22WeHF154YXjxxReHl19+efhP/+k/Df/tv/234b//9/8+/K//9b+Gv/7rv2788pe/bLzyyivDr3/96+b+6le/auCX6eKMx+Vcf/M3fzP8z//5P9u1/ut//a/Df/7P/7mV4aWXXmrloVxPPvlkM1juvPPO4Vvf+tbwta99rRlKp5xySjOeDjjggDaLwgwKszdsSkcOGGMYI9UgcVZIYwR5K+eZsF5q3fSYVvPUY/pja1oIIYTpiQESQgjToGI5pnD2efT3BohxKMvOdGBkoFijYG+00UbDO97xjmZo7LrrrsOhhx46fPzjHx++9KUvDTfccMNw7733Ds8//3xT6v/jf/yPw3/4D/+hGRbwP/7H/xj+9m//toFxgaFBHMaALkYBftDv8YSh9wOGxFi+Gqfbn5/rguXBtYw1nmtgKP2X//Jfhn//7/99m2W59dZb28wNsyfHH398m+HBMNl6662HzTbbrO2dQY7I0NmROiui7K2fSVg308XX9Jnia3oIIYTJxAAJISwb3MCsH6qyqgJZNzuTXv0eb17xPOAMB/iW3jf2HMuyIwyOnXbaqc1qMANw8cUXD9/5znfaEqnHH398eO6555qhgWKO0u6sQ1XiVfgxAjQWcDkGMFhQ7isYMBWuAfpxzWdaxeOknrNeh2sLZekNFgwQ4X64L++P++IczJwgB4ySO+64oy0lO/fcc4djjz227T9hvwkzJewzQf4uYUPOyF6DBKwz67DW5Vi96q/x1nGNw63tJYQQwszEAAkhrLFUxRBlUSWyKqFVoRTzcqzHEG/YNPOSrrHB2/i6ZIg0DA7e3rOx++ijj27LjliCxB4Kliah2GtAqJDjjhkZY8ZFNQh6Y6DG9QZENSwqk9LrseI1JqUbb3kMcw/GcS/evzMovZGCLIgjHzMlGCYYJcyUnHrqqcN73/veZtCx6Z6lW9QDy9moCwwTwhomfb3rr/8i6fPUL5aRZvoYHhNCCGGcGCAhhGWByqGKowaEyibgV8kkjTgUz3oej/etOgqtRgebqHE5BkWYL0NhcHzuc59r+zV+8pOfDA8++GBTnlG82Tvx6quvtjf/GB0aGirnvaHhjAJ+lfqaXuOrgl/jpZ7HtD7PbOjLo78/51jZxfjeWMHYII170TBxNoi9K4TZY8LeEvbBsB+GmaQTTzyxGSTMkLC8jTqibsAZEurROuzbQK3zmq8aJ2CbqnhcCCGEycQACSEsOyYpjiqeKpcqnh6jsYESy9t1vtbELAdpfNFp9913b196Ovvss4drr712uOuuu5py/Itf/KIpy2zaZrO2b/Kr8q3SLsSrjOtWSJc+zXT99bxjeeq5QMNHt8dz1nA9Tz23RgVhz0e4zph4XMVzVqMEP7MfHuOMCTLFKMElHgOP2aUf/OAH7Utgn/jEJ4aDDjpo2HHHHZtBwowIXxej7jAYJ+0fqUZGNUyIt02YN4QQwuyJARJCWDagROKiNKpEGm8a8RWMDg0PvsDkD/ZIY/8B/8D40Ic+1DaMs3kaxReDgzf1f/d3f9dgloO9DSwlwhBBEZ+k3KuUq8QDfuPEeNNquuGZ8BxeZ7Z4jRqu59HPPZKvT4N6fdNrPqjlNN08VYa4GCLIl1ml3/zmN8Nvf/vbZvBh6PF1sHvuuacZhWeeeebw/ve/v/0X5a1vfWvbyM7njqlbDJO6TKu2AYwT241GRzU+ahsKIYQwPTFAQghrLFVRrMoifhRJw/h9+20Yg6MurQLS2DzOV5lOOumk4corr2z/1mDTuEYHS4MwNtizoJLsjEdVpHFVzsljnEp2xVkAzzeWB1TG6zX6PJWar/dPRz1+Uli/9wgaFJPymg8/91GPhf5Yz4d8CCNjjsOtsyPUB4YJ8cyOsFyLDf98ZeuDH/xg+5cKP03E+MDAZHaLutf4hNp+wDbVx4cQQpiZGCAhhDWeqiwCBgb41po4l+CghPpPDiAfMx3vete7ho9+9KNt0zM/3eMLTSi4GBxQ93CoCFflWQW6V6Lxm9ewfo0Jlx71eWTSeat/DNP7fH28WJ5JjKXXcnl+8pnXtD485vdc3i9yEfOah/PhUhdA3dT9I/j5TwnG4/e///32YQBmRvhYAF/VYjYE45O24J4RoI3Qpmw3Y+2sxk3HiuYPIYQ1hRggIYQ1FhRG/VXR069LPv/RgdGBy/IcNpGzvIqZDvZzPP30003BrV9ncnZDV+UY5dc38yrINU4lmbDHmBe/CrmKtOkeq9+w16zxnsM8UvNUZkqfiXo9/d5PH+899tebVGap8Z4b1zT8oN+8oDECzFABMyPUHcYIf3lnIzuf+n33u9/d9vWw7wMjBDBKaCe0G9qM7acuvyJOCE9HzTub/CGEsKYQAySEsKSpRoZKYVUOe8WuzniwtKb+o8OvV7Fh+Ytf/GL7Y/czzzzTZjV4Y+4/KlCSiauKsspwxbiaVhVijzXN802iHme4pi92LP+KlHssfz1PTa9hZM6yODetG19ljSFCPQLGiH9z5zj+PXLjjTe2pXYs0dp4441bu8E4pc24LMv2VWdE8NsujdNf26vH1zwhhLAciAESQlh0zKSU9en4VezqJ1QBQ8O8+J3p4EtWvNUmzH86+AM5X0viz+O8CUdJdcmOhgdvyjE+VGBVbFVq8fdKcq8YV8by9vmNG8u31Jh0X5OYKS9pVfa6gAEChoU81SD0PBqVzGpR3+7jYakds198Teuwww5rsyK0JZdouUfEZVqk0d5ohxol1SA2nTjja1oIISwHYoCEEBYlMylmprv0BaofXK+PoqeSyAZjNpTjZ7bj4IMPbrMdP/zhD4ennnqqKaTOdqCAYnSopFalF39VeAn3TIrv6c+hvz/efH38UmJFyt/nGzvWuGpQgHVT80LNO2lmipkRDE5nRYA8DzzwQPsb+8c+9rH2Sd/1119/6iMFuBohts1qeNA2MUo0TGyXNc8YnmssLYQQlioxQEIIqx2VrF7Z0o/bK2r4MTBQ5lTuiPeNtModacxysLeDGQ9+Jsenc9lQzmdZ+TwriigGB4qmsxxVUVVBVYHVP0ZNw1/3NBhXqXE1X6Xmny7fUmBVyj9JBmPxY/lqPFTDw3qq6UCce0acCePfLrfccstwwQUXDIccckgzZGmLGLfMjNhehTTbqj8zrHlqu+4hTcbSQwhhKRIDJISwYExSpKqSNZZuHpU1FTeoaSh5GB+6KIP8s4M31Ch9O+2003DyySc35fH5559vG5D5IpKGB6Bsonj61akelVSUV5XaSp9vLK731ziphst0+ZYD/f1Ln1brpBqNFfONpZumy8Z0XNJoFxoi/F+Ef41QR/fff//wta99bTjyyCOHzTffvLU52hvGCDMiGL+0R9tu3577+B7SZCw9hBCWIjFAQggLwmwVqZqvUtM0NsDjiMPoYH8HMx0siUH5Y/PwfvvtN3z6059u+zueeOKJts4fJZK32az7R7HERaFUOdWvkoqrv74tN0+NM191+zjyj6WPYfp0edZUJt274Zpe89Rw77fOcM3fQ1qF+tIIwVCl7dCOMGJJYybt0ksvHY4//vhh++23b22SNuhX1WqbpQ3XWRDbd23jhmtcHx9CCEuVGCAhhAWhV6CmU6bMi3I2pqAZh2s8xgaGx3rrrdfeQvNjuQ984ANt8/Ddd9/d3majLDLbUY0NFFGNB8Mqob1fZZQwimgfZz6Pq8dLf42w8liHVf6VWg9V5n18rRPOCYT7zeq2E6D+CeNijNC22DvEzBo/OcTg3W233drnnJkNAT58QDu1fde2PNa+a5wYF0IIS5kYICGEeYO3vPp7Bar3V4xHEeuVMeP080ZZ4wPDg43B+++//3DhhRcOP/vZz5ryiNHB0hkURZVIlU9Q4ZSxrydVqsKrgkq84d5fqelQldrqn4l6jjWd6eRCXVlfhHvZ9nUrpNf68dhaPxogup635rdsGiLuE3n22WeHm2++eTjxxBOHLbfcss3OYYDQRvHDpPZNm7aNS983QghhKRMDJISwIKhAqURpnKBo6Tdd5ctlKtAbMy638r8MbARmQ/CXvvSl4cEHH2x7ODA8eCuN8cGsR535qEaG4V7RxK+y2dPHe66esTw1Lswdk+Q7Fj+pHmq8x9kOahjqP0Y8BkPET/niYojceuutwyc/+cm2B8m/rAPtXGzvtu/a1sWw+XtqvhBCWMzEAAkhLBgqSFVR8m2vcX6qtMZ5rPlR3nibzBp7FLp99923GR58JpWfyLFGv99Y7ttwFcuqVKpQ6leZ7JXLSf4K8ZWx9D4uzA2TZD7GbPLVNmJ+4jRWqxEL5sfQZRakfjnrueeea39Z5+trbFbHgGaTOgY0bbq2cdp/bfdSjXaOxx9CCEuRGCAhhAUFRQoFqlKVLVwULePFZStu7GVt/T777NP+4eEeD4wO3jpjcIBKowqiiqVhQGmEsTQxbUVY2ePCyrOy9TV2nHEV420zGhw1XqOkGrwYwRgiuHzCl88/8y8Rfmro8kHc3hjHb78wbFztLyGEsNSIARJCWFCqIqUyhYvRwT8SxvIAMx5s5OWN8XbbbdeWtLC0hWUwfEqXpVYaHSqA/RvqMeVSRZJ4jqlp4DFh8bOy9TWb42oe/RoghnFtT6bpp226RwRD5OGHH26f7z388MOHDTfcsBnVwKwIhgh9ANdZD1z/dUOaEA4hhKVGDJAQwoJSlScMixqHwsWbYI0OwhgczHpgfGy22WbDhz70ofY53RdeeKHNeABLXuqsB4ZHVQKlKpCGccnXp5keljfOYowx1lbw2/ZohzUffs7njAjt9r777muzeHw4gQ8oYIT4DxH6gLOBzP7RR2p/qf0qhBCWEjFAQgjzhm9vKyhOKFQqUUA+XIwPFS38KGIsT+FfHu9973uHr3zlK8Ojjz7alDc+e4rBgTLHm2WUORW9fiZjJmPENMOmheXBmJExG8MDv4ZGbT89nkvjg7ZKmHbM/2g4x2233Tacdtppw4477tgMbz8nbX8gDj+uhknft0IIYakQAySEMG/0ShKKFMqTBoiGh6Bc8ebXHwmyJIsN5uecc85w7733NoODjb2gsodS58wHihxhwN8rhDWMX2q4TwuhxzYEYwYILm2wzoD0eWyntF0MaJYQ/vznPx9uvPHG4SMf+ciw1VZbtdk//qruF7M0PnDtM7V/hRDCUiEGSAhhwUBh0gAhjKuRglIF7PXACOFLQWzUveOOO5rS5nIrlDbCKH4aGTXcx1c8FgVQ+jxgvpq/poc1i+nqd7o2QBxtraYZ5jj8GB6gnzzO1uH3/BghtG9mRZ5++unh8ssvb3/wp39gjPu5afuQBkiMkBDCUiQGSAhhpdF4qMpQrxT14WqAmMbSEt7yYnjwdSuWW33jG98YnnjiiTbbwXIrl1mp5OGq2AlKnZAuxtV8NT2ElcF2VI2U2rYM1zZXw3VWhHMwG8JMCEYI/p/+9KfDZz/72fb/EPoMRgh9pe9DNVz7JG7NU+Mqk+JDCGG+iAESQpgV0ykppI3BjIZ5UIzqV3xcRqLxwZp3Npmffvrpw5133tkUM9bL81YYl3AFpW0mA6SGK6SFMN/Y1mx3tFHaLF9uqz8xNB9hXIxuPieNMfL8888PV111VTPKWZJIP2GW0P5jn9LAEPud/W269BBCWGhigIQQZsWY8qIft76FrWlgPHH1DS6GB2y66abtc6RXX311U7jc64Hh4VKWMaVOBQ635hHT+/gQ5pvaPntsrzWdNs9xdVaEWT/6AXF8LYu9UGxSpw+xLMsvxhEG+pf9DoOfNOPEvmfYPhpCCAtJDJAQwqxQealKS1Vk9LsEhLD5wD0e5EFxQoHC+OCfHmeccUZTsDA4/J8HqKypoBlGOavKm1TlT7fGh7A6sB3WtojfNqxb89rOMcDpE7/61a+acX7dddcNxxxzTJsN4Stx9CP7mq59kv5mv7Qf4jeuxptWwyGEMF/EAAkhTEtVSnplRoNCiKsGCHHkIayfL1yxjIR8RxxxRPvqD8tRWPfuUiuVtKqQ6e+VtknUc9TzjKWFMBdM1/aqkQGEne0AlxPWPBgf7HvSIHejOj8x/NznPjdsv/32rT9hiDgD0vdLwmLfNK2mj+UPIYT5IgZICGFaqlLSGyB9GAgT79tXDRBcZjz40doWW2wxnHTSScP9998//OY3vxlee+21pmChcEFV2lTMVMiMFxW4Hs/jucS4EOaavp3h1nZKnO1yUvsljjavceJ5cAEDhH+HEMeSxfe85z1tHwgzIewNsV/aN+2Phvu+Wv19egghzBcxQEII01KVEhUZ46vS4ttVDA2ND5UeN5mzbOSAAw4YvvrVr7YvXLG0BFCsfMuLX0NEhawqYDWuV+DM4zlqOISFoG+Hhvv2aLwGR23L+OHll19ux9kvyIfr3hDcH/3oR8Opp57a/hvCTAhGCLMhtQ/aJ+2rurUfGw4hhIUgBkgIYVqqclKNCv2GewPEPOz3wADhb+bHHnvscPPNNzeliq/8sOTKT+uqlFV8E6xCRtykvDUthMWARnT11zBt2pmOmgaGa9uveTBK6EPMiDzzzDPDRRddNOy9996tz7lB3X7bQ9+0X1d/Ta/hEEKYa2KAhLCMQVnB7ZUQ/cYDeTUsQEPD8+g3TcMD/1577TVceOGFw0MPPdQMDt7cYny47AqlqhobKloqXzVOBS2EpURtu7blSe2ZeNo8e6PsEzXe/kAfoi8xi0gY4/64445rX5XjnyFA37T/2r/x88KAePuscYbNG0II80EMkBCWMVUBGVM6jFMxUZmp6UA8yz5MR/Fhcyz+Qw89dLjhhhuaIuVG897wGPsvgv4a1ytqISwVavudrj2bBtUAMY5wjaMfsRyLr2TRtx588MHh85///LD11ltP7bmib9KHeRlAH6192z5c/fb3EEKYL2KAhLDM6RWQGj8WV8MoMyo1uCg6GB4sAdlwww3bRvOf/OQnTTHiLS2zHyhNrmkHFCkUKuJ7Jaz3h7BU6ds3LsaD4R7iNTI8zrzEg3H6MUR++ctfDs8+++xw6aWXtiVZ9FeMkL/8y79ss5J9v659uvpDCGE+iQESwjKnKhy9MoKLceHMRs1nHG9LMTxQcADjgw2xn/zkJ4fHH3+8KUTMfPSKlMrVJAWrjw9hKVPbs37cMcw3E/YTDXgMGjeo/+IXvxhuuumm4ZBDDml9lX5J/8SvIYK/9nv6Mi4vE+zrIYQwH8QACWGZgqJRXUAh0bBQIalx9dgaj0KDgsOSD/Z7XHnllcPTTz/dZj1QiHzTi8KEslTDKly4hI3DVdEKYalT27n+OvNX4w3bFyo1HTiHyxfpV/YtjBA2qd9+++3tZcBmm202rLXWWlP7QvrlWPZ3XA0Q/Pb5EEKYS2KAhLBMUemoSgb+aliMrQU3D0oKoNCwxINP7B588MFtvwdGB1/nca9H3fOhEtX7VbZqGH8IawK1bevv27x+0zAuzFPTcY0nj3G49DPS6HNAP3zuueeGs88+e3jHO94xtT/LPVv2dft27feGa/8PIYS5IAZICMsQFYsx5UKlBHoDhPzEu+TKz31usskmw4c//OG23wMliD0fuFD3e+BXacJVaYLejxJlOISlju27tnv9k+Km6wPm0QARZ0Cqn9mQF154YbjqqquG/ffff8oIcV9I7fP08xggIYT5JgZICMuQSYpFXYKhMkIYv8fgR3FBgWHmg6/tnHPOOe0t669//eum7KgA+SZWv4aHb2nBMPlUmIirbghrCrTp2q5rP6jp9oXaJ8Rjjfd406rRTxrnYB8WsyG33XZb+zIdfd19IbxQgPoMsO/rDyGEuSQGSAhrOJMUiF7JEOPq21D8Qhp/W2a/xzvf+c7hggsuaPs9+AwoxgfKDjMgKEP4VZAmKVrToRIVwlJmUrueybiQPq33j/Utwvi9Bn0SIwQ/f0/np6Bvfetbp2Yx7e8V+7vPBaj+EEJYWWKAhLCGowIBKhn6fdtZ8Tjz8maUfPoxPpghefe73z1cf/31w0svvdTerLLvwyVWKj/4mfWAqiCZpjuG+UJY6szUtqdLM736+3A1QID+Vv+roxGCy4ch4IEHHmib07fYYos2CwL0f/q6m9B76vOh+kMIYUWJARLCGo6GBQYFikUNVwOkP4Z0wI/hwbrxP/uzP2su68jZbI6Cw2d2mflQ+REUHtKr8WF8Tz1uUp4Q1lRm2+7JQ18C4wzXPobf5Y74MTxAo4SZEL6Q9dhjjw1nnnlm+0LWeuut1/q2syE8G3zxUJ8LNRxCCCtLDJAQ1nBUGjQojNO40K35iatvQVFM2O9B/OGHHz7ccsstTZFh5gPFBr8KElSFqY+bxGzzhbCcoY/Y32oY7D/2pZqX2Ul+BOoLAfwYIU888URbRslySvZ1sbTSFxUYIPR58FngM6I3TkIIYUWIARLCMgGloRoaKhYqG+YxTpj9YOaD9KOPPnq466672htU//GBcoNCo2KjYrSiqDCNpYWwnOn7hn6Mf/zV+Kj57Y/4nRHRT7yfy3755ZeHr33ta8POO+/c9oSA/b8+J5wVIRwDJISwKsQACWENpxoXvaFRXeJVNDQ8eBvKno83v/nNwwknnDDcc889bTMrb055g+qXq5wFUeFRMYKqEBk2j/4Qwu9jH+n7jhBX+12Nr9g/qxEC9GGMEJZQknbNNdcMu+++e+v3fqZXI4TnAc8JngW4PjNCCGFliAESwhpOVRT0q0D0aICwDtxlV6wP/+hHP9o2rTLzgTLjZz5xq/KjMmR8VXagKkceE0KYnrE+o5Fvn6tpFfuh+ftz4Xc5FmE+LLHnnns24wNDBNfnAq4zHzwvfK6EEMKKEgMkhDWcMUVBg6P6QUVD42ODDTYYTjvttLZOnCVXvClFWVGJUbnB5Q2qSk5VfFR0KpPiQwjj2Gdwgb42yagQ+6Bp5Metx9Q0+jgvD6677rrhwAMPbM8B/5ru88HnRgghrAoxQEJYgxlTFlQkgLCua7t568kacGY+Tj311OHJJ59s//jgDSnLr1BQMDb8os50hkYIYf4ZMyig9s8ab1qNwwChf/tJ7VtvvXXYZ599mhECGCEaIOuvv/6Uvz5X9Pdhnzk1PYSwvIkBEsIaCAN+D/Eun0AZ6JdU4Ge5BRvO3/72tw9nnXXW8NRTT01tOGfmoyowGCFViRlTckIIC8NY/zOuh35r/wVeKgBpGCKvvPJKM0b41PbBBx/cZkJ5KcEzgj0gPDt8YeEzp1KfOZPC+kMIy5MYICGsQTjQjw34gNKgwQEoELzZdNnVOuusM2y44YbDpz71qWZ8+HdzlBQUGmY9UFxUbowHlRn8LvUIIaw+qtFRsa/ST+2zuKZjfLgc67bbbmtGCB+jAJ8XPkPE5w0uz5U+T/88qmkhhOVHDJAQljD9QE54LA6FoMbrN42ZD/Z8bLTRRu3vyI888khbisGyK5QQlRSUk6rYGF/jalh/CGHhsU/OBHl9seBx9HueARgi3/nOd4b99ttv6uMUGiE8P6Q+Y2q8cSGEUIkBEsIaxNiAb9iZD8K+oQT8zHy85S1vaXs+Hn300am/m7s0oyozvDVVaTFOxWVSXAhh4bEvVvp0XPs0uDSLOJZdsgSTZ8B3v/vdtieETengs0PDIwZICGFFiAESwhrETAM+aRofvsVkbTebSk888cThoYceaoaHX7uqxgagmLhUoyoxhqufY80TQlh46Iv21x7SJ6UBhgguG9KZBcFlT8gee+zRZkxdjgU+d3z2+Jzpnz8hhCAxQEJYA6gKQKWmaXhofPiJzbe97W3N+HjwwQfbkgvedmI84GKEoKTUDasqNyovVdkR40IIq4/aJ3tqPl800KfxG/ZZwHPA5ZjXXnvtsNtuuzUDxC9kORvCc6bOtFY3hBAqMUBCWOJoYIwxlhdlAaWBPR/4/cmgbzlRSFA4qpKiclKNDo0SFRjz1WP0hxBWD/TD6fqiMx2CkYFrn65GCc8Iwl//+teHXXbZpX2yG5xNxQiZjQFSP4QRQliexAAJYQmhYQH9QK/fN5GEUQpM8/OZLp8gz2GHHdZmPvjspv/5UOmojCkwY3EhhMWJBkaNq317Ujrg56UELyh4VmCMXHXVVcN2223XlnA6C+LzphoiwLOmf07pDyEsT2KAhLBI6QftPn4sjYG/GiAaHYRdr+0byyOPPHK4/fbbm+HBpnOXW1TlQ6WkV0xgLC6EsPip/dp+3MeBn902zDOC/WFsTH/ppZeGL33pS8PWW2/dlnLyYoNnD88cn0/1JYnPpMx+hBAgBkgIi5Q6aPcw0NfZDfNW48N48hGP0cFPBtdbb71hzz33bN/393v/KCD1bSiGiG8+jatKSh8fQlg62I/7PlzjK6RhiLgUyz+mP//888PnPve5YYsttmjPFl5u+MIDMEZicIQQxogBEsIipjcmRIOixhMHxPWDPt/v5y0lyyVYu33llVc2RQIlgqUVKiB1ycVMBkgIYWlh/51tHzYvz4o6E0KaLy8ee+yx9u8g/paOEcJyLJ5NPIN8Dun3WVWfTSGE5UkMkBAWMXWwrkaGfgf0mlbzY3jwRhKlYO211x622Wab4fLLLx9efPHFqT0fKBcoFCgY4EyIioZuVUgMhxCWBvbdFenDPBt8EQEcpyFCmp/ovffee4cPfvCD7XnDSw7c/vnkcwn6FyQhhOVHDJAQFin9wI1fI6Om6e/B8ND4YPZj4403Hs4+++zh5z//eTM+mPlAiagGiIqGRohhma3iEkJYnNCHZSyuYprPA58V9RieJewLueOOO4ZDDz207QVxP4jPKv08rzQ+DIcQlicxQEJYpDBw92EHdKnpQLqGB8sggM/t8q+Pk08+uf3l/Fe/+lVTGKpCgV8DBP8kAySEsDSpfb3v28aN4XE8E+psCPGk42cm5Ne//vVw0003tf1lLvl0majPJZ9TPssMhxCWHzFAQlgiVMPDAbxfykCchodKAPEf+tCHhnvuuacZHigLKhUqEaByoVLRuyGENZPp+rjLMn0pwTOjGiIey34y/PwjZMcdd5z6UWF9Lvnsqs+sEMLyJAZICIuYOmC7iZPBHJc3iobNzyBPPpZAMPjDQQcdNNx9993Da6+91owPlARBkVDBUJmAqliEENZ8at833Kfj+tJCg+Tll19un+cFlmMRf8kllwwbbbRRewHCixCfZT6j9OuKL1SI71+uhBDWLGKAhLCIYSCug7TGB36XNDBQa4wwuOMnHwM/X7y6+uqrm9LA0is2naM08H1/lAmMDw0Q4qUqHCGENZ/a92vYuJrG88J/hNQ4ni/8qPCJJ54YTjrppGHDDTdsRgjPI59RPqd8vvlsCyEsL2KAhLBEYLCuRked+QAHeWY9+B4/Pwi77LLLmqLA8ggVBXAZhfSKR3VDCGs+9HcxzudDTceP4cFzpcYxA4LfmZD7779/OO6449ozic/z8nzC8PC5xT9CcDVKpD7TQghrLjFAQlgiMDhXo0M/A7wGCbMe6667bgvzbf4XXnhhyvjQ0EB5QEkwrAKBUYIbQlh++CzweVDjxvz1eWKacew1gx/84AfDbrvtNqyzzjrtpQgGCMtDXV6F63NNYoSEsDyIARLCEsK3hL0x4ptFvsHPAH/00UcP9913X9vz4RevUByc+TCs4gAxQEJYvtRnQR83kx+X5wrPEJ8jzIL84he/aPtBtt9++6mvYlWDYzoDRDeEsGYSAySEJYJvDfsBm3gGdgZ4DJB99913uPXWW6e+z89shwoCuFQCRQG3GiQhhOUH/b9i/KRng/ncPwbE+2zBz8sPnkH89PS8885rm9JdigXM3OrnmVbxOVeffyGENYsYICEsMRiY+0EcAwTjgzeN7PvgzSMKAD8bRBnwzWTdNAooC72SUf0hhDUf+rz9vvrrs2Esj4aHhojpzoKwKZ0/pbMf5Pjjj28vS1iKxXNLqtFRn3E1HEJY84gBEsIipg7EDtQV49l4vsEGGwyf/vSnh+eee669eax/Oq/rtFUScEnrlYYQwvLCZ0ANzxTns4U4DRHC+NmgzmwI+O8hflK43377tWeVn+bl5Ul9vtXnnDO+IYQ1kxggIaxmHHjH4hmEHaQJ43eArksY8B922GHDnXfeOfzt3/5te/OIMoARgoKAAaIRojKhIhHWTObaoFThHEubK2iXMhZf48DyVAW4pveQz7wwds6wYiBP5KhsrSv81AfPIIwQ3IsuumjYYost2k8Kfa75HPNZ5/NQV/pwCGFpEwMkhNXMpIGVeOGTleZjoHbpAm8SGcz33HPP4dprr21GhoO9CiOKQAyQ5cdMyvhiRiW2D4/FTUofwzzKZqb8YXqQozIdM0DMw0zIL3/5y+Gpp54aTj755OEtb3lL+1iGRgjPMp9phDVIfBaax/QQwtInBkgIq5lJgyqDsAO0YQdhBmv2fbCeepNNNhm+/OUvT/3vgwFfAwRFQOND5QClQCWhKhMhLBZq++z9fR6NiZ6x4/o4/WHlQH7V6DCeOP8TQpg64sUIP0O966672mwtH83g+eVzzWddNTzqs9Fnn+EQwtImBkgIqxkH1n6A1QBx9sOZD2Y93HSOy8+++PMwg7vKmMaHCoKoEFRlIYTFhu22usbj0r5rmza+Hl+NbtMn+cPKgXzrzGofj185E+eX+b71rW8Nm222WfsqFjMhvlDx+ccMCc+7+kys/hDC0icGSAgLxHQDqGmm4/pmkIFYiHPmA/bff//2sy9mPoC3jioAUBUAUUkIc8tikO+aUL/KsbZf3GpUE9bAwK1KsHlMN76m1bD+sOL4nFGuMhZHfpZi8Zx66aWXhrPPPrvN3lYDBJcXLjzrfPHS0z87QwhLkxggISwQMw2gfTrGhkYHYQZn0hmo+bPwhhtuOHzzm99sy614s8jgXpUxcEYEqiIQ5p7p5Dspbbr6mO58Y5h/RY5ZVebqWrXs0Cu2fT78puNieNdwxWOkN1Y8d1gxkN0kGRtnOs8hZ600Qp588sn2aV6+ivWmN71pygjB8OifiRXTQghLmxggISwQMw2gfXpvgOCy/Iq108QfddRRw89//vPh17/+9dTbYRQDB3zDVWHo48LCMEn209XHitaV16iM5VsRpjvHXJwfankrKq/4zVfD9dg+X03Hreeq/po3zB5lpzx7WTr7pN98hP0qFs+oG2+8cdhhhx3aclI/z8sz0Oeez8SKz8cQwtImBkgIC8RMA2if7gBc/bwphHe/+91Tn9zlG/t1gBeNEBUD/cTXfGHlUbZj1DRlX9ON7+OkT5vpePw9Ne/KMN05+rSxvJZjErPNA7RvlV3CtGPCuCi1wOen6Q8ouMDbdqjn6v2eP8yeXoZ15pU460kIk05d+Vyifvhh6uc+97lh0003bUYIzzlmQfrnoX7DIYSlTwyQEBYAB07e7BnGb7jmq4Ms6S69Ivz617++/XDwq1/9alt2wtIrlC4H/Trw61dpCCuPMh2Lr/6xfDWeOjFOBbrmUTkz3nDNo7+m1zTicPtj+vjqTvJ7zNg5jK/UtLE8fXx//326cd4nLgaFb9HxY3CIm5w5RoOEPB7P9VSW+3sJK4f1ZF0pZ/y4puE33rqhvvgq1vve9742A+L/QXwO8vzT9fnoc9FnZI0PISwdYoCEsAA4oFY/g2id5TBNP/A20PwuUTj22GOHxx9/fPjrv/7rpnT5hrcO9jWsohBWDhXVKssq517GNQ5Fl/qhLjhPVXpVxvpjahjG6pGwSrVp+qWWu8fz1HPX+JpX+rSZjqn3V9PHrlnlQpyyUlHFqEBZpc3zPwlc5Ip8WYb47LPPti/BPfDAA8MPf/jD4aqrrmo89thj7Rz0k3oNytCXL6wc1mGlytY6F8LUnbNV+FmKteuuu7avYrkZnedffT76HNTvM9L4GhdCWPzEAAlhAaiDZB0sGWh7IwTDxDd/ronmSzEYILvttttw/fXXN4XMwRvFikFdHPRrOKw8VXGVqkzpEm8YzIsCDGy8ZcmchiNxHuc1CPfnMg5lm1kvXM+Pa1g8DvrzAuGKcR5nPs9R44znmtCH8dfzVvrrCWXUSKBdIx/khLyczeC8fDnpmWeeaYbGvffeO9x6663NyDjvvPOGk046aTjyyCPbV+F22mmntqTn7W9/e/vz9osvvjhlsFgWzlfLGuaG2t50J8navH4V69RTT23PQ55z9fmIX3xG8szErWk1PYSw+IkBEsIC0Q+U+hlMHVA1PvAbzxvB9dZbr32y8otf/GJTqKrxwSCuYuXgbrjGhRVnTH5Vtj0qW/h9ywscx1+g77///qZAo3ChFL/22mvDb37zm+GVV16Z+pIZdSr1nKCiXxV+jJKXX365QZxlma68nk+/rucEvyxlXD3W63N+w6R5TaD8Gl/OYnDP/K/m1Vdfbfzd3/1dC3Pv5OM8zGggq4ceemi47bbbhmuuuWb40pe+NHz6059us38HHXTQsPvuuw/bbrttMzLe9ra3tS8nYayzhIc9UixVfMMb3jAceuihw4MPPji1V0p51PKHuaM+j3BpG9KnC/XOrNaPfvSjZkBSj/4lHXxeis9M/ZWaL4SwuIkBEsIC0Q+Uug60+DU+SCMO48N/fvD34Pvuu68pU1VR7Qd0wsbpDyvHmDyVs5iuomUcihWKNcbGd77zneGEE05oHw/gx5Ff+MIXhu9973vDww8/PLzwwgutHlXOUcac4eIcnE9lmXyGAaNDQwGMB8vSU/Pq1jTdel7x3OShLMbjr4aGsz0YGXylzXviOOTBkimWETKTwZIpfkx32WWXtdkM3oQjI4yHffbZZ9hxxx2HzTfffFh//fWbYsonqDEu3vjGNzY/m5cxPOgj9Bf7DMt5ttpqqyZnZOksSK0r6y7MLdSzru0JjDfNtkP7wL300kuHrbfeeuqzvPV56aywYd0QwtIkBkgIC8jYAFrf8uHWZVm8DeSzuwzKV155ZRukUfJwpQ70/QCvP6w6yrPKuSpVVckC3+z+5Cc/Gd7//vc3JZk389TnRhtt1JYKHXLIIcPJJ5/clgp997vfHe65556pGRLq2VkCZkpU5FGk6wxYbQeWoZZDatqkdFzOxbnBcDUuMKowLigP5fvtb387/P3f/32byaFs5OfrRiyXevTRR9s9MZOBkXHxxRcPn/3sZ4ePfvSjw+GHHz7st99+U7MZW2yxxfDWt761tX9khHHBzB/KKEYGRgUGiD+uUyHV1Yi3D3EMRss555zTyoNxR9m8V+QV5gdkjFvbmX7TCYPtmDaFYXriiSdOzYJQj0Cd1ucndW59hxCWJjFAQlhAHEDHwrgMqg66vMlFEWN5CQobb4yd/ajKpwN9HeDD/KFChb/K3Down2/dUbpZPodCjRJNna677rpTCjZ1j/KNQcLyIur6ggsuGK677rrh7rvvbj9sQ4HmOhgCzC6g/LNsC4OEsEYJRgJ5bBu2D8tsWWu67Qk4HgNDOD9wLa4JXE8jmFkSjCWMDZaX3XLLLcPVV1/dlgp+6lOfGj7wgQ8M73nPe9repe23374tmcLIoG0zQ7HWWmtNgUyI858QKKDIC2UUOMa+QT+pBof9pvr9ohJGHsu5MOK4R2dwrKcw9yhf+0cvb8L2F9oRYYxbnm8Y4jvvvHPrJ7QB6p16rM9KDRDDIYSlRwyQEOYRBsoaroNoH8+A6qCKAqWyutdee7U3yCiEKJcoUQ7oDt4O5v1AT3oNh1UHGVc569dVqccoQEFnhgMFGmNDBRrFyre8KNso3SjgLj1hhoTlQyjuGCUs3/r85z/fNl2zZOmRRx4ZnnvuubYEi+u53AkwFri2y7iAdiMYD8a7XIrZAY2Mejz3xDVYJuYelptvvnm4/PLLh/PPP7/d29FHH92MDGYyMDK23HLLYeONN57al4FRwb1xj7RnXIwD7rs3MEA/crA/9Mqmsx72FeJwCaucch6ug9HDhnVmkrh364j+Yh2GuaXvH7WPjIWpD8DYxaA9/fTTh7e85S2t/mwHQN36TLVNiG0jhLA0iAESwjziYFkHyN6vMuUgCyhPKGq8LeZHXSiyKIcM0g7e1eBwIMcv5K3hMDcgZ2WvEqusrQMUXZR43ryjnKNoo0xZ39Qx9Y+LggUo5OTR8KT+MUiI4xhmUbbZZpv2dviAAw5oG7JpG1dcccVw++23txkyZkp4w097wQjCyNCYwMXYwJDFr2Fim+IYePrpp4cf//jHbcnUV77yleEzn/nM8KEPfWg4+OCDm0HEn6sxjvjSFEucKDtl1sDwXr0X4N6qkQG2dQ0H+4N++w4uxowQNs28+s2Ln+th/HB+9hZocHG/3GftSz3pO3MHMlbO+pU90F5JI462SRulPfPihTqk/dhHar3bh/p2EEJYGsQACWEBYIDsMV6XAValDOWNwffAAw9sP+riDbVvbwEFqi4lcTA3PcwfyFkDRGqYPCj48O1vf7sZDWuvvXab7UA55s2uirLKtMq1bUEl3WVIgHKPQcJMCpDGscyWsEeIJVxscsdYcLaELwvxLwy+LAXMZLDOHsOI5VLf+MY32nIpNn7zGds999yzzWJgYLDxGwOY8tAWub57MvBXY0Mjw5kdDQyOtY3X+wTkgGu8YVE2wPEV4z231yGOY4mjDBhFlOvjH/94M9BQbjG6qC/Q0Kh1aR3qhlWjylW5E4+r0WtdUDf0G+JYysfsFfVHXVrXvdFa699wCGHxEwMkhAXCQbIOlihMVVGrBghvvL/85S+3gZslNipEvj1kkO4H+RrWH1YNlVTpZQ1VsWLmwaUkfNWJP9ez38P6ru3BsIqzYdtHbRMoYShjKPso1sAbfgwClznRbjjHZptt1mYqeIvMBngU8DPPPHM47bTThqOOOqrNyuyxxx4tD4YGn7LlWp4HF+osjNfEr1IotmFd0BAwTLnGII8yqHGcqx5f8Zg+vT+essLee+/dlq5hyKPkWo/WnUrwWN2GVUeZVvnqd8aOfkbfoX6YCWHvE0Yx7Ys2T73WdlbbQAhh6REDJIQFQiWpKmnGO7jyBpk3y8Qx+LK5143nDNoM1ipKDtoO5sYTDnOPssWtctYgdCkJy3yoszvvvLN9OhllHSWeurbu+zYhfdsgDFWxrgo2uDxFY4AZCJRuZyUIc74NN9ywGUOm085Ir8aEs3CeD79l0fXahC0LfrBMpuuCx1ZMq5jGsTVPf4z+er0+D/eKIcVyMfatUDcsxbLuqDf6jf2KONz0pfmlf245myvUE4bItdde22bjqEOejbRJ+4J1XOs9hLB0iAESwgLhYFkVJvBNMXEqq+985zvb8hiWI1QDpCpJ9c28AzmucTU9rDpVtmNx1g31hZLLZ5NRnqhPlCfrGzQagLDtoyrSvTvmN1wNAY2HalTQrpzBwE8cZfL6wLXruT1nPTdtFcxf08DjgfR6PzVfT03D73mnizfN69Q44f6QP+mnnHJK27jP7FSts77v4Dc8Vudh5Zj0PELGpFW5E+bZx4cPPvzhD0/Vo0bxdO0uhLA0iAESwgLhYKnC5EBqPLD8hUGWQZf/QfgmEANEhQh/fWPoIK4/zB0zyZe4qqyiOKHgsteCP3dT7yj91Cn1q7GJQkX9Gw+Eq0GAX2W/5sG1PVWFjLxVMavnJw68Bq7n0m8e4/TrAuevbdZj6vnEMOmWq8e8tdw1Tbc/f81Tr2OcYe4VQwvYH8OsFP8rURm27modViUYt6/zsGKMybDGOfvkDKLGiEvlbrzxxrZUkP1HtGfqtLbBWvchhKVDDJAQFog6YAoDKQMq6SwX4Ud1bFrmz9m8RWcttAM1g7YDt8pRHcgn+cPKM518BWVJpZUPBTAD8tOf/rR9QMBN2lVJrvVvvAq2xoFxte2Yx2NhUrsCFTXy9Md6XJ3N8FrSx3us8ZPSoB4/lmZ6dXvqMZynyqZPN67Gc+/kR2nl7Tn/WmFjvvtArD/7knVoffZ1HlYOZYhb/brKvUIafYmPBvDRhE984hOtbulP1rXPTetcfwhhaRADJIQFQsWohzQGUxRV3tQec8wx7Q06SxDq0iveEPp2kHiVJBkbxMPcUWXay1klihkr6o1P2KLwMvtBnTo7QX2jFKscW/+61W9e/B4r5jWf1HNWf5/XsGWp5zcfbbLOoJhe8Rpj1zLOdMNez3zm6f0V4saO7/PXMHk4hvvAAKEOzj777NaP6D+1D1F31mGtV12g7+kPs6fKspen4VoPQBpgKML3vve9Ydddd217QWyX1vFYOwghLH5igISwkjjgOfjVAXAsjKsi1sczoKKs7rjjjsP111/fZj9ApQelqS5RwA0Li8oSrsoqLvWCS73wxpaPA/B/DuoUhQm3V5qt/5WFc9R2VONN69tZhTQUuRpXzzPpuD6+5p2OsfwrcvwkNDLA83kt0nBJY98LM4xHHHHE8JOf/GTqc7zWofVZw339h7lDWVeq3I2jT7GkkU9I86lo+hJLsaZr22BazdPHhRBWLzFAQlhJ6qA2aYDr41WW8KuQqiCR96STTmpLDniLztt0jQ0GZhRdBuU6kIeFQ6UIqA9d0nB5o0693XfffcMHPvCBqU3fKPoaINTxpLayInCOqoT1aabrl5qnT++P78PG9eGVZVWPF+7DeyGsy4wHLkors1AYg+wl4OMOLO+hf9W6tJ77cJgbkGnPWHwfRz2xbI5lqdQfs1kYk9S5/cq20LdLw32c/hDC6iMGSAirSB3kKn16PUZlVOWJzef84foHP/hB2/eBMovxoQHCQBzFaOGp8lYhoh6sC41Cwi6/YgZr2223bcYHhqWK0qS2sLJMdx6vY/uaTd4+PCmuxq8MK3Oeekx/HOGxe3R/i8oqnx3mfycsw+KP8e6vqv2q1q1xYdVRnsq0+qv8a/7qYoDwRSz2gvD3ffeCTGrbxNX0mmcsfwhh4YkBEsIq4OAmDHi88cYF8+ivb+zIByhIDKjMfrz44otT/ynA+OgH5rCwoBzVMPVBnMuuDFNXKLQsvzr33HOb8sueHt6+U/9j7cW4+WJlrzXpuEnxK0I9x4qcZ9JxGvI1rqbh2hcxBqkPlmExS0V9MRNCHQp1aX1a37X+w8pRZVzjqlsxjrrAdcbq5ptvHvbZZ5+pf9xQn/U5a93bJkzr42tcCGH1EAMkhFXAAU00KlR6wAGvfwtuOktD+O8HP91CKcIAcbCWOjiHhUMjwzB+4jRAcIlHQWL245577mkKLooRBghtwfq33sU2tDqZrix9vHkn5Z8tK3OOeu16rH1qjJrXfsmsFMt4WM7DW3X6G8YGdSnUcQyQuQU5So3T78sW4/T7h3pmhN0Lcvrpp7d6Z0aLOrW+6/O2Ylvo20QIYfUSAySEVaAf0CYNgubBNQ+DJ4oqHHfcccOjjz7aBlm/f+8g7KBc4wyH+QM5q5AaNk4DBAWJNIxGPr/7zW9+c9hyyy3brBb7DmwLfVvRXd3UMo3Rpy2Wcs8G7w3oa9QFG5j5I/yFF17Y+hkGiF/DklrftoWwath3poursu/TqSOgj333u99tL2yYBaGf9XVc6x1qW9Bf20kIYfUQAySEVUBjoob7gQ63Doz4GSxRUP3y1WWXXdYGWhQiBl0GWwfgOhBXf5g/kHFVSHtqWl1+9ZnPfKbVK1SFyHZQ/birm1qmNQ3vy/6GS3/D/ehHPzr1sQdmr6zzvh2E+cW+ZL+yP5nuDKMzJPxE8umnnx6OOuqoZny4zNE6rv0L7H99vG0khLD6iAESwirAAAd9uB/8HPRwGSgZPFnDDMcff/zw0EMPNWXIN30OuFXRdVB2QK7hMLf0sjesX6gHoO7uv//+4bDDDmtKLvVb28bYXoXplg/NRD3PytKXZ02j9kNljWHI0p3999+//SyyN0AqfZsI88PY880wLun0MWasmAHh+cgLm3e84x2jBgh1LbYB24TtwXAIYfURAySEVWDSACc1XhgwUVD9O/PVV1/dlCAGVwddBlze/o0NzFLjw9yCfFF8+jewxKkwaXygEKHIsvyKpSEYINRxbRe1DdS4MH8oaxRRZY+SyjKszTbbrP0VnfpjczN1bH9T4bUd2CbCqlPl2fsrxFEH1In7QKwr+tpjjz3WZkHoZyzF8nlbjZCxZ7D+EMLqJwZICKsAA5wDG66DnvF9usfw5o43sQcddFB7c86GWAZX38Yy8Kro1kE5zA9VzqKx0eexXozjp3b4+bwr9YthqdJLWAj3cWF+QM70MxTSGkZhxQDhK2VsZmY5D/3OJY8aHtat/jD3jMmXOOOpC/paNUDYa4UBQp6vf/3rw8Ybb9yepXXGEexr+Gub0B9CWP3EAAlhFXCg098PgjWPcQyWGB/Mfpx33nnN2GDzOUqQg/CYAQJ1sA5zRy9n6Y0N44A4NzL/7Gc/a1+/Ykmd+wyoawyR2lb0j4XDilPlW7G/aYDUeD/hut9++w233357U2gxQmpdA31Qf5h77E89fZ97+eWXWxwGCM9I+hzPy+eee64tpcOodM9V7VP+B6bWvf4QwuonBkgIq0A1NAA/cWIcMEAyWGJ8oAS95z3vGe68886mwDrz4du+OhBX6gAe5ocqa+pDPy51onHo0itmQHgbu80227R6pY77dmE7mC4c5hb7XQWDhX7ILNVb3/rWtvyR/odCSx3Xvge2ibAwKHv7HPhMNIyffgef/exnh4022qgZ/fY96hnj4y1veUvzj7WNEMLqJwZICCtJVWwMV+NDA8Q0FB/e1PHfD/7myxIQ/shc936ASw9qnINvmH+UOWBsKH/qhLAGCEYjShB+/03gevTaJvTXcB8f5gdkbF/E74wJBghK6xlnnDG89NJLzQDxJYD1XNtEWBjoa8jfPlfDNY5ZEPrej3/842HvvfdudUmdMrtMPWOAUNfpYyEsXmKAhLCS1MENP1RlBxgIax5mP9ZZZ51h5513Hr7//e+3Nc31x4MMsNUACQsP9aASWpUe4ioorMx+sPzqkEMOaW9fUYB8C1vbRW0D1UAJ84v9EWo8hiIK6/vf//6pPVj0Q+rVvmjdh/mlyhvsXzWOfMTh8nwEZq4wHk899dTWn9Zdd93fmQGJARLC4iYGSAgrAQNbHdwMV+PDNNcmMyD65vXoo49u/yHws5L9YMwA68AbFhbkjrJTDRDjK+wbwADha0p+/QoDhDpX+anUdmI4zC99f9TvTOS2227b/opOPVKfznzkJcDioO9/NQ2DkWfnt7/97WHrrbce1lprranN6NR1b4BUfwhh9RMDJISVQEVG+rg+L4MhAyNKKn9iPv/885vS4+Zz3/pVxQe/g61Kr+EwvyBr6wR/Xxe41B9+lvFQvyi01HHd/Gp7UBGucbWNhPmhN0CAuuJNOfVF/Je+9KVWjyzpoV6t81rXYX5AvpVJeXDtg4SpIz8A8fzzzw8HHnhgmwHBsKTOgbqu9Z4+F8LiIgZICKsAg5qDHTj4gQOeYQZHPgG65557ts3nvnVlYHVfQR14q9IbVg/9LAhh8KdoDz74YFvGw5IePgdKfaPgYoRQ57aLsHqwH9b+CBogfA3ruOOOGx555JGp2cj+wwO1/qs/zB3KuZcvYQ1C/UI6z1Dq7Jxzzmmb0emDPGepa2dArHfC1n8IYfUTAySEVaAOcKCxYRwuYZZhuUTnxBNPbGuXeePa//ejDrz6w8KAwdcbfVXZMYyL4gPXXXfdsMMOOzTDEiPEdmDd13BYWOx71TWN/sh+LBTWHXfccbjllluGV155pb0QoH5VeMX678NhbphOrvQ506H2SZ6fGI5sRj/ggAPaM5Z+mL4XwuInBkgIcwSDnqDw1HjeuLL/A2Xn2muvnfqhFgqvg6oDcB1s60AcFgbrA5wBcZaKt+PkYekccfx8kM99YoBQx7XO88Z19WEf1PCAmga8DMAAod4uvvjiZnzQL6nffhakto0aDvOH/c6+qOxrHTD7Qb2xDOu0005r9cpz1npPHwxh8RIDJIQ5QiUHt75xxeWtHGuUjz322Lb53A2UDqRhcaByo/GBIooSpAFCPPXG7MdDDz00HHXUUa1ueZveG51RflYffR8E66P2S+oNhfWkk04annnmmfZSgOV1Gp62ido+9If5RVmPGR+mAfWFe/311w/bbbfd8MY3vrEZldR3+mAIi5cYICGsAigxVaExHuVHhdQ3rfz47MILL2xKjm9aHVwdTPvBNcwv08nbNIyP6mfjK/V3zTXXtBktFFjWnVPXUXgWB/RFDZDaL2s8YeoNI4R/Sdx6661tZov6tU1Y74bDwqHcxwwQ43xBwDOVfTyHHXbYsPbaa7e9PSyzs95DCIuPGCAhrAK9cqOfwc/P76LkoKTutddeba05a5ZZu8zAyUA6NsCODchh7pkka+JrvRBHfQH1h+Jz1llntc3m1K3KDvVd20FYPVAH1QAR4qgr0/BjgGy88cbDJZdc0owPZresc+u/toOwcFS56/eZaf8kDcORWaszzzyz9UmX1lHHY+0jhLD6iQESwhzQv/muig4DoV/befzxx9tPzzBAHFAnUQfiML/0ske5QaEB82B8+PUrfl53xBFHtOVXQD1T79a5Cm5tE2FhqUbHmB/omyir1NvJJ588vPjii8Ovf/3r32kXtX0YHxaGKnf9UA0QcP8OH4VgVpLN6BogMNY+QgirlxggIawiKp9S15qj2KCg8onIr3zlK02JdYmHb9QdXCcNvGH+UM5j8iaMkuNeHfwoOsCHBPj5Gcpr/ewnbQE3Ss/ioVdC68sC4l2GxVeU7rrrruG1116b2ldQ20JtH31bCfOHslfmPDMN0yd9jvJih2VYRx55ZKtTqC8C+nYQQli9xAAJYY5gcNMY0c9bOL6QtP/++7flV8x8qNz4Bk+3DrYOvmHhqHLv/YCS4/Ic/jtA3fqmFaW2Kra2gRoOCw99UKwPXb5eRrzLsDbZZJPhG9/4xvAP//APrZ/W2S+oLwtq+wjzT5W38qc+NECIp28yg/X5z39+eNvb3tZe/FC3tT309H02hLBwxAAJYQYmKZJ9vMoM8UCYpVe8iePfH08//XQbJBkwwYGUQbQaIXWgreEwt4zJ2zjdqoRiODL78cADD7SvmfEju94AUaGxDdT2ERYW+2A1PozHZa8ALh+JoB7pp+zroY6paxXcsb4JKr5hfql1oMztq8aDH4f49re/PbzrXe9qdVoNENuD9V/bRAhh4YkBEsI0MEjNRJ9fpQfFBgNks802Gy699NKm1PRf2HEA7ZUc/DUcVo0xeY6FpdaLaSg3KKc33HDDsPPOO7e35r5lrcZHbTe1bYSFxb44qS6oL+IxIKlHDEqW77BPixkQlt5hgNZ2UduK/jC/UAf2Q7AurBvjeL6++uqrrf74PDb9k+dvbQNi3fdtIoSwcMQACWEWMFhpWDiIEU/YPLxRZWAjDqWG/QEMgiy/4k+9/mPA2Y+xgbUOsMaHVUN5Vpni18gwvrq9AeIPz4i74IIL2vIdlFbqubYBqO0jrF5qf6110vtRVPmaGYYlBqZv0/s2gR+qP8wfyL0aGshdfH5aN7j8zZ4v1PGD0A022OB3NqNT1z6frfsQwuojBkgIs4ABjIFLqgJjOoObA5zLOnBPPfXU9qfe+nnPOnDWwVYXssRj7lCmNYzsq/zH0lByiHP51YMPPjgcffTRzfgYe7ta20MNh9VDXz895MFl+RX9lX/1fPazn211jxFSl/zYVnyBkP45/yDnfqaj+qkTXeAZS73deOONww477NCMSg0Q2oIzH7Xua3sJISwcMUBCmAEHLQawqtCYrr8aICinLOng61cuv2IGpL61qwOqOPCG+UE5q7DAWB7iq+JD/fH5XT7zudVWW7X6rW9Wx9pEDYeFxzqAvu8K+dy3RZ3ywoDlO/zlHmWWpVi2CduC4RggC8PY89J4jUH7KzOVzIJQfwcddFCbhaZeqd9+qeTYszyEsHDEAAlhFjBI1QELf413YAPiXFO+2267DTfffHN7e+6SjjqAGq7xDKoOrITD3IFMq9zxG9/nMR914cZkNimzrI435tUAsS3oHwuHhQX5C32077+45NMAwfhAYd1ll12Gb33rW02Rpd4ntQ/ciulhbunlDPZP8+Bn6RUuLwp+/vOft5lnlkpSpy6V5Pnsxwdqm6jtJoSwMMQACWEaHJyq0tL7fbNmPDDosaTjmGOOGR577LE2KGpUuKynKjF1sB3zh5VjTL41blIdVNx8/uijjw6HH3748Kd/+qdNoVFxrYan1LYTVh/WR1U0a1iXugT67Prrr98+s8yMJfVuG6H/2j6Iq21HbENhbkDGNdzLnmdprRf81BszIVdfffXov3psG/ZZwyGEhSUGSAizoCor1V/T8KPE8CaV2Q/CZ555Zhss+UlWHSTxu8QHHGDD/DBJztaBxqF5cKk34p294vOerCtfZ511mkJjnVdsE70/rB7sm7W/9ukoovRb8jC7Rf897rjjhl/84hdtP4HtoSq6KsGGhXCYO8ZkW8Nj8S6X5HPZ++6779SMpW3AdtC7IYSFJQZICLOgDlwwptD4Ro3Bjrdu22677XDVVVc1BRYDpFdy+8E0zB+T5Fzja3pVMKk/lFGWX1G/GJcorLXuoW8jffsICwvy742Pvo6ox5rG0kk2Lu+1117DnXfe2eqefSC1nWiI6EJND3OH/RCUcQ2Th5cI9WUO9fKb3/ymuccff3yrW+q11jXQLvRLTQ8hzC8xQEKYBQxMVVGpig04tU8cyzgwQt73vvcNP/nJT9qSAN6g10HVgdJB07QwP/Ry7v01HVeFxo8H3H///cMRRxzR3qaqzFQjxHYAxoXVi/VR+2pNI84w/Zcw/Xbdddcd3v72t7e/otNvXT451l7ANPzmCXMDMp1kgBhHX63pHMcLH2avzj333GHzzTdvL4SY2bJNUOe1/qWmhxDmlxggIUyDA1IdmHAZvFBAq2JDmL0BKDDEnXbaaVOf33Uw7RUZ/WF+qPIW5K7ColvjVWhYR44SgwLKTNZOO+3UFNSxt6l9W6nxYfVBXdBHaz91prIakGA+ZrjYvMyM13PPPdfaAG0BY5R2onFq26kGiG0pzA3KtMoVP7KHKns2oVM3hJ254nO8fAjEFwd9/5wpHEKYP2KAhDALxgaqXrHB+PAN6qabbjpccsklTWnx/x8qLgyaUAfVMD/MZIBYJ/qFMAoMdYcygzGJ4uqnWms70G9YanxYPdg/qTsND+P6OjIPyirGyfvf//7h9ttvb/UPGCG0i5dffnlKAYbarqC2tbDq9HI1DNUAqXVCPDOXfDjisMMOa3XKzHRtD7aF+gwfaxchhPkhBkgIs8DBygGqYh6UFt6y8QZ11113HW655ZapLygxQKrcMmCOKcZhYVBZqW6tH+LIR92hxDz11FNNiWFvgMaH9d63AcM1Liw8tR4AhXMs3jRd8mBkwjbbbDN87Wtfay8RfvnLX061E9sMfdi2YrvSH+YGZV5la7j2Yf01nZkr9m6dfPLJ7dlM/8UFPsVLnccACWH1EQMkhGmoA1MdrOpApUsab9mA/R9PPvnk1P4PB8U6SDqghoVFhUU/LvWhEmMcCgyzIPx8cPvttx/WW2+9Nstlnau4VkgLq59aH5Pqhv6KMkoafuMwMunD1PUpp5wyvPjii+2fIM6A1DZS+3H1h7lBefdyRv6AEUjYFwf4iaOuePFD3GWXXdb29PBiiDqljjFA6L/4a9uY1FZCCHNPDJAQZoFKigOUg1Qfz1s2ZkE+8pGPTL05xa1v1h00HVDDwqLyor9Pd5aK5Vf42QvAngCU0lr3GiDUv22AON+kmy+sHqyrWg813PtxrUf6MBuXDz300PYBApfi0S7su7h9P3ZmM/17blDGVZ747cPVAKn58fPih/Qf//jHw7ve9a5hrbXWagaI9V5fIIy1jxDC/BIDJIQZqAplP0BV5ZPBDQNkgw02aF9f+fWvfz315lQDRIVXRSUsLL0iQ71UpQVUbNh8/uCDD7afD6KQso6ceq7Ghu2hYtsYSwsLS99Ha73gZwZkrK6cBWEZFv9/YSaTGTEVXvtybTt9OwqrTpUxTJJ7H0898dzFCOFDIAceeOCw9tpr/54BYt337SKEMP/EAAlhFjg49dR0lBb//3HllVe22Q9gIHSAdGB18AwLS5W7ykqN40s61BPGB2+9r7322mHnnXduyij7AqrSor9vHzVOf1i9rEhdUK8YLBichC+88MKm0PIywTZCm1Hh7duT4bDqKNNJ+CJnLJ7nLkYjM9AnnHBCe4kAGCF939WtftNDCPNDDJAQZkk/KPUDlss23v3ud7dpf5RYP+GpslIHzDrQhvlH5WQs3BuIzF6x5OaMM84Y1l9//bZ+HAPT+kZBxa0GSVhaWIfOjhiniwHCvh+WUz7++OOtP9OXaTO2ldqexsJhfrDvTjJAiCPNrxCec845w0YbbTRlgLAHpM5+1T5c40II80cMkBBmiQOUoKRU5YW35Axwxx57bPtyEgoLm5gZDPu3pQ6QNRzml6qcGKZerAeVSsLU3WOPPTYceeSRrU6pWwwQv6LTK61j4bB4GKsX67GCcgqkWe977733cNNNNzVFlqVYtA/3HPT0fTzMH8rafiyETcMA4SXQNddc0/7jYz/mxYH0z3f9xocQ5ocYICFMQx2IVGLqQAUqMuz/YEA788wz20CIwsIbU/d/OFhCjI+FRYVEvxCmbqgPwtQV68Zxv/rVr7bZj3/0j/7R8I//8T8e/uAP/qDxT/7JP5nywz/9p/+0UePC4uEP//APGzWsn3ozbD0Cdfz//X//X6v7ddZZp32IoLYNlV3aT+3LtZ2F+aP2X1zrA0wDDZD77ruvfVCAGS0MS57X0xkgIYT5JwZICNNQByT8GiCEGbzwa4Dwdm3rrbcerrjiiqn1xwyQKiwquYBfBSbMP8i8+lVUap1YH9Qb/w+49NJLh/3222/Ycccd239d9thjjwZf1OHvyoBfjAuLh7G6GgtTv7D77rtPpRHeYYcdhl122WX4yle+Mrz00ktNobWt0K9pLzFAFh77bA3bpyvUDf2ZujvxxBOb8cHPYn2WxwAJYfURAySEaXBQcsAS0zU+cJkBOeCAA9r+DxQV3pYyODIwqtw6MOp3AA3zSy93lRXcuq4fhYW6g2effbZ9gpW3p3wN65FHHml/VsZ9+OGHmx83LE2sR3jooYem4ownjrq/9957W1ugnbAviLZR+/RYGwsLi7Kv8sevAYKffSDMaLJPj2d3fY5DjI8QFpYYICHMgmqAOFBpmODnrdq66647HH300e0HhOz9QGFxIORtqYNjHSTDwoDMq/yrAUKc9eOMiIYIRqSfYMVlbwhfNiPMEjsgzv0Bxo2Fw+Kir7c+TB1jcODSDmgTQHux/di+bFd9XFgYlH2Vv2Hqj2cxM9Nbbrlle0774sjnuM95qLMiIYT5IwZICNNQByf81QgxDZepfdYXn3rqqVMKCwosA6BvS/sBMiwMyn1M9rVerCfiVTRRXKhLDErqU1d/WPxQfzKWDrVOa35fItgmpjNCJrWxMHco+7G4Xv6GrctbbrmlLaHkfyD989tnvIzFhRDmlhggIUxDHYjw9wYI8DYNA4T/RJx33nnDa6+9NqXUoKS4B6QOjmMDaZg/VEZ6aroGSB/fKzjm7ePC4sb6tY7BerYua7jGm6YfxtpKDYf5QzkrcxirD+J4DjOrxZK6Qw45ZHjDG94w7QzIpLgQwtwSAySEaagDkQZHhel6PtuJ8bHhhhu2af5/+Id/aG9OUVxVePrBMaweVFYqxtd60u/SrD6On9HphsXLpDoivtaj9dpjfK37Grb91LZlOMwPvZzx9/WBSz3h8izGAOHDEh/60IeG17/+9e2ZHQMkhNVLDJAQpsGBSIOjH5gwQNj/wbfl+WLOt7/97eG3v/3t1NINB0UHxrD6sT6g1g+YrkKjslnzENcrsmHxY51arzBmgNQ8+msc1PbQtyvDYX4Yk7v1Yzyu9ceLID8ecPrpp0/9VJRZEPd71Oe7z/jsBQlhfokBEsIsYFBy+VUfjwECBx100PDTn/60/UWbQc+B0kExrD7G6mKsbqi3uuSqKjUV48PSodbfWLrUPNWtxxmuTJcW5g5kTP+r/tofx/KxBwQj5Mtf/nL7CzpfwooBEsLqJQZICLOAQUkDxAHKeIwPBrTjjjuufQGLryQ5ANYBMaweVESqkiK9wVGP0T8Jjwv/F2U6lrbYqWXv24NpNU9NnxQO8wNy1rDQjyvEU4c1zX0g11577bDVVlu1WRAMkPocH/OHEOaPGCAhzBIGph4MEowPjJBPfepTw8svv9w+4elgOTY4hoWlyr+H9KqsmN96q+EaF34X5FIZy7O6ma58Y/HWt+4Y0x0f5gfkTJ3UsNQ+it8wfZzn8g9/+MNhr732mlqGVZ/tY/4QwvwRAySEaegHIw0PcEbkL/7iL9q0/gUXXND2fvAZ3jpQ1sHRQTMsDlRWrCPffqu8aJxIPTb8P6qMlqqc+nJ7L/bhmmZ69Y/lCXNPL2v7KnG4fTx++vErr7zSfix66KGHtmc2Hw7xuc5zfMwfQpg/YoCEMA0aIBocxuvnLRqf4N1iiy2Gyy67rK011gABN0JGOVmcqKT09aOSIzUtzJ6lLru0g8UH9aBhAfZh06wn3LoRnb15zz///PDhD3/492ZAenzuhxDmjxggIUxDNUDqoGSYzznyNm2nnXYabrjhhmaA8A+QOlA6KDowhsXDdHUzXdpyYUXufUxWNWx6n2exsxTLvCZDXYwZINaTdWUe3VdffbUtkT3llFPa7Af0z/UQwsIRAySEWeBA1YMB8qY3vWk44IAD2vpivrSCEeLAVwdFB8awOFlq9eRysZVlVY/vGZNf7+/TQ5iJvr0Q1qgwLD5zicfvZ5MJMwNC2tlnn92WzGKAMJPts3zsuR9CmD9igIQwAw5ODlTC4MUgtu666w5HHHHEcPfdd7fZDwwQBrq6/MpBMSxulnJdWfa+/GNxGB+raoBwzknnGLvmmsZcG3BhnL4dER4zQIirBggu/3khjrr61a9+1dyvfvWrbcmsn+L1ed4/90MI80sMkBBmSR2oqgGy9tprDx/72MeGxx9/vH3uERwUKw6YYfGy2OtquvKZVo3eGq55Kv3xk+L7PP11ZoPnXCosxTKvSYwZedRJbdM1jpc+Nd4ZENL4DC8viK655pq2ZBYDhBns3gCp/hDC/BEDJIRZUgcqXAwQPr/7hje8YfjMZz7T3rYx+4EB0g+cDIpS40NYEWo76tsTfhStCnF1Jq5PN75P6+PG8oxhvrG8xNV7CWFlsG3V9lTbW40nzL4P+gAfB+H5/L3vfW/Ye++92949nt/1ue6zXX8IYf6IARLCNPQGR413BmSttdYavvCFL7TBDTQ+GPz0MyiKg2MIq0LfpvSriAHxY/567NhxfTxuf3x1a3xPTeMcIawMtif9fXyFeJ69+HkxhIsBAnfcccfw3ve+t+3dG9uIXv0hhPkjBkgI08Bg9Fd/9VdTBofx+IFP8MLll18+/O3f/m2b4mewU+mqg6T+sGYwtjxkIbGd2bZwa9uz/Y3lqYYxbk2rccaTn3/c1PSaz/gaB6tbRmHNobZjmdTugLbHMRogfCCEfSCPPPLIcMwxx8QACWE1EwMkhBlwgKoDFS7rhxnA3vrWtw7f/OY3h1/+8pe/Y4DUQXHSIBnmll7Oqypzjq/K+nTnJx+M5TNvjZsUFg2IPs04sa15jHn6/Kbj954ss2BkQB/HssI+nvMR5/mlphOuZeD6dZ2+Zaphqffl8cC5x/wV4r3Xeo4+/9j5K2Npk64JNf905w2rjvVgHVZMr3tAeDbzM8Lnnntu+PjHP97+BcLLI5/pUl80hRDmjxggIcySaoAwSPEjK3j7298+3HjjjVMGiMqPClAdJA2H+WE6Oc9UB6bXPCo5fX0arwLeH2u6EM/x9dxj6ebp/XUfh6jIE1/Pg8v1e6oBgR80LPx4Au2XZYTV1Q/mq8fVc9UwcC3LVssHltv78V68z5rPuD5Ppebtz2s6rsd6/hWhns97GztXf99h/kD+fXswjfhqgPzmN79pe0JOO+20tgeEjeg8y322Qw33Y0AIYe6IARLCLKmDFJ9vZPYDdthhh+Gmm24a/uZv/qYpYCgfDIIMfHWQrANjmHuU8Zicp0vr02se/TUeZaan5ieMq+JT06q/MhZvHO0JqqKvYQCEWV7CV35c505Yw4Fj+nOJ19QV74vlK+C99Hjeem7PYV+wHJSJsllO43D7+/Fc9XzQl9MwZTGulqvGm6bh1p9rOshLWeoxtWxeT8wb5h/kT732dU2a8dQ57YqfERI+66yz2rNbA6Q+43sDpPpDCHNHDJAQZkkdiKoBsscee7SfEKJYVSWFga4Okg6KYX5QxlXO+sfiK8b36dZhDaOQG49bUVHvj6ddQJ0ZqC6Kt8o5hixr1flxGktGmFljfxFpzkJYJq6nkcCb3RdffHF45pln2jr3e++9d/jpT3/a2uZ3v/vd4frrr2+fIL366quHK664YrjsssuGSy65ZLjooovavxG+9KUvDV/84heH888/fzjnnHOGz33uc8NnP/vZBv7zzjuvpV9wwQUt75e//OV2/Ne+9rV2rq9//ettKSLX+Na3vtW+NsS177rrruHBBx8cnnjiibb8hTK+9NJLrbxVlsgCOWiocM/IAKURORBGNqABgyw0sKpMCWtoVKwjw1WOpJmOW48Br+ExPcSHhUf51zqzPqxPoO7oS8TRlnmW+y+Q/jlfw5PiQgirRgyQEGaJBgib0nlLhvHBEqx3v/vdw5133tkUIwa5OvjVAdL4MP9UmVdMo26qwtIfWxUX/eav8cbpVwmuZSAORRmFWcUaAwOlGuWadkOax3EelPOf//znTWF/7LHHhnvuuacp89/5zneGb3zjG81g4Mtr/NX505/+9HDKKacMH/3oR4fjjjtu+MAHPjAccsghw4EHHji85z3vGfbbb79h9913H3beeedhxx13bDN222233bDNNtsMW2211bDlllsO73jHO9rP2TbffPNh0003HTbaaKPGhhtu2Hjb2942bLLJJsNmm23W8pCXpYec453vfOew7bbbtnNyfv6xsMsuuwy77bbbsM8++7T+wVeHDj/88Lb594QTThhOPPHE4ZOf/ORwxhlnDJ///OeHCy+8sBkyGDAYSz/+8Y+bAfXUU08Nzz//fDNYfvGLXzSDBRkhLwwyZIkcAZkSRsYYMshdrItaL8i51q/xk+KMB8+DW88pNV5/z3RpYcVAltaNcqXeCdNmqDvCtA/iMJ7Zu1f/BVKf8fVZX+PreBBCWDVigIQwC+oA1Bsg73vf+4af/exnTZFk4OsVFNwoGwtHVUb6OF2VyZpe00DFxbSaB9djMRx88+5MhooxBgZv8VGONTTIx3lRqp9++ulmXPzgBz9oyvfFF188nHvuuW2N+kc+8pHhyCOPbMYERsS73vWuZjyg9GMIYBS85S1vae2Sdvjnf/7nw3rrrdf+zA/4+dIP8aDfte8Vv+bmrF6P6UB+zsG56jmIE6/JRt++TMSRh38wvPnNbx422GCDYeONN24GDYYMhtKee+457L///sOhhx46HH300W3TMP/aYXbm0ksvbbM5t956a5tZQYYYbNSJdYCskTlr/qmDapw4c2K941KnUutcP27FdNsAfttFTat5eqZLCysGsrT+lCttAb/9mD5KGyANYxeDmnZbDZDpiAESwtwSAySEWTBmgKCMoUQde+yxw0MPPdTeyDK4MQg6KOL2/jB/oHTgVkUE8KugiOljaYLyQno9l0pufQuvkcHyIRQdjsXA4O29MxgozBgZzF6wpIlZC2YsMGCZKWDmgNkIDAvaFwbDG9/4xvajS3j961/fwuuss05T5KsxQTsEP4wgLC/hXEIbrv4arvHThQGlDfr4CulcX1c/5ayGDPeJUQIYKfxXx/t93eteN6y99totP/0OpXHrrbcedt1112aUMavCjMrpp5/elofxOWyWf/3oRz9qMygsR3vhhReagULdUWcYJxiH1JlL3nqjpG9Hk+IIG9fjuczT05+jZ7q05UgvjxrGr9yN16UPE0/9Udf0T5YhMutHG6Sf0MbHnvl9XAhh7ogBEsIsYDByQEIRQpny7RlvZ5988sk2uDHI9QNgmMxcycjzqCQSruc2DFVB1A/m5xyCsoJRodLKG3XA2EB5JY/LpR5//PG2dOjaa69tS4pYYoSB8f73v78tQ2IZFLMXLHFi5oL24wxBnanQoGDmAeUIP+1MaHsaGyr2ovJvWOPB4wzrN2wcrnHV7f3k5Zz6SQP8hsfceg+4Gkqkcy783Df3J8bV2RXlhcGCSx5mUphFYSkYMygsP/vgBz84fOxjH2ubjtmvwhI29qTQX6kz3ow7Y1L3m1i/pNEGaBe4UNuS1HZU2xPYBntmkz4Wv1xRXoKMa39X5oadqdIlr3XKDBrtxJk421+lxvXjQQhh1YkBEsIsqYMRChSDF0oUS0N4y4oSUwdCBj4GwzpI4i5nlAHumH8mxvLWuN4/pqAQJ1VpIVz3arj5G2WUusUQAfLwZv32229vMxps2P7whz/clkrxQYLtt9++LZGinfDm3rf7KtBAvEubVLQJq3yjUKuoq8CPUduk69VrmnE1X6XG9XkMe64aX89fwxWvXc8FtXzeW03TOPHekYVGCPJSNoQx1ojDBWSrgYLMccmLccLsksu7MApPPvnkZiiijDJDxR4T6pk6x7XeUVrB5Vu2KSFMGxLaFNjuxtz+GML9ec0rffpyoJdBjUfGyrHKW38N45KX/osBwpJH2oL9jXZX2+qYP4Qwt8QACWGWqCThRzFC0WHgYjkNb8FRXOqA55u3OhjqX45w/8pA/0yodBmu5+vPY1j5j6XpB8+NQQEoJ3UDM3WKYXn//fe3/7ygrH7iE58YDjvssLb8h2VAbOJmMyvtAQUYhRclGD/tA79x1bhQya6KNti+bGso8VWR7zENl/0UuJ5DPFeN6+P113x9WvVXo0HqcTVsXA1PF2+c9+b5gOt67So3ZVkNFY0RDRLrgLrB5fzsPWETPRvmmaU66qij2v4b9gjccsstw8MPP9xmSmw3LuGynTAjQtuxLYHtrL55N8103Nq2a1oNzxS/3FAO0BsdusYDfurBOF8i3Hbbbe1lgS8CanvG37e7iu00hLBqxAAJYZbUAQilB8UGpYeNsQx+KCYOduDaYwdD8uD2CslygftXBjWuhnuUJf6qsNVz4ZrPeP26HCsqjSgiKJS4Lq9B2eTTtawRZ9kOS3gOOOCAtvmbLz+htKLMugejKrfirIaGhsoN7aYaCrVtCWkszyK95u3zG2d89VclyTYrxtc0/bWcxuk3XOnzT8L8+Gs5+zTTdbl3IFzlYnrvr3FA+ZS/xokGinXl8jdcII3rsD8AA5MviTG7xYcB2FuCQUK/pt1hgIBtCGhXtkHyAG2wvowwvYZxp2vfNbzcQQ729xo3Fq/sgbCzmyyVZN+VBkhtg7QX/bbPimkhhFUjBkgIs6QOQBogKDS8GUd5xQBxAGQw1BhxcAQHxuXImBxmkgnpVaY1bJz5qp80z4Fih3LoMhqURtJZcsPsBv+r4N8Wzm7stdde7WtMzGxQv9XgQGnF5S06RoYzGFVBsY2oDFdFuleSydvHGd+HK2NpfT7DY/E9xI8ZIJPCfdpMcX28aVxz0nX7Y5QR8cqsyq3GGe85alioN2dOqEsUUVxnsjQwKR8zJXxiGGOUL5Oxv4cvlvFhAfb+2N4wQFy2RTvTINEAsd3aTnX1G675JlGPWU4oH1yNtknxGh+9AXLHHXcM++677+8YILYRDRDbTghhfogBEsIsqIoLYQ0QBiu+aoSy4RIscTCsA6T+5UqVDygj/T0cg1uNOcN+XrOeH0OQukDJYA0/dYKfeAwOvkjF/zRYYnPmmWcORxxxRNsTwOwGdVo3hbtUx9kMldVeYe6VXalv781T8+JX2cFPHGEhPAb5ZVJ8Ta/+SflgLH2643t/L5exOOMrk47rZTAWV89X08yrvCvWh8fXOgHq2Pp2pkTDU8OEWRI+KIAS+6EPfaj9y4QfMf7kJz8Znn322dZGVXZph+wncoakznTYhqdr2/YP6eNs+8uF/r4NIzvlaDwyFOROnWAcMsvJZ57p42BbsO3YFmwzIYS5JwZICLOgH5A0QHAxQHzz6SDYD4YOiPqXK8gAqnxqnMpXVcwqKhP4PQ7Zo1Sg6PkVIxQN0vj7Nsst+FP3pz71qbakiqUXLLGhHjEwqEdclU7fjFdlBCW1V2aJJ69tA2oacHyNw1U5Hks3j+5MzJR/tueBmfKSPt11ajqu99nn7anHGR47tuYzT42veDx+6kj/dHCu3hghbHvwnECYNoNhgoG6/vrrt68qsWSL/5bwg0V+GImiyz4inw+vvfZaAz8GSe0XtX0THusvtvu+PxlejvQyqvFVbtUA4b9N7PmZZIBUP9geiA8hzA0xQEKYAQefOgChlPQGCAMbA50KgQNjHRD1L2dUDJRPhfjewOCY+tYYP7McKHB1loN0/rvBF42uu+66tqyK9fssm+Hv3Sga/EeD/0o4w4Ei6QxHb0ygfNZ6r2kqJsTXfH0ez2m7qemGa7znM/9MeMxs4jnvipx7ZfFeVNzG8lTMX8MzHVuPqa54PG49V02rxyqXsXTC5iFMnQJtxyU8uMye0b74jwnHMEPCl9H438tFF1003HTTTW25FjNxtGHaLIaI7bfOjtjm7QNAnxD7RU33uOUC96yMDPdyMA6Z+dxA5vwjBmOxGiDWb1/3tT2EEOaOGCAhzICDUh2EUEAwQFBCUC4Y2DBAfHtZlYc6GNbBcblS5aK/ooKlMqbigJLGUhZmOFAieJuJvFHqbr755uErX/nKcOKJJw7vfe9729to3kqjXPgJXBRFqAaHBoJKBhhHPRtfFVSp4TElhfMQj1/lhnC9VvVLPW893yQs25i/ltv4+aBep8piuuuS1uc3vj9HTTeNa5rXNOmPrWHyT3d+8bym13y4pFPHPAMqzozwfKDtEd5oo43an+xZ8sdM3JVXXtl+lugXtnh2+HPEulzLPmNfqP0ETB+L85g1hbF77l2fHcY5o8SMKmENkPvuu2846KCDmuGoAWKd2zb0Gya99q8QwqoRAySEGWDwEQcgFA9nQDBAXGJRB7/6pnI5MyYDZINiYHpVlgiTjkyVKwoaihl+lAj+w/Hd7363fZ2IJS8uq8K4YHbDGQ4YMzqgKhfUa1WiAb/pFY8zveYhznOYp8bVsHH1HH36moD3OHZ/VXbiMTUshOu5zFPjxupRv2n9OXCr33zG9eWs8YDhYZvCJUybQ8Gt+0cwSEjn078sAcJgxnDmnzL+h4RZPYwRDG6/zmbfoJ+MGSO17+hfE6n3DL0seG7U565+XMIuwXrwwQfbiwqeD9QP9VbbDe5YnYcQ5o4YICHMgINPdVEiqgHimzUGOmdBKg6gyw0VhDFFAZf4PozRgTx5C4xLGOWMt5asq2fzOF8i4kdib3vb26beOqvs4aL8qRCqQPQKBQqHcX6pijjzmmadi2l9PGEZi5vEpHOsKazI/Zmvl3+fpr9n7Fy93/Bs/FDLIuaR6cqqQYIBbDv1zTvx/LRy7733boY0m9n5W/sjjzzS+gTGB0oz/UBq37I/Qd/PTK/5TavhpYRlx633Zhwy81lCnGGfyb7QQL7ve9/72vNikgEyVs8hhLkjBkgIM9APSLgaICgQ7gHxK1gOdpMGyjUN73HsnqsyYJpKgWFcFC1kCL6lxH300Ueb0cGyFT6Ry/84+AIRsvetMi7KHEYHioR1pEKBWzHd+qx5TKsKp3n01/iaHiYzWzkpW+iV+j5davok+rxjx/XpQjlqe4B6XM2vf1K67YznBoovX1xbd911WxvGKOFzv/wgj48lYGjziWhm++gPzv7RVzAe+r5VsZ+NpVUmHb8U4V7EOGTA89hnMrLjOc2yzcMPP3zUAMFvndU6DCHMLTFAQpglVcFAgUD5dQbEN2sMcgx2vZLdD4yLAcvTl6uWdxL98eJ910GfsOn9NXzDCy45efLJJ4frr79+OPXUU4dDDz20/ZMDo4M3yM5yoLBhcFAP1AlKA37qRoXRelPpE+uwKhiGazx5a565Zj7PvabT11WfNhZX4/VXt08H2lFNq37T+njdvq1B3wZ5fjArAhrSzpDwH5pddtmlKcrMjHz/+99vn/i1vwAGSZ3psF8B+x5qeDrsl0uNWvax+/FZ5LO4GiC80JjOAKl1ZziEMHfEAAlhGuoAVF0Uh2qAoAi4BEuF20GvDo6GFwOWp5YN13uw/GNpHtPn7/FYl3vgIivf6KIM4H/xxRfbOvgvf/nLw3HHHdcUL+TsPzlQElDKXFpFGooC/l7Rq4phxXTTOK6PW0hWxzWXCgstm74N6Lct9WlA26vKak2vYfKYryq59by2Rc6Joa2RzRfb2DfCJnb+OXLyyScPl19+efvfCC896Dv2obpx3X6p8l3DNU44ZqnjPdb78Z6J49mDfJAXM6uTlmCN1WkIYe6JARLCNFQlAddBCkUBxRhlAQOEt5EaIA52/eBYB8bFgOWp5cLvoI1b364Ccd5jdadTanjr6NIqjQ6MEN7Q3nnnne2ngB/5yEfaRvJNN910avMurhvHnelA/ipvuKRZP0Cc6dNhfdZwz6T4sOZR20KltqU+L23P9jeWbhyueWvbrW0Vtx6Ln/y0ez+iwOwIcXxs4T3veU9blsjPD9kbRf9jBtGvaNWZEftn30fxSx9n2D68FLDMtdz4uW/jnKl+6KGH2ieSxzahWxchhPklBkgIM6BCgMsgpRLMG0oUhN4AgUkD4mJhUrmIo/wqK8aZ3t+fSs7YuUhDLs524KIAsMTqxhtvbMtK+BLNJpts0t708g8FZIrCheGhYqa8q2JAmkZJjVPJI1yPsw77/H14LF+lps+UN8yOSXJUIVxIbANj9Hn7NlnjPUY/bjVAKqZ5PHHeu0aI0DeYFaSvsHeEDex8kIGZw9tuu60t0VLJ5mtaGCK8AKh90rB9eYxJfXopUMuNvz7LnKl+4IEHpr6CBdSBMsdvXYQQ5o8YICHMQFUUGKSAMG/OUBDqn9DrAOggXgfExcJ05aqKCOGaz+NQZMbinO1goNf44M0sf4PmvwcYa8x28E8EvjrlbAcGBwqWSppuVQyQeV8nhjmXdVTzeg6ox1iHhj2mhseox/dpPTOdK6w4q1pHY8fWuHr+Pl5/jat5pW9zuLbneizlM089B/GWneOIq/2BvgIYI/QdXPaLMIPoEi3+9M2yRvqefZD+SP+kn4p9t4d+Xfv4UoTy8wxz9oc4XxTdf//9w8EHHxwDJITVSAyQEKbBQUnlAD/KLoMUBghK88UXX9yUbgZ6Bu865d8P6j3TpS0E/bVrGL9KiMaIAzrxDuzmQQYoOgzwLLPC/9RTT7XZjtNOO23Ya6+9pr5gxVtcZztcaqUBorKFvKtiYH0Yb51UzGe6YejzSj1m0nnD4mC6epwP+naxMtcfU2yJx62GBXHVX6nHcYwzIvQdnkP0pXXWWactC+XT1Pxj5Kyzzhp+8IMfDC+99FLrkyzNsl/SV+nfzobgV0kH/f3zYbFRjSTKanlrvM8p7pUXIzyn/RM6ssMAUcZj8u7jalofF0KYPTFAQpgF/UCEEsCgj8sMCIMbg7wKuoNhj4MiTIpfndQycS8aHjWthnWdAUK5YfB/+OGH25es+NEahgdvaDE2GPCd8UAxq8ZGL2NRgcPVAJkpT42T/vy69Rjpw2F5YjugrYy1k5nwONtdPYezdjW+Qp6xOM+r3/5Dn6JvoVDTr9hPxazI6aefPnzrW99qLwMwQOinKuN9P+bZRZ/HTz82bTFSyy2W3TwaH+w3436YAeEZdddddw3777//1AyI8rQ+qpz7uBDC3BADJIRp6Acew9UAufDCC9tg1xsgKu91gHRgrPE1bnVjmbyPsTeMpqPE4DKoo9iQ/4477hjOOeec4aCDDhq22WabJi/f0GKA1De9VbYqV8SJacb36ZPy9P4aN0afPlP+sHywHdBeZ9suzCe07T5NfzW+zdvnMb1iXn+eWY/hmYQhQr8DDJOtt966/VuEZ9U999zT+m5dkkWftp/Tp6XGLwZ8/ozFQV9mn8W4hLlnvhbGxy/222+/ZnwgK2Va5VvDfXwIYdWJARLCSsAgz+CO+4UvfKENchogDoK4VYEfow6WiwHKY9k1QIyrZTXMgP7cc8+1fxTwVR7euG6wwQbDWmut1Xj961/floZggCAvBnwMEZdeVYhDGajUuEn+MXyzOZYWwopQ29JM7W4SM7XHmtZfw2P7PPQZjAtc04gHwixzfMMb3jD86Z/+aXNZnkXfPOCAA4Zzzz23bVpneZYb1X1u2c97w2QxUMsH/QsS76HG4RKPqwHCixIMEJ5JyK03OnCrcRjjI4S5JwZICLOgH4CqAcIbf5R1ZgEcIB0MZzJAFht9+XFVRAj7JpEwf2j+7ne/234YuNNOOzXFB2WngvEhfLXHPz/XsBjfHzPJz5ezxo4R0mEsbYwVzR+WH9O1t+mY1LY4X39O48auVdPsM+br03gB4DV5EfAnf/InrU8SzzNs7733Hj7zmc8Mt9xyy/Dzn/986llVlXjdxQLlEcK9AVLTgOcV+CzG+AA+iLHnnns2Q43nVn2+a3DwbNdvWghh7ogBEsIscCASBieXYJ1xxhntizMYIA6EDHjQD46GFyuWs5aXgdv70QABDBA/p3vSSSc1TjnllLbm/NOf/nQDBQeXOGGmBCbFV2q8fja0437yk5/8nWP117jKWFr1e96wNFiI+qrtRX9tM2PUfDV/H65xk9IrfXqfr6bb/8xjX0Rm9FH2ZtFfmQlho/rzzz/fZkHo1z63fPFgf18MjD2fKK9h/ebnefXyyy83VwOEWZCbb7552HXXXdvsBzNI/fOdZ36/PC6EMLfEAAlhFtTBCZwB4Us0n/jEJ4ann356ygBxEKwDYx0UFzN9uTU+quFBHJvO8eOyhMOvX/GlHX6GBq+88kr7FwHoJ9045EX8ilDPV89l3Jh/Ojxvf+xsjw9rNrV99JBOG+zb4SQmnWNSek2r6X18TTPdMr366qvN7fta/TQv/bnHZ8FifG5ZLsvG86l/5pqXMBvQNUC4b55ZvDjZbrvtmgHCMrb++V6f+f1YEEKYG2KAhDAN/QDkoIQBwvQ9g9fxxx8/PPLII1NLsBj0GOzqQLiYqeWcNIgTrmnAG1NgQAf9KDXi/0Bc+kDYON2Z8K3lTNR8Xmu2x44x2/KF+ae2m8XCfJWHNtu32/5ahnVt76bbD3Hruepx9ldcnle13+P3eeBzYLHg88ey4dbnkvHcE4YHBgjp3CfPaNxvfvOb7Y/yPsP7Z7wfDqjxIYS5JQZICNPgIKThUcOsHWYG5Igjjmh/1mUGoA7kDuJLkTqQG+Z+vCfuUwgzqKPUoNBUahz+Pqx/jJnSF4Lpyss9Q41bEWZzf5OusSrXXZ2sbJ2OHWecbi+Tmt77Da9uOU6q376cYF7z1zTD9RjyaWzUfFD7b8W+Xvt9DS8WLBdlxvWZW/2k4ccIwUUezAxx//yskb/IMwPCy6T6Vb7+WR9CmB9igIQwDf2ghN+3Y365iU/O3n333b9jgDBI6i4lHMSlxjuY13jTcFVg+vg+f4W06dJXJ2PlqnGzLXd/jGGVp9mep5fvcmJMTjVO/3TUY/vjVxcrev0VuQ/jTK/5xuKMp5/XuMVILbd+qeXneeUzC8PDZbIXXXRR+2EjMyBjBkh1QwjzQwyQEFaQaoAAP9r78Y9/3AwQBjkHSQdCMX6xUsvalxm/gzn3VSGtjzPvirAqxy40c1VWloe4Rn06lopcVpYqg7m819nIdqkwJhfjJt3ndO2LYyt9P67PhtVFNbp9JkHNU+nT8XuvzoDg/+IXv9ie4Rgg/Wbz3g0hzA8xQEKYBQ5QDkoMWhgfrB/eZZdd2qcsewOEwY/Brh8UFyuWUwWkltn4qrioyEyXNhbXpxvX51tM9GXDz33XPMb3+So172xYkxToVWFMfoZNW1nqORcrk8pc+950+frwWF7wfPrr82F1Q3lkLL3HvN4rBggb8gnz5T6e32MGyNgzv08LIaw6MUBCmAEHIAYqMA7jA/jjN//DwABhvXUd/Cr9ALkYoZwqINCnVWoew+Y1jfh6vHG9f4yZ0heSWn7p81TG8kx3nGl9nj68ptDfa20j0+WbTXqNW9n4sbIsRsbkZpzx1T/pPmvYuIrxq5ux8hjX34OGBy7xvBzi63z8fJHPEvc/IeyNDJ/7UtNCCKtODJAQZsDBxzdlLsFi7TAGyMYbbzxcd911bX0xX5xh2YCDXx0olwIO5jKWB8by6Mfl3r3/pbZ3ob83yg/eF3Vr/dZ7rZhnjJqvXquP49o1ri+f4aWI9zDp3qoclAGQx/ZEeEymVdY1rQ8D5x+LszxLnf5elCduTTOutnXz13yrG8tTy1TrDoynXsln/bIh/7XXXhteeOGF9un0P/uzPxs1QHRDCPNLDJAQZgkDE/QGCC5fVakGCAMeA5+D4VKiDvJ1oO8ZS5vtsYsZyq0yU+/BeOrVpVE17xgqP9PBOaTG9WWxHH14KVLveQzvsYb11+OJV8aGq9868hjTanjseNNxlzL1XnW913p/hjXuTKt5FgOW03L5rK31Z5rx/ogQA+Q3v/nN8Pjjjw/HHnvs8KY3ven3/oLuc76GQwjzQwyQEGYJA5NLsHD5BC9v0NZdd93hy1/+cvuxF0uwHMQdDOuAudiwrJOo5Z50H9PlMVzjFht92QirvPR1SBhlRsW2KmzgOYg3DZf151Dl7TEep99rms9y1DDp9VxLkenuoZeD+ZRFPbbmEeVNGi7Lb/q0eh2PJ+z51hS4L/3er/fpvfZ+ZbLYsJyWFWqb6I1JwrwsIIwBwjLZn/70p8P73ve+ZoCwD6Q3OHzGhxDmlxggIcyCanyAn25kAHvjG984nH322W0wZJBzoFysg/hMUPaePq3PN1OacfoXiqp8TYf5LGNVasxT67P6UW79/wIzYBiigsLD35eZHdMPtBOOAxXiqgAL569+IJ95jZOxuMXGpDqpZa+yx+/9olASh7w09pEh8kSufOVI+SJv64E468b0KkPl7/WJB/OYr08zbilguVeEsfMsBmrZ8NtexLohHgME1zbAB0MOOOCA4c///M/b87s+13nOZwYkhIUhBkgIKwDLr1yCpQGy9tprD6eccsrwzDPPTCmVDIAMeg6Q4IC5FKiDeS17DY+l9/lq2li+haAvR2VM6RTrUL9vzYE6RgFGkdXwQMFB6UUJBpRd82GAvPLKK+0rPPhVhEElWYW6Xp9rUYbp2pLhPq3e2+rC8kwqS71fwtWt961fYwOQWZU7IFtkT7xGCvHIHUgjzPEcR7r1WstoHNckvtY9fuIs22KmyrPS51vKcD+2DzHe2UrCtA3q+9prr21fLuQLWMxia3RUxp79IYS5JQZICCsIBgguBgh7QNZZZ53hqKOOGu6///6m+DDIMeAxEC7lQd8y17L3/unuq0+fLu98MVZG4ypVcYGxMPnwq9SiwKKIYnhS93fcccfwve99r32Q4Oqrrx4uu+yy4ZJLLhkuvfTS4etf/3qL//a3v93y3HrrrcNdd901PPXUU+28GiUo2Cq4XMuyeW1cMV5XzIe7urEc9X5qmmUn3TzESc2vMYeckD9xTzzxRJMjb7WR6w033NAUzCuuuKL9bE7ZX3PNNcONN97Y5H7nnXcODzzwQNuMzDmrwaKhwXVVXGtZqt+y6Z8EeVYXi608q4Lto4d7sl6AevM+NUA4lnqmfmkT73jHO6Z+QhgDJITVQwyQEGbAAQmDo07Xa4Cst956w4EHHjjcfvvtTZFBqXGwrwpLHTBrOMwfY3Lu6wUFxWUaY0qwb935hCebWMnLn++/9a1vDRdccMFw8sknD0cccURb1rHDDjsMm2++efsy2oYbbtj+toy70UYbtXg+2bzjjjsOe++993DIIYe0r/F84QtfaAryD3/4w+Hpp59uCjazJShMXJsy1TKD91XDY9T7nm/Grqt/LF7l0Dhlb11gbCB3jDPkTt967LHHmhFx1VVXtX85fOQjHxkOOuigYddddx222267Yauttho23XTTJvcNNtiggZ/6QOl817veNbznPe8Zjj766OGTn/zk8JWvfGX4zne+Mzz00EPt+lyHeua6hCmHZTNMmSm/cvd+6v3JWFyYW6gH66KvB+uLumMGjPD5558/vPWtb22f4XUpbTU6YoCEsDDEAAlhBnwrxkDFgGU8YZZgMZDtvvvu7Q2ryipv2hgI6+DooDg2UIa5o8oX2fdpKiVg3YBKJn7rEaWXt+3kRUllBgPFF4Njp512GjbZZJM2I0Y74I0qn/Zca621hje84Q1tbxB+0M9sGZCPL/BwLMrxtttu2xRjlGKU65/97GftfwUo31xfw5byjd2PeC/eD27NP1/U69Zr9vGCPDU0yKfs8dN3nOWAn//858NPfvKTNpv0sY99bHj3u9/dDA0MO/ogcmRDMXJlOSQga1zkLqSTj3rixQGy32KLLZpR8qEPfWi48MILhx/84AfDk08+2cqCwooR5KyI5fMexmROunmqG1adMTlDXw81zT5OHWJY8kWsT33qU63+6wwIz3NntmOAhLAwxAAJYRo0PjRAoKYR5ktYW2+9dVvq4RIRlb86ONaBcWywDKuOchUUEP3WA66KCfTnoA5RPpmFIB9fzeErZ8ccc8yw/fbbD295y1ua4oICg0LrD83c0NpT2w6w7hwFiPz98bQr3tQfeuihw5lnnjncfPPNbVaE2RDK41IhlWHwfsT7tA1Cvb/5wOv017IsNV8ta70PwOhjFoLlbY888khbUnX66ae32SVmkJAlsmMDcTUmqA/kinxrv61yV/bIGXkj9/ovCGZLmEn58Ic/3JbPPfjgg83oQ/ZAv9YY4T6Uu37vtfqh3l9YeZRnL1Plrcz7eMMYIBizzJrRdjBcbS/1mQ41LoQwP8QACWEaHJAqNR4/ShBvY1FSNUAcCHH7gdD4fiBdSqxI2c3bK5vzgXL1mmMKomFdj0PZpO5Q8nlTet999w1f+tKXhoMPPrgtoaK+UVadvSBc36Dq6ke5qXE1jbet5gEVaM5Le0JJXn/99Yedd965feCAPQ4oTyjolJF2RrmrkcG9qNjX+wL884nX6a9HOSyL+Qjj2h5Q6u03uM8++2zbL8OsBMuq3vzmNze5IxeMBgwOZKf8kJ2yRq7Ktpd576/Hc27rlTBGIMu0METY30PbwCiibVBGymzb6u+rv2fTazisOMiwylG/8VXuhk0jDgP+0UcfbbOX1LXtqLYLcTYkhDB/xAAJYRaorDhAqXgSh1JE+KyzzmqDHYoKA54KlgOjA6EDZA0vFbyn2ZZdBVl/nz7X9HLtFZKaryrAKpgo+OwzwJjcd999mxHg23KUUwwD6x5sG6Dya1x1QcWYNlMVHJVg82KIoBB7XRQlFPHPfOYzbcM194Ei7LIsyg99e/M+qzzmE69Vr4e/locygkYH5UfmgNHH/g72xbBXhnt3hkjDQPnZF5Wf/ip/qeE+jWOJA/zIGtlzXeTPrMjhhx/elsXxsQE/FqDMvSdc77Per/RyCStH37ZqGjLHKKzpxlFXzGLxoYj999+/GSD05bE2Qdi+atsIIcw9MUBCmAUMRio6+g2jHKG4sHSD5TK8aWMAZNBT8WAg7AfMPhx+H5W7mVCWytt45E49KH+UERVg0lGCMTzgF7/4xfD973+/7TPYcsstW52q/OJHAcY4wLVNCGHbg2nV4MDlOFBJNr66wvVEY4SNs+9973uHK6+8sr3Jpewo7twLxgh+Fa5eHhVlszL058BvHZlGGPBTFsqk/DE4zK/cibvnnnuG8847r23OZ8YDmXPPKInKXqpsx+QuxBunXAl7DC7nMw0Icz2XaSF7jn/nO985nHbaaW05HvLGCFH23Av3V2VguMZJjdcfZkcvv9r2ajsjrvppY+wn4oMDGPP0694AsW1Ufwhh/ogBEsIsYFASw6ahsKAw8Xfde++9t+0fcJAMc4eK7Vhar5jUNJRglXLgHCgnKPAokrwZ5XOufI2KvTxsXlb5VUHV8MDfKyhjbQI/aGzg6u/T63GmqRDj59q0McrEm3kU9A9+8IPtq2sowShWLgtC0eLeqhEylyjD2aThR9Z1szlQTsqN8UGYjf18EYz79edwznhUAwHZVDlWGRpWhoCcjMOvrD3G46AeyzWROXBdyuNeET42gQHIBwKQO/LmfqoijF/XuB7jccOqgRw1NqrRAbY7+gdGOkvqWE6JAUL9jtV/9YcQ5o8YICFMg4MRrooQ/hrPQIZysttuu7VNw6+++uqU8lEHRNw6OIYVQ5lClalxY2nIn+MApRwXhRFQSsjHJ3VZ9sMXrVDw+VpSVUCte1wUWRVb4qoSW6nHiGHS8Xu8ijHxnk8XZZg0XGdD1l133ZbOp5/5FPCLL77YlGHuyfuuspKxuLmk1gV+UOa4xGt8AF+b4stWe+yxx5SSj/zrPStLXFFmyge/+c2Laxxy9jji+nohzTjPa1pvhKC48sUyPhDAJnUVW+5N+Y7JYSxc48Ps6WVKH/c5C/qpD/zkoY6oq8997nNTM4q2L+tbfwhhYYgBEsIsQRFRUSGsQqNiyFd6vvnNbw6//e1v2+CHsjU2MNaBVH+YPcoTf5VvTauQR0UEqBtmPagf6gtFHmWE/7mgcKq0An7qmb0g1fCA2i7IBxzvbAVv8ysor8QDb/g1cmxLnB8/1/CNPWH9xJOfY1HUcfnvyDnnnNP2rTCjgKJl26uzPhXlUP0ri0p3j9dC7pQDl9kCjQ8+M3zSSSe1pW70HUCO3B9ulQF+XDBNPyBvDARcZIKcQblzblyVTuuJ84jxyJuvnAHx1gfn9tq0E8rGLNRtt93WZOC+EO6deyVuTL5zLf/lhG2t78+GbXNCGq71Qx5eNPBJZvsf9WsdW98hhIUhBkgIs0SFx4FKpYiBTOWGryb9/d//fVNGVEgcCPuBsQ6iYTJVbn1cL0PjBOXDPPipE5UR/vnARvM660F9Wt9VIUHhJGz946rIUvfMSvDvCZRTlGHy82U0/vHBkg9+hsceDo5FOSY/+DYWBZe0/hqWx7bGNYnXyKHsm222WXuz+9xzzzXDCgW/ykuZaAjUeP2rAuep5+IaQBxGh7MgGkjs9/joRz/alHw3AytPZQAaIH0aYY5BdhzPkjnqT7mzcRyZK3tczkN+6oe8uNQD9VfPTRiXc3AuruU1cakL5O71WDrGDySRuTMhVcagfARZAP6aL4yjnJAZbm1fphtXZW8e2iB1wzLLI488cnjd6143ZVDazyv2+RDC/BIDJIRpqANTVYRqOnG+leafBewBQSFRyWAg7JU/B84aDr+P8lNWKiHGj8kUWVdU+EjnXwAoJFdccUXb8IwyCdaxij51q4JSFRXqGsWTukaJRQFGWeX/IHxdh7fiH//4x4czzjhjOPfcc9vP7fiiFi4/MORHg3xels3k7Cdg1gxlCCWa89GOuB6oHHNtlHUVYsKUkfJYFr4axbIgZkL4CALLTbhnDC7csTa4qu2v1gF+w8qdsGXA6EP2fNKW/6lgjGEQeI/cV5U9rnKwDpAT8tF441g+l7vnnnu2/VcnnHDC8OlPf7rNCPGHemTOvh42t1MfGD3vf//7W70jL2SK7DgXMySUo5YFF5kTZ9uwbMqdMh122GHt610ouXwli/aFHLj3STIxbUyuYXpqmyOsjKXPp3HIF7B44cAMiP0K7PtifAhhfokBEsIsYXBCKcFVGSHMYKZCctxxx7X/NTDgqYiofNTBMcwOlQgVN+LwSy9T4pS1aSjA1AVKMIo5X8JBacXwQKFFifTNNwonUL/WN/VclU6MDuJRYvlhIErvN77xjeHOO+9sb1mff/75ti+Dzddg2fDTNvjPxQMPPND2CzFjhuLM/iGUcsrEm3mUc8qlQgyUQWx3tj3ys4eFmZAXXnihKV3ct4aI8oAqP8u2onh8f0783Cd1QD7ljsuXu1gCg1w1tJC7fct+Bfg1TgC5IHtcZpMwIvjq3EUXXdRmIJQ7m8P5nK/lohx83Qy5Ixf2nfBXdQxQ/q+CQooRgwzd44HcLY+yx68RSHkpE/k4hnJi2PzoRz9q/Z79ONz7mAGCXxlWf5g9tjUwbH0bB8ZRJ/SHa665pu3fwdC3Tm17fRskHEKYX2KAhDANDkqg0offNFziUWB4i8pP61jfjsLFoFcHQvxVidYfJqPsemVD+aHUVaWjppsHRVwlBKWfZTPUF8qsymatb+sUP/WNgonCjLJJfr6UhdHABvCHH364Kb1chzr307Io3S45wgjg2sajoPoFJcrI/yUwXnhTzywKS7doSyjcGkaWSz/lq2UEjsEoYsblqaeemro2ZVOO0CvCK4qyBWVtW67nrzJBTnzemNki5O59KWvvxXogjKyrYcByKvoXRhsfDsCg4DrIFnky+8C1CCNn7h/wV7nbLzFKmJHhHx9HHXVU249CuZA7Bp1ypSy1vNaD8ZSR9sGPCzEsuSZtDpRXlYtyrP6wYtj+8CNHMK5CuvVBu6EN0U+sP+vTOsWNARLCwhADJIRpcFDqByzCoqKCosSmYN60oeT0yp8DogOo/jA7qlJhGKVOv3JW1irFKsEswWDGAqURJQTFUQUTt9Y1eYhHCXavAHstWGLFX7pR8FFqUGhVejU0gGuqhALhCnlUijkeeHOPYs0sxq677tqUdRRhlFuuD5YXJcky44JlpQ1ihHA+roMcgHIgG402ZaTsqszwK+exOPzisfo9J/eJ8sdsEEugmLlwhoF7sOy1P3kv1A15MVZQGvfZZ5+mQD7yyCOt/MiO/S64yB24ln2ul7t+66jKnvyPP/54m8ViORUGIGVE7pYHbBPIHtf2QTztidmRk08+uS2DsyzKr8oJVzmGFae2tT5OlDlQx+Rlxos6pU3R1myDPtNthzUcQpg/YoCEMA0OSLhSw/pRPlBCWEbDGnQGQAY+lB4HwjpYqowYF2aml6NUBU+5EqfyST2guPIGnrqinlA+UHJRIFEohXiVTZQVlGDqlj0bV199dVs+pZFh/aoAA+Gq/ODvy06coBj3CjF5MET4sz6zLSpNGky0OVzKa/vTOCEPhvDOO+/cZnsoE8qw5bIsLJOqZTJef43r8xnfpyN7rqHcuS/iLr/88rZHhpkF5G35KTf3oB85Wy8aKjvuuGObGWKmAlkxy8H9cG6uQZxlUqaWDb/tQczLcdaZMyfUAYYlnwZ+z3ve08pCW0G2QBmJA8sKGisYi2x4x4Bk2Rfnppxe17IaruUJswe51b5uWD95bAfInLrFwGQDOsuv6Eu0wR7qF8bSQghzTwyQEKahDkr6axgXJQQ/ygqDG8tzWN6BQokS4gBZB1AHyjA9ympMZoSdAVHhQM6+4Uf5UAn+6le/2jZ8+/UiFF/qzLojjFJpPPVIfW666abtzSkGAXXJBwZQVHtl1/J4/R73g/RxnINjCasU027YsM0SI/YqHHDAAU3JpTwaHpZTajvkHlGITzzxxPZn/jozQBkts+F6LypypoP3B+YB83jPuObnmsiJzdkYb8gcA8SygvegH7g/8/F55BtuuKHNoLCxHkVSJd7ritefzm/ZifO+vSeMGWZUkD3X+PGPf9xmu5i10bhAvpRRWePHFe6RjwlgNFFuzovcLTNhXKAc+sOKgRwrtX6BPNQtfmRPO8QY538zGCD2f+rRPo+fNlfbZwhhfokBEsIM1EEJRcMwrmFclBSUxIMOOqjtA/FtLQPhmNJTB9WwYiA/5YpMUTSqIkIY2ZPGpnO+OMXMAMqHb7PZVGy9ooRYryj75OOtPV9SYuPyb37zmynllOt7LaAMGBMsedLIqGm4lMmwkNc0zqvShIvShNKNYsy/Jnh7y5Isymb5KTP3gNJuewQUZhQtlowxG6cxzLksj+2wytIw6T3mAcLeg+GaruyZdcIYR8mjX1D2fraj9iNkDpSb4+66665WZuSg0cf5vQfLYRksh/F9XYjxlreXAUYm8uJHg3y5jI3LyJSy1/5um8FPGvXCM4DZG4ynn/70p63cYLmUO37lHWaP9dSDPGvY/LQfDFdfQFA/1FPt9/qpSzAcQphfYoCEsAKogOBX+XDgQklB+dhll12G66+/fkqRQelQEeoHUsNh9ig75FllWv3MfKB48HWk448/vim2vlmHSW8+zcc+iksvvbRtMEcBpi5RZqjLel3cquxap7V8+KviWeON87ycw+uARiwzMHz1iR8iakjR9oSyV4WYtsh9sITrlltuae1QY7heS1e/5bZsQriHfGPncdaPPRVbbbXV1OeFUdI1liyrSj3GCeVlCSMzTij/yJw61HDinPirEUh8LV8tr+UT81hO4mpej0c+GA0YncxCnX/++e0+mBXT+LPsth9c7gM/n/XFMGQpFudD9p5X2VsO4sOqYb1aj8pXQ5i6ZG8OfYY6tN56rFfrM4Qwv8QACWEFqIOTg1VVonjTyxtc/kPAMhr/uF0Vnjpo1oE0zI6qaChX5alMUfpQhDEitthii6bcojxSTxofvgm1DjUgMT7YB8C5UYBRYjhnvRbhsetWatokOId5e1c/xhRKFF9Y4h8ilJ83uc7U2CadVTCMIsx98+lb9q6g0HM+UHbgdVSQaa8o+shPVPzN4zlwOV5ZaPhhMLGhmzKi9Cljy1b7DPWA3Ok3p556ajM+qD+uV8+t8k6ZLa9lx9UvxoFl9ZiKMhCP5/qUgx880p/f+c53Tsmd+6D8tinuCWhX1AltiVk3lv4oE+VmO/I+wqphvSFT2wrxtFv6DTOTtEWWJtIWqS8NYLH++nAIYf6IARLCNDgYOTD1YRU+BjT8vJ1GKUHpQ3EdM0BURMLKUZWNKlPikTOKB4ojXyPis60ojUD9qHxYb9QVLgojCjv/hODfEmwi1ojh3NJfs5YLVH7EPDUevzBzgnJf4+s1CFMG2xKK/Qc+8IFWfoxdXJVgZkfqvaFsMfuw3XbbtT0JGCDO5KCYAbM7GMqvvfba8Nvf/ra5Gs7cP3lQnokjnb/8m48ZAmZoyEs+zsv5uWe+WEV5NPzsKxhJzA4oe6DPUG7eUjNjxfm4Z+6fcyGDMdkpoz4eapx+XM9XMa7KHOi3GA/cI0osPzVkT4g/QVTu9TkBxGFQ4WIwck/IRYOqliesGFV+UOsOTCeeuqMdsRyW/R/sz9Fg7w2QWn8hhIUhBkgI0+DAhKtiV/3mI8xbXRQPQElk7T3KFIqZg6QDpG5YcarCAcRVRQRlGEPkyiuvHN7+9rf/nhKsa535lp7Pr/JTQd54U2coL7gojlyj1p/XtTx9fVoe040bU5h0SdNQ9fxcW1SoWFLF/0JQpjCsuIe+rTqzwH2p3HNfGBC0SfCtPMYWaXwB6qGHHmo/6mPfCW/vf/CDHzSXONJQpslHfto3ZdTwwCh59dVXh3vvvbe9ccao4/qUj7JYNrH85ONHfuz5wNDiPpVTlR0yQT7GgXmMq/n7fNVvWDnjckw9Dtd2QJviR4of+chH2n1QZu6Je1PuGn/4uW+eAxh/7EHivpC35a/GSJgdyKtinem3Lq1H2hFpLIfl/zgY485eUUdie6xxIYT5JwZICDMwNjiNDWK4KCa8meZPzShtKB0MhL3iVBWdMDNVVvgNo3QYBsLInOVKKMEqub2SgaKIMgLUGW/rP/7xj7fPdaKcoyCqyHgd8dqWZSx+EpazMpZOe2F2BL9lAN7GoxTfeOONba+Ry324N40s2yNh4P5RwPh/Cefgy1j33HNPOweb7Pk8MTNF73rXu5rCzL4RlkOxaZevgLGEjZ/0cQ6Wp/HX9ne/+93tx3tnn3122+vBP1YwTDg3eyYw5iiXxoeGn7IH0ik/fyO/6aab2owLdadMerkqG8OVsTT8VXYyqQ6Nw/VY0ACkbBhXxx13XLsXyt4bf8L9YYDQvlhWhsHG/Xl+zuv1wmRq/em3foy37nBNJy/1xcwVn7Omf/Nctr4AgxGXuquYHkKYX2KAhDANTtXXuH6g0o+LwsGbNhQ2FDOMDwZCBkaUSgfRXgkK41QFRFQ2cJWpccr6sssuawqzb9hrfakAo4yQjmLCfx9468+bbhRFlHzPCVwHDJM2Rl/WmrdPm5SO32vqco8aRcw2sDmeLzShWLncp7ZF0ADh/ln6hEF25plnDsccc0zbn8DsEEuKNAZYCkXbRR76mT3Cj1tBbpybTeMYK3x6lvOz4Z9z0w+qgl6hjBxLuSnDxRdf3IwtjCv6S5VNlcmYnPTXPJPSjav5cLnO2LXwUy5kTnugXVC+b3/72+0ekRkzHdwPMqyyx68cma3ic8TMgoBtul4zrDzIsdYjfmatqK9nnnmmGcrUBVSjQ7fHOgwhzC8xQEKYgbFBSkx3+QUKF2vEiefNG2/gGAhRHlFmGDBVmFVEwsxUpdAwLsq5fuTJXgVmMY499thWJyiJVTm0ngirBBNmzwJKpkvmVA5ValRsvH6tu75slUlpxo+du6aDhgjx+FFiMUKYxdhvv/3aPWIQcB/cn3sswBkejQV+lIccyI8hwf2jRDuTAhxDfuJwjaNtm88lRpwHFzgvBpGytT8QDxhBuBp+nOuII45oMycs30K5p58ol0lyqnFVZuYf8xsW4zhHbUM1r2m41DftgvbFf0no28gapZZ75Z4Ie4/A/SFj/uTO/hH6v7Nrnr9eM0xPX3fgs9R064s+wsuEH/3oR202mnqi3dI2aZfWkc8CME6ozz4uhDB3xAAJYQYcoOpgJSgeuAxW+MnDW08UtKOOOqotBeKtPMoVA6ODZYyP2aPioexqHH7lyltPNlUzk7Hrrrs2JResKxVE6406QrFmORFfXmJTNeegblQOPXe9tozFzRaOrefuz1XjQSUZSHem5ytf+UpbJkWbQxHm3jACattFEaZdcq8YCoS5f/KrPKuUKavqJ50w8iMfEMd5OCd5OA9hjRmPA8+nck5e6oUlXsxU0TfqsjfuFVQup6PKbCbGjiFc+2XNg8HQyx2lFtnffvvtw5577tkUW+6lyggXkBPyRvHlLfzDDz/cDEcNXNtYGEeZ93EV4pRljWM2jXrigxIsKaSONECoI9syYdun9OEQwvwQAySEGXCQcsDq41Q6jPONMGvlv/WtbzUFS4XRQbQquWEyY4Ya8lNJrXG89cTPkh7eOqv8WTe1jlCcUUpYAvS1r32tKb8oLZyHenHGinDFa9VwpaaNpVdMH8tXj7ed1DjbFF/6Ovzww9v9aFhwn8yCaCjgEodb/eZFHoRpxxoJ+JWZ4Uo9Tr/5jQf85jdMOYlDKednhcgdww+Ze79jMlkZZnMe8+DWa9O+XIJlPOWkvMxs8p8PZpVoZ9WQQ/bKgXulnbF3hs3Q1BntdC7vcU2l1kuVFbJTfuCzwDjqixcR9JETTzyxtTVmougj1ItQPzJdXAhhfogBEsIMOCBVpaqigiW+aWZ9PRtyGRB5w6syXQdPB9Uwe6rSAcoRpYPNvigdKH6+nad+rDdcFEWXH7EfgjfTdekVqHRyXuutXr+6fVqlT58N/TksR1WygLfxKLOXX355mwXhPwe2Ue7Z+61tE5SFs0FCGsdBNUTw4xLG73GcB3+9hvm8hnFeA9mzt4T9OeylQLYajt579Sv7Gl/T+zghTcbShfPXvMqXtBovpKPYUmZmQdg7hJHLTIgGnUvglA3puCzb4nq0Nc/Xlyf8LsrcPlDj8OP6HMBPGkYiM03s/zjooIOa/JmZs11iLPbtkjD04RDC/BEDJIRZwuAF+B2oKsaTx7fvfLaTgdAlJg6mDpbi4Bp+F2VTZYRf+SlL4vkE7P333z+8973vbftwUDpqvViPKCD8E4A4lgBxPG+1UQ49L2+4cb2ubvXXuEmoQM8WrymWR7/nQ+FywzzLx9jozD1hdKlkcX8oWSjG+knDX40KIR6qnzw1H/5qgIDnN+w1gGNqnDMC7P1gI33d8A+9HHqZjKWPMVN6j/mVd01D1ri2D/ox5fZDABtssEFrbxog3jtyIo7nwFprrdWMXf6szj4Sz1WvE36fsTqxrkxzqZz5mGXCCMHA5eMIvoyodWO7NFwhLYQw/8QACWGWqEiNxfd+lCzgDSmf40VZ5M0pAyXKhwpIHUylDsDh90FGVSlBIUSJRcZ8WnbnnXduCiGKB/VRlWgUDJRz3lhvu+22w49//ONmHFI3KC2e2/PXOqrXr+7KojFRGbum/j6N4yk7m6L51Cv3SpvjPjUKej9uNSgIk86x+AUZESfEVb/h6gLnJuz5DXMNwChkZhDFnVkE6oz6qwo591blMSms/Po8MhY3Cc/RY5lcjmdeyk6bYYklf0hnRk2ZIQeNNED5/eM//uP2wYD77rtv6qMU9fphMrU++jj8PFNrmJcJ/NuGJXIsxcQArLOhtvvaByrGhxDmlxggIUwDA1Y/ONWwyp0Dm4qWSi6f47366qubsuLSCwfQqnDhN4xiZb7wf1EeygZZ4QJxKHW8XWbJG/s6UMRROqgL69G6JA1FkT0I7KHgjSn1U+ugXtdrzzf1WriWpd6rZcTPfaPAYzjRxrbaaqupmR3uVWV4rA27PAiUk+0WlziXruAnHoMOVLTJx/lwVbiN4xpC2OugqPO/EX5wqNFX7997M2zaXMJ5K31aLUOVfT0WP4ouP2d83/ve1+QEyrzeO/JiBmT77bdv+0C4Z+7d84TJVHnXMND+rR+NEOKYYXryySfbLBvtlXqxXVo/vVupbTeEMH/EAAlhGvoBqR+sGMCANBU9wigdLMMizM/aeCPHumTf9jqI9oNqHWj1h/8njyo745ApyiDGBDMB/ARPpaPWDS5xGIbk4Q0py2gwQJhB8Tpj1yI8n3gdr4WLcoW/KsH4hbCGLfsR+NwoMz8aCFANEY0E0pEDYBQIMqPNCsYC8IUtwqYjP/wcY1v3XLi1r3ht4BiO5a/nbD7HeKrLr7w/3Cqb+aBe03CNny6fYPQyM8Jf5rlv5FTvXT8ywDBknw4fSOBYjBDu1euEcZR19fdxyFEDhDZFvfDflT322KO1V1440EZthz4Lat+o9VbDIYT5IwZICNPAAIWrcTE2WDmIoeCZjwGPgQ+Fix+08c8GN9tWBdJBFLcOsobD/0WZjBkgKLEo4cj4yCOPnFKmrTvrD5c0FEVmC3gbjQKPwsJ5OZd101+L8HzS3xOu5ahp4pp3FFk23/PvE2Z0XO+ugUFbxFUWhsln+2Smgzg+38vyKL7shIHG8hV+MohLHHsdyAPIk+uo4OGv1wD7hdenTghjJKK4oywiY2XOfXnPC0GVp9c3Xtd2UeOE8tPu+IcMMuEjAN677Q64f/8N9NnPfrbtL3IGxPOGcaqMZvKDs8zUCQYf7du2ab1YR8TZZmWs/kII80MMkBCmoQ5GDlqT4qoBopKH0sUa8Wuuuaa9qffNJ4MkSqQDKG4/sIb/hzLRKKhKKwYIyy7uuOOOYd99920GBkq1yoXGB1AnLgPiJ2XMfoDnVbHvrzvfcJ16Lfx9ObxfsJwYtRhQfP3r9NNPb4YC9+4siG1Ul3bpjAVfa8Lg2GWXXdqnfD/1qU8NX/ziF4evfvWrw1VXXTXccMMNw/e+9722mfe6664brrjiiqbY8Td1fvTIjMsWW2zRjBXPyzXBfsB1CZNOvaAUXnjhha3s9IXeAIF6z/rnm3rt6vYGiH5lT7tDViz74/580+6zALh3Z434QtvPf/7zdu+eq547/C62C/zKaqxODFMf9AU+/kFfx0Cm/dkW7Qdg/Fga/vrcCCHMPTFAQpiBfrBygALiAb8DlvlRRhgEcc8444y2RwGlxYGTwVXXONyKg+tyR1lUQ0EDDmUOxeOWW25pyjRvonnraf2oDANKIPClrLvvvru9xbZOqAep114Ial3jtzw1jrBp3j9v0rkHlvjxU0IVYZRe22Rtr7RF4vbaa6/WJpkF+ulPf9pmUFCMOScydikLsyssb6v7ZMj3xBNPDPfee2/by3HBBRe05S7IGrl7PWUOlOf1r399m3nCGOce3IjtPXmv9Z77uPnCMtSyVFe/YeSAPJDPd77znWbQ0q68fwwQjRDunTRmQZil4qt4tDnbcj13+F16uUM1QOwTxNGeaKd8WIIN/y4btD2K4epKzRdCmF9igIQwA72RUQcr4vXjGgYUDxQS3rizURVFD2XZfSAOoih9DqT9YGt4uaMskBuyUgEnDpmiCPK2no2+GCC+iaYOap25JIM3+Hy+FiVbxZrzKffVJXuvTXmgjxfvn7akAcVGdL7s5f9AuF/uHWyrKGTMkrAM6qmnnhp++9vfDv/7f//v4bXXXmvLV5AHShznZGZJNHRIwyDhr/F///d/P/yf//N/mmF9wgknTCnak/rEn/zJn7T6ufnmm6cUxnpP3Kf9wnvWP9/Uckyi5qVukAn7uphJ4zPIzDw58wYYIMjA5wD7QNj/wgZpl/3V84bpqfVgHQB+2igyZWkfM3jveMc7WlvkOUAdCO3QttnH9fEhhPklBkgIM9APTjWssmG8yhYuigcuSgmKIUtYUDoYKDVCGEBRJB1I62CrP/w/eai0qXwQhwGC8sySIZa7uREb+VMXKuD4nR1giQab1lGmUV48H+denbL33mwTthHLVdOBY7h/8vFJ2J122ul3fkhoe7RNYgyzX4HZDzbgY2hwPOfhvMK5vdZY2fDThmnLvNE/7rjjmsLHfhCvVw0feN3rXtdmCtgwX9u/98U1rF+vuVBYhlqWWjbjjEcGtru77rpr6od3bnjmfjX+CAP1csghh0xtwK/nDONU+Qvx1AGYj/bESwhm5j72sY+19kdd2Pb65zMYVyEuhLAwxAAJYZY4mNWBCn8d1PSj5GqA8PYTTjnllPa2GKWFARPFV0VSZQcFzAHWwTX8P3mooFYFhDfRKMLf/OY32xIfDBDkjfytI10UcOoEA4Q30bzRpx44j+e1HlR2FhKuWdsEcfgti2UUyokiDCwFYgkab9o1vnwLDyjDzABhgHz6058enn766an797q4+r2GcZbR8tGGOR45HnXUUVOb2pV37SuU54/+6I+G3XbbbWomkHONnb/6FwrLMRZXy4fLvfOmnXtgBoR/exx66KHNyNAAQdYuw3IvGPWCoUJ+2my9VhintsFaR8bbDmnDtMXbbrtt2GeffVo/t//bF8A2iWsbre0Uqj+EMH/EAAlhGhy4Jg1KxDuYgQMa+CbUjc/8lBDli7fuKCAaGyp0Dq7h91E21QDRRRGsBsh6663XlA7rxbX4+JkBIf7jH/942/eA0sLxnGsx1AHXF+6NOO/VOCGM8qUC9t3vfndqDwz3SNvkvpUDYCAgDzasP/vss+3+lSn373mN85q4ltHrIzfaMku5PvjBD07NgHgtoRzUB0uwMED4WADltf3X+za80Ey6vvdeZWB/5f55mfCzn/2sGSAYvXXTM7IHngPMjjgD8sADD7QZEOptdd7zUsH2Zh1YH0A67Yj+j5+PJGy88cZTSwFtfz22TfJYXzU+hDD/xAAJYRrGBq3p4k1zYCOM8oVixgbhyy+/vCl9LH1x8KyDq4NuFJPfRXn0yjJxKsL+lbouwYJaN+4BOf7446eWYGEMck6oindVkBcSr9+Xx3ZiWwEUecqPMsuG8h122KEZYCi+tk1cDTCXYJ111lltM3k1QOq5KUd/PctnHNdG8WMmhSVYKuD2i3pd/CzB4i/17JngWMrMtZXz2DUMzzdcu16/xvf3b9uj3TEDwkuFAw88sBkZwP1y33xlDD9tkZcQzIBgqLAEC7nHAJkd1o3UOOqC9oMhyFJA9nbR/pE5ssfYti0S7jGt5pmUN4Qwt8QACWEGxgaoPk5U/DQ+AL/rwz/xiU+0QZM3oFXx6hUu4kwP/1ceuMhExQOIQ5Fj/fdNN93U9kBM2gMCKMjUBf8LcRO6m7iVP36vtzqhDN6v5QPDwL1jgBD/9a9/fdhmm23am/a+DSoDZoDYhH7eeee1L2fNxgBBzsbVeK6N4seyQpa0YYDUJVi6lIO6wABhE/r3v//9dh6MEM8J9Rr4a3g+8Vr9NfVzrzVOmSB3vr7GV5dY9sNbd2TA/dZ2RxzQLvk7t0vflLvnDuMoI9zeD7QjjEG+gscM2xvf+MapFw8YgbUv+Hy2bY4xXVoIYe6IARLCLOgHJQcx42sYqhLCYMgbUBQQ/lPBJlwGTRRfjYxe0atKT/h/SkhvgBBGlq+++urwwx/+8Hc+w4vcq/EBGIEYIbyx/slPfvI7s1GcV7kvJuWQMlGWCnHAvaMIv/jii+3/GptvvvnURnvaYH//vB3mvx0sVUF+GMJco54Tv9eF2i7Nh4sBgvwIY1jTxqsBAvYHyvOGN7yhLZHja12cUwOEc1WIk7G4+aK/lmHuz7AucciOdsfX12h3tCsNX2XPG3jaIkYvsj/mmGOG559/vh3L/dfrhd+nyke5C2ENcH7u+IUvfKEtv0LOtEXanzMgGiC1TYJxNb7GhRDmjxggIawEdRBz0MLV8AAVYP0oKLx99m/ILP9hAGVwZUDtFb1+AF7OKIdqsKmEaIBgUPD9f5YZoYCgDFo3QF2oCKIw8g8LFME6G8XmYs67GAwQr+99VmwvvPml/OzDOPnkk5vC5fp37t32J9w7RgqzJShuHOu1lKnX07Vd1jz4kRHHM4v0mc98prVxDJCxPoD8NX7OPffcJmfqjfavrCtVBn3cfNJf23sF5FDjuW/a3ZVXXtl+yOjMG/fN/VIX3DtxGL60yZNOOql9fQzZL4Y2ttip8lHuYJuk/fMCgX/S8DNN5Ay0O/t9xbqxTdZ4qfEhhPkjBkgIK0EdsOqgpfKFvw6CxPMmFCWML+E8/PDDU/sPGFwZUB1UVYb7AXg5gxyUhX5AZsjLrxHxNSZkjaGB4odfRZB6II4ZEvbjsGkdJdj1+JwHxRj66y803BuKFn6VYJUvIQ4FjOVnDz300HDYYYc15Usl2Haon/bI7Aj7RNiwTvvTAKnX9Ny9W9MBeXEOlHD+oM7eEr8yJlyTa+PHACfs38Bp+5RfI7xeq5ZJjJtPvI7GAeivBgjQbrj/c845p7Ux2hWyp62BcufekTvLgT7/+c+383Dv/b2G36fKR7nX9kf7ha997WvDlltuObXHq7Z7n8HWBf7eADG95g8hzC8xQEJYCSYNVsb36fgZ/DBA+EkWb6B5c+csCEqJCgkDax1wHYCXM1UW+g0jL5RBNpWfdtpp7S07iogGSFUIUYBJ22CDDYYzzzyzKcLuA+E8Kjec23pYHXB9yoHf8uDWdkKabejWW28ddt9999a+VLIq3DtGGffOT/NYBoji5vIzr+l1qjuGyjhyx/hjFoB27VfGbP+2e+qCGQDKwJegMBa5NgZIlbPnN7wQ1Ovpr23B+JpPw5XZDPe/aHzV9obsaXMsP2Pm6bLLLmvHc9/9OcPvo4zGcPaDOmBpG22LegBkbx1UbJt9/wghLDwxQEJYSRzU9ONWRbfG60cBZKD88Ic/3JQc3l6PGSCAf2wwrnHLCe8flJVpKINsqv7KV77S9hm4DEu5Wy8owi6Hee9739tmojgWOE9VOD33QqIyPnavuH07wXgi/yWXXNJmdVgGhJIF3LsKFy73jXLGJ3P9FKyKcC2DYa6jPGo8LuXARQFkIzofANhjjz2a3Gn7tn/h+sQxC7LjjjsON9544+/MgIzdN3jt+YTreH1lq99wzYOL7Ggzd99993DwwQc32bL0jXtU9sodmb/+9a9vy/7YgM99Y8DUa4VxkA9yst0bh6sBy9LL7bbbrsnYtseMlG2PeoAaxuWZYFwIYeGJARLCKqCS4aDmYGe8+fAz4KGk8JZ47733Hu65556myKCQqORU+oG4T+vzrMlwr1UZxK9CAih0yBEFb9ddd22KOIpfrRvrgXgUZZZsMHPADALHolj6Zl9lczrIMxd1MN21aplUxIjDj+JO2dmAzt+fuTcUfFzvG1DIcLlnFDN+QsjMDwqc11au9X6Ub43DTxlYpoYfBRAjCEPu/e9//9T6e65vf7A8xGN8M0PF7BPXp/1zXsvBNTmv9+h1xXxQyzUbOLYePx2cW3njWi7jMT4oO59+5stjyBbj1nvWBdobXwDjP0AYftTZpPtbbljX+mt8j22fdk+YOiCOzefsrdP4tr3T1q2DHp8HIYTVRwyQEFYBFb0+DDUNFwOEOAwQvtbCV4tQnFVIGHhVdGYakI1fLvT3r5x0kR+fRGUZFptRXQuuMlLrgTi/lHXBBRe0JRwaIV6r1sN0zCbPbOA89VyWoeapbQQ/Cjzlvuuuu4Y999xzag+C7RA/92s7pN2xDOiKK65ox2E81GuJ10O568tkXjfruxSJ9E996lNtZmnSJnjKhcypG2af2DjPPTgDwrlULut1F4r+ut4rfmVjOTG6nnvuuXbP3CMGiPfpveLS1pAJsj/hhBOa4cesJ+dcDHuNFgO26172+qvsCdMubfv3339/+7cKhjfGr+3e2Q3bIf4QwuIiBkgIKwkDGwMcfhUtB7w+reZHWUER+8AHPjA8+uijTYFjcGWQVekjXBXASYPzcqG/f2SFi4zwE49ixz8pTj311CZnFWHrhjogDCgs4H4EFXLrgXP319Rfw338yjJ2vXqPuJTNeGd8UNhZdrbRRhs1A6S2Qe8XhQxFmPtldujmm29uG8c5tl7L61kG4/DXawNlAs5B+0Uhv/jii4dNNtmkKYJVCbTtWzaUcZaLXXXVVe2ctn/8FeIsi5jWx09i7ByTGDs39+psDzLnnpE7sx8uO8Og4p69T+7bNofcaYe8jefrX5QHWXE+ZRt+V/bVD7Y506gP+it1wI9dt95666kXDvZv5A21L4QQFhcxQEJYCVSo6uCG3wGwT1cZQzFDWQH+2n3ppZe2wRUlDGUOfz8Q18F4uVJloEJCXPWj2CFDNkSj4KL4oZRYN/6Z2rfSpKMwoxiyjAmlhuNVruu1+zowro9fEfrjDdc2gMJaw4KxhALGHoR3v/vd7V5Qwri32v5sc9wvYf8Az74NZ0CUYX+dPg5Xqox4G0375T8sfOENmbPUinIoe10Vctz3ve997S/iKpOc1+uB5eiv3VPzzYYVOY57rDKgPpAdPxM85ZRT2n3xQoH71ehC8e37+7ve9a725THaKPLiXCtT9jWVWifVD8ofV4OSNoMhQhuiLSFj6gC/dQC1H9gGaziEsPqIARLCSlAHst5fjZB6jG/kXIaCIsaG4Mcff7x9SQiF0EEWHHTrYLzc8N57haQqJcZhPPg/EN5Mo5CoCFMXGCBAGMUQ+ZPOZ2n5mzVLuHjLrZJTr6HfMshY3GzgOM/tOWqc8abVOMqHwk88/5Th87e0J+4JBUwFmPskDBpb/IAQObn0qV63YvxYWXBR/jRAOA8GBGH2diDrKneur/yJwxiivG9729va+n2Op/1zLmXvtb2uftL6dONmi+fsGUvnnmoacuNev/3tbw/bbrtt23fAvSp77hHZc7/cq8YWX8p68skn2yxdnWnzvMsZZT0WxnUGCpkBfRRuu+22to8LA5A2ZR34rLUOcMHns/4QwuolBkgIK8nYoFaVD+McDM1LGkoLS1H4egtvRlFsgIFWxRAFRRyQlxved1XWqlyqgoiLgsfafP41gdx5M4pigsytC+sBZYVlSdQFijzncxYERcdze62xOhiLq5AuY2lj5yXMtft7wyU/xgcK+49+9KNhp512mroH7rEqXNwfxi6goO21115t+RX3qKKvK1ynlgd/f/+4lI0486FUY8Bdf/317ad8yN22TjlwVc7xo5gDf6R/8MEHW72xtAnFsr8u9Ncz3fCK0J8biBPCyt80jsPwwMD1p4+0K2SvzH3zbntD7ijHm2222fDVr361nYcZkFqGWq7liDJXxn0adYABgqxoq/RNZPjss8+2nzrSl2lrtDHbGS51QRph64dwCGHxEAMkhFVgbGBT8cI1vbqAcsLAST7+XfHMM8/8zrIYFRSZbqBek/F+6333csE1HiMOJRZFePvtt59SdK0PFRP8xKGYo0TyDw3eamsI+qbV81ZlVPpyjVHz93nH4oznWsK1iaM8KOkYHywBQgHjHmhHtCf8KsHcH4oYyjDpKP+nn356a2co0lzH+9Gt18YdwzKqoBuPvDAiHnnkkba3CbliFFEGZY3cKRtlpLz8s4SvF/Fzvueff77dl0uxvI4ykJpW/SuCZYb+3Pqtb1zbAYYf/ZN9ByyfpF1pbHCPtivigHRmethndOedd7Z78yWD5+/LttyodWHYNOTjTBt+2hjGhzNQzFxqfCh72hZurY8aDiEsHmKAhLAKMLBVpRZUSIgHlRTyVBclDCVl3333HX7wgx80RYfBlYFWJQWXwbe6DtDLAe5XeRinHIR0410OxD4HvjpEPaikKHuVFBV0lGUU4yOOOGL42c9+1hRpZ6G8NudWEar1oDsbLG9PTfM6UI+jHEDZyMMbdX78x72B7c37414BIwAwxr7zne9MLd2qMuvvpw9LjcePcsh58CMvzk36l7/85ba8irZNG6/tH0PI9u/MDYrk1Vdf3YwrjHDv1evV69cyzBX1GvU6pFkO7o12RT/lc7rcF+2mtitc6gFI98tYzK7xjxr3KHkN62A508seTENGtS8gL2bZ+GodH5qgLSHnWgfK3z5unzAefwhhcRADJISVxAGtDmz4VURwHQgdIKEqKihgvAXm3wwsHeItsIpJPyAvV6pyAiqIYDoyA5QVvw51ww03tC/ksNQNJRh51yUyoiFIGhuLWWKDMQicp9YH5/d6lqeWtaem1/y4nIt7MB5cbuK9eV/gG3j+PcHXrDQuuJ/aDrkPlDLuizfw3CNL0rgv2pfn53q43lMto+GxcuuqGKpUUzaUbDaWH3bYYa1sGBmUBWz/9gnljgF1wAEHtCVlLA+j/rhfZW8Z++vOFs6By7Het2k1TkwznfuiXHwtjT1blBuQq/eFyz0Rh8t90+523nnntuzNmbX+mvVayxHrt8re+iIeqG/7IwaIn52m3dS2b/vX7f0hhMVFDJAQVpJJA56gjFQDpMYLigtLUfgxIZsqUeAYaOuALGNxy4H+vmu4KqYqKyiuyJFlSkcfffTUMiuVROuJsHEoMijrrNc/44wz2ueRVYapD5VirlNdlaVaphqHKzUPLuXFrwKGn/LrVwFHAXb5zve+971h//33b+VFAaMN4ec++rbGfaMEY6ww+8HxnIvreQ/4LYflEsOWbyzeYwlzTq7x8ssvDxdddFH750hdilXlbRm9D+qEpVssVeIczgR6blyvN0m+Y5inHlMhzjakTHCRE/LXmGVpGcbpBhts0NoSZe/vBagD4pE7s0Ase2O/gvtuvCauslvO9DKZJB/y0S6oqy9+8YtNtrQbZF2fu/ipD6nxIYTFRQyQEFaSfnDr/QyAYwaIOEiioOHyOViUXQZaBl0UHwdgcIB2kF4OjN2v4aow4lZl2CUz11133bDVVls1I09FHVlbT9QPYeKdMUBxPv/889uyGRRHzqMi6nVw6zUpA/TlM1ypcRxfjQ5cjwNnFYA3v/xtnFkDlGDvx/ZW2xrxLAFCSfvMZz7Tlq30s2u6VdEzXkir99sfV13iOT9lfeihh5rxR9umvMq9lpFycw/gTM2xxx7bfi7HUixnfDivfUFZeT0xrlLTKzVNP/egIcK1NDqR2RNPPNFkyFfEuB/aCffDvXAP3hcucL/k4/PIfCaZ++BcXMv7wM81LcdyxjrA1S/KiPqgXTELxY9GadfVAEHutCv7Qg/xIYTFRQyQEFYSBjYGvhoeS9OPW/MQxwAKa621VvuHAstXULpUWMaoA/RyoL9nwyi7NQ1lRQUb+WE4sOmat9D8qI+38dYJy5SsG5VjIA+KO0YLMyEo0tYH5/aaKJL1esQBcfqhpvWQV6W34jlQurgHZhTYVH/wwQe3MmN8oATXNsb91E/AqiSzuf6OO+5oyhuGbVXkvR7XGvMbrtR4yuk9mIZLmSk7S+DY34FC7pIlymcZlb9KPXLnPljmxEwPsqXMuL1cYSxOLCdYzppunHLoj6H81Ps999zT9hvQfpC77cR+6z1YF8SRj6V/l1xyyZQByTmRPffiMruxul/OWC81jjAyw4jjL/LnnHNOm6XEYMVwre1If2UsLoSwOIgBEsJKUgc9XJXBsTT9FZUZlC+WbGy44YZtgGUgRomryq0KU68orelwv/WeDRtXlTj8hlH8kCGwsRzlnTemKLvK3zfY4L4JQGFmxoTlNh/96Een3mIzG4JCrPJYy1Kxrsbo01FGvS/vgTiuxywAxgd/DN9ll12ago5yq+JreyNM+b0fFDPulc/hogRzHZeTqcwrM8Je2/KbNon+HjyfLtdh5gCF8ZOf/GRr+yrv+CmrruUlzH1QbuTPJ4Ovvfbadk7kwDnxWz6U+bFyTIfH4or3bzphyk6+W2+9dTjmmGNaO6B/0nYwUCmrRhRYF+BsDzM5fAgB44OyY9CA9cv1bKvLGZ9xUOtJkBFy4/PHGNL77bdfa0u0E9qNBi11INZJCGFxEwMkhJWkKiBj/h7TVMRUWvBrhLC+nx/poTijuNQ31sAA7YC9HKjKiOGqqOCixIDxpjlzgQJzxRVXtC9BIWOUxFoH1EtVYjRCUHL4QMBRRx3Vvn6EMYAij1JZr1nLRh2RDyXTOrPeJsFxQDk1PDB02IeCQcoeDsuj8aES7z2oiBHm53jE8a8KNp5zLmTB+b2W8q0KYJ9W/RXiLTthXfNzTtov10VpZEM65eatNeWzrJSR+BqHH0OL/sDfwy+88ML2o07Oh9yRP/fhDNSYbKvcxXjrhbJah5yLsrrsi+VqGD8soULOGh4ovLW9AOX3Pqgf2hf7uWgvtj9kUvsx154k2+VIbU/KpcqHOqeezjvvvPbTTZdT0lbss/grxocQFi8xQEJYSRzo+gGvHwirvypdhH0LTNi3xPwXhAEYZQglhsFXBQrXgXm50CtrvcIipisr86HAvPDCC+0v3SgwKOgouNQDLnWAMkk9qAQD6SiegFKJAoRxyDlRWDkvdYSSaR2NYb3pN0z5UEypY5Rr3rzj8jU0FODjjz++vX1HcaeclImyAu3EtmObwlUJ3meffdryIcoJyq3KSH+Nr37h3mqYPPUelDVp3iN+lW+WU+22227DOuusM9XGKTtlVonnPuonelEwMbpYboMhxTmQi0YILufnerNF2VNW7glDRsMGl/jbb799+NSnPjVl9GF8KF/KRrmpB8pKHOWkfVBHsM0227QN+FyP8lG3nNcyVDn1cl2OKJvankyrfYN+xxJVZz+ok9pXK9RTCGHxEwMkhJXEwU5XhXC6wbAqMwyghsmLu/baa7c3vwy4KDAojwzEDtQO0Lh1sF4OqLApC5U45aIfzO8xKJj8cfsjH/lIqyfesrucxnrSCLEuVDB9840xwAzVF77whfa1Js7LW3PRIKHOqDug7lB0wTiVXgwOlWninnzyyfaJ3Y997GPDtttu266JEqyxZDuB2nYsJ3m5L5T9K6+8ssmE82rEVtnhF2Wnv6aNQZ6qMFY0PoB7536ZdWAmY9NNN21vr7kfoPygzJU/90O6Mw/EMXvFci4+actXpTgvclN+yJ17VfbcMyhzII18HGNdcQwzHj/84Q/bbBOfd7X+lTtlNE75iwYIxhX7RDgH+464HvevvHqIV+bLHfts3540EKkf+hztR+PDurDt4FbG4kIIi4sYICGsAioiPZPyqsyYRwWMARVlhrfXKMh+uQjlCkWKgZpBuR+oUWJwHcyrf6njvfT3B8rA+CoT/MShAKrkqXzee++9bWYB+aOsa2D0daKSY7pvuVE0STvwwAPbD/fYJ8ASIa7L+TFEqDNcDQzc3khRaeZLW5SJTea86d9yyy1bG+BaGBRcFyiDSheKOn7DuORlZgdFHePDtoMChxyUhTJSbtW/IihnXeM0TAhzTdou988nkfnXDV+S4t68J8pf+4RhlH/ycF/O6mCQ7Ljjjm2Ggj9h80UkjBvuUVlDlbVh/YDcKefDDz883HTTTcMFF1zQZoy4HjLkLTvXUr6U0zJW13ZBXuL4TC/GEefHAFEmVVZVfvrXZGYyspALUB/IhPwabhqNLOOjfmgDyBvZg8/VEMLSJAZICKsAikf19/R5HTxNr2/dwbfYDLi87UW5gn4gr2+a11Rlxvvq74/wmEInpiEz5ISLIowyAz/+8Y+H973vfU3eGiEovLh+SYo6Ucm0zshTlWE+GsBsw3HHHdc+ofz1r3+9rf1n0zobkNl/gULK8i9cPuf6wAMPNIWKmQ7+Zs5b/UMOOaR9dYvyoPwCihbX89qUgzJhnPazH5SJ8rD8h5kGjA/ajHslkI/tR4XPuCrDFaHK2fOBccpf2aNMYoRgWDOTxD1SduVr+699hTRADtyf90n6O9/5zvZJYr5UdvHFF7f/nDBryCwXBiGzEM8//3xbtsXMEnInnfrBQOPv5GwUx6ChHikPhhHn53qUjXLZDohD7sjf+qCv0haY+eBHj1xDuVc5VVnVOPMsZ5BLbT+AbGi3GNAY6NQxe7GoI9qF7d62EkJYmsQACWEOUZECFZiaRlzFNJVKFBsUIRRh3qjyhpe3tg7MdcDWCJmkzKh0LlW4r0lKsnHmqWnKyDymE/YNOIoom8upE5TIqnRSF8TXegMVH/KiDHEcLmHSWSLC8rn3vve97R8YH/rQh9pXtE466aTh4x//eDNU2JDNMq7tttuuKVWcT6OTerccwDkpi+WpeyQIkxeFmWVNfO6WGRm+PMXfolHgvH9lAb1sdFcEzyWcr0/zOsZhhPAlI4wyjC5khewoP/fCPXHP3q+yJ04/fYP8yAl54Qd+Ssf9v+c972k/M0TOLLXDKED+J5xwQvu0L7NWfE2Ma3M+5K4R4dIeDR7SKQdxQjktC3k4jjiWzDGbwkwLBi73zL37Vr9SZaTM1mT6e69xk/IgOwxWuOWWW1qfQtYY5bYV3FofIYSlRwyQEOaAfjAcGyAJ9woNLooOb1ZVfnBRiFCqWGri/gEUaQZnjBIUzKrg1cFc/5pggOjW+6pxfR5ALkJYuZkPAwRFkX+uHHnkkU2xR6lVAaauqBfiraO+DsmLi1KEMszeHZQklWLiqUfr13MST91yPQwHjq1GDHkqHGv7sDyESeM4FGiU6q997WutXbAUybbCvXLPVRbGSR+eCc9Rz9WfgzDXUwHHT3mQO2+1mZH43Oc+1zaYU37khXycXdAP3GuVuXJHtsiQJVPKkfOQJhwHnI/jkD0yIz91pcFnfs5JPq/PtZG558IljWMoN+XHyGEpGIYtbcq2pnwqVT41vCYz3b0aX9unabSTF198cfjEJz7R6oL69dlIXRBn3YYQliYxQEJYIFRiVGiMU9nCr+KKgkM+/kPAkhLermp0VBi06+A9abBfilQFBX+l3rt5a5rpKOUohSjDyA8/+VHUUXL46hEzTbxFR5lViVXJV+mlflg6ZD1Zhyqs+Kk3DQwUXQ0NlCcgTL0C+TgHx3ouz4PLdXRrGnm5jm/tWarH0i/ul5kPjA/um/vk3vFz76BMlAEuYfyzhfxS43o/1/K6XAcwpN0TwvIoNhbvvPPO7V6QvbKo8lAOYhrx1hGgnCJTZFtljh85KXuVWOrNa9TzYnCAhg/5SCMPftoHBszb3/724ayzzhoeeeSRZlgB7cuZJ+5XeYsyqnJaE5ntvSoX2imysl3SRmgr3//+99tMoYY29WY9UT9g/YUQlh4xQEJYIBg4wUGUOPwqO4RVeHAZeHnLytttFEsUZgZqlBwGavwqemOD/KSBf6lg+Xt3UppUxQ8/6cZVP0ojyg77NT7/+c+3L0+hqKIQq6BSF0Dd9EoPfvIZb/2Shlvr0vOZ5nmNG4tHycaP4kUYlzZB+di3wLIiNlGjwLn8h7ahQuf96zesf64NkBqvX7gu8ZSPcrJXgr0q3/zmN9vSKO4fY0FF05kJ7luZ69f4UF7Kr5ch51F2pBnvMZ7HYzV2rDfPQVjDhrg99tijfWqXPS3ub1F59n4J0y+J62VjWP+aRr1X3NrmKhrFygmZ0TYwUNnL4xJJ2nytR91adyGEpUcMkBAWEBWkOpgaBzXOt7ZsmL7//vvbwOwGVxUcB3IHdZUAB/8aXmpQfhW7SXiP9V5RalR69HOeGo/MVHhQhtk7weZkfj5HPdRlPVUZ7usQJajHPLUu8U+HeXj7jiJMmGugeDmrQnloD2xYP/XUU1ubQAH27bv3Z3tQLr0fyNfLbTZ4/Fh4LA2XjcS4tl3rQAOQWSj2UWy88cZTcuc+q9GmvDUS8CvrKr8aV+usz9MfW89nGNkjd5dssdmcPSZseKf8tBtnPLxXXORv+yLOePOs6YzJw7Zp3eNqKJMPWSHLV155pblf+tKXmryRv7OF1ov1FkJY2sQACWEVWNEBkfwMplU5UtEClCDTiUcBZhbki1/8YntjjNLGAK5CXRVrcOBfE6hKjG6lz4ssqjyIw510rPlReFy6xBeyWJLFj+ioA5fwYITUN+P4rU/rtldsa3ofPwnye34UYBRx3gDTDviELV9+uuqqq9oXtSw3LvfhfVa3v3fjalofV/G8MHYew/319at89kaRcndZ1kMPPdS+4IUBiOKJvJV97R/IBjnZT4wH46ss+3DNa5x+83K9upQOo5BZj7PPPnvK6KPc3AP3xn14j1Um3m+NM7wm098rsgHidAEDRJkhS+TKSxZ+oHnwwQe3Ng/2OevKurcthBCWJjFAQlgAGDQZQFVi8ddBFfSbBipi/Imbv0H7ttvBHb/hOriPhZcqY/dAuCo2M6VNyk9YRZg32ixlQhniK1l8TYlP21IPdU9BnRWxPjEW+mUilVrH1q3H13NocLjUCpevZaGY81bY/UAsx0Nho6yVeq/13us9y1jcTHgu4BoaFoZ7+Rrf5yFNuWNE0a7ZyM3SGzao097pM8odY0CFVDnjKkNc4jQilLvyxq3xxHksYWXPdbgecic/exD4PwufTlZBpp1QZu6h3luPMliOjMnBcG2ngAyJo/5pTyyHxOijPvo+ZV0aJ8b18SGExUsMkBAWCAZHFZ/ZDJakoyChdK2//vrtB2z834BlQyhDDOIocA7iDuh1wNe/lOnvyziV2Ulpun2cmCbIFNk6y8Rb+UsvvbR9UhdDhDpBOcUwQFEFlCRnRyrWMW6tyxqPcqXiSx1rdLAhG0OHmQAMDzY786duZ8CAeqfMY4ZHxXvzng2vKp6Pa1S/YfMR7mc/LBfl1gjRAET+fP0IY5svTO2+++5t2ZVGAXLRIFF+VcY9fTp+6oF4N617Xpd/kY8vi/Ep32uuuaYZfRgcLters071/nuUwXKkyqC6lZpf+WL477fffq1+NPJrfVKPPTOlhxAWJzFAQlggGCAdUPv4GuYtrjMmgMKEUsrP166++uqmrKEAST+gq5CuyXjPKrN9vPIwvcbpr2m4KvWAoulsEz8RZN0/P9E79NBDh6233ropSBoK4Bt6lCbSVKA0TqriCy7xUaHG8MDP17j23HPP9v8KjB+MIJaqaHhY37XevZeK8d5PH55rPH9/zVqesbxCvO0ZZRRefvnl9vNAlmbx00CWxdE/kBfGAoaDsyLIU3kjX2QNtT6Mr8urOA/Qz+hffJb5/PPPbz8BxeCjTaAY2+dsI5a5ytq4mr5cqfKobm0LyJMwzytm9PiRI8Y+fYU66o0PqM9JmCk9hLB4iQESwgJRB0kNDONrnprOIIzihLLEoHzEEUcM995775SS5oDPIO7Arn9NN0S4R++5hmt8Te/zofzwdl6lCIVI2eFnRgTFyGU3bKZGIeYLSPxYkD+Y85O0zTffvCm2KMYYJSi0GibEVUjjnyEq0LzdR/Hdd99925Kvc845pxk7fGGJcrAplyVX1LX1iUv5LHu9D+9l7J77uLmGa9Tr4B8rk/HOjNQ07w2ln88K++U3ZiGuv/76NgvI179YosVmfPoKclxnnXWa7DHkRJn39UCYvsXeKv5kTz3yc0Q+QsAeD8rBdbk+Rp9tQtdyYyBZfqCc3sdyp8qFMLKzLeAX0jXwWGLIhwioT5551QDx+egzEupLmj5PCGHxEwMkhAXAAbIOlg6wujVOP/AWF+ODN738iwJlCeWHgdtB3MG9H/h113TqPU8K92mgzHBRLFXkyYcirOv6f/eI8B8LlFWMhUsuuaQtk+KnabzBRaE94IADhr322qttXkbJZVaDP6AfdNBBbSM5f0k/7bTT2scFWOZz5513tuV1zHagjGF4oPy61I5rWvZ6D2N1XtMNLxT9NQlbxj5OeRO2Hdc0DRFkjuyRBcuzMEb4WACb8c8999z2RTD+l4Nc2bzMEp4qd4w7lrIxe8VMCvWEoXf55Ze3mQ5mmZjt4PxcS9lbFsvclw//dPe5XBi7Z2TRy8M4w6RR7xjXGPb8yR7jw5ms+gzEj8GB6zO0QnwIYWkRAySEBaAOkvodXMGBtPeTz6U7DMpvfOMb20/Q+EO6y4QYxFWIGOCrf0w5WBPhPqe71yoL89awcsMV0lSEzYvMVYj9+zVpGIQvvPDC8Oijj7Y/rN92223tHx033HDDcOONNw7f/e53h1tuuaVtZubP2U899VRTermOxg1v3Dm3hiXXswyW0XLhGmfZgOM8tsYvFFyzXnesjDUfZfVzrMiZMH7vmbzeE20d4wBZMUOBoUZejRJmBvmkL0YFhiGyp5/8/+2dabMkRRm2f4ERshh+c3ldYEYWWQRkBEYRwg0BEQEXFnUUDERWUYJQAWUZAQFBRRAXVFwAZV9EFBXZ8ReIiuu/qDeufOOe9zGt7nOGmWlO97k+XJGZTz5V3V1dmfXclZlVrCtgDc1dd93Vnh7GI5f5TPbN/8lxZ7/sk/+Cz4r4zPfM96nfj3y+H+nY71x0cnx6O8cix4NjleNX/TnGHH9G+7ipwmggo1P0d+n7ap9Y+09s+KWvTJ2IzA8KEJEZ0F9ASbmI1osracqV1HHBZWoJoyHcaeeJQQTBBGZc0HNxz8U+AUAu+ItIftuk3xl7jknvS/CYcmxQg0m2pYwveYJX8kAQRSCMaOB/4G4uthCf+BHg4hvxiD+2BNOQz+Tz6/cI+c7xH6uv5VnB9wi9bVIZ6m+ovylQ7v8/jifHLscROK4cS+rqfjm2+EL1pYxPvkf2Xb9D0tTnXCCfuhxv8tV3NZBjlHx+fz1+iPOIzGzHf8J/hw8jUevWrWvig1Fe+sA6var2kWGSXUTmBwWIyAyoF0ryXGC5gEK1V6otPogPLtTMleZxpQRRzz//fLug564uF/pKAoMEB4vE2G/Kb02gDjkOsfX+tQw5dgScCTBrEEwdKeVAGd+IjaTJB3yyz3yvfF7Ivsn33zn18an5ENssqZ8/6Xv09uRjr8em1pHm2OR41OOArR7jHGeOfRUloe6b/dT94VvLpMnX75e65Nkm+10t1ONUfz+21EW0xcbxRQAy2sc7P5gelyfBZepVplvV0ZAqSijXflFE5g8FiMiLABfPCBDIhbUSe7bhYgxcqJkr/eY3v7lN6WFKCkKkBgPAhT95qAHCopLfWH8n+QQ/sVdbDY4mbRPGfBOQpi42qH51P7HXfY3tu+arrbdTHtt+1uSz8x3rd5lU7u1jdaGvX8o/x6NnbLvYqj3HdOy4pr63L1W3iPA7Kzlm1DECQpoygpApb9jPO++89s4PHg6QJ5XR10V01D6wz5OKyPyiABF5EehFRpjklzuBpFykM1eax7UyFQsBwoU9AUGC34CtLy8i/W+s5diqb/Xp6xJA9n6VMf9J++jBJ0FZ8mP76EldZTk+25r+O0D9TVD9+m3G9oWIzh303qf6TaL3r9v0+b4e8v3731HryNfts4/ev/dZFOpvDP3xIh9/+ipGQW688cbhgAMO2PQ+ndxgSZ9XBUcd/YD0h31/KSLzgwJEZEbk4jlmG6tLfS6+NY0I4WV1PIGJhbVMaeACX6eQkObCDwkIqm3RqL8x+Wm/eVL9pG1jS1CVfPWLLfaa7+n3m3Jvn1S/Uhj7juTHjk3Kydf63l6pdWPHs+6j0vtB3X6S76Rte+r2k7bpfead/Kb6/9bfmd8dGzdIEB9Mv+IpZjydjCmlTLuiX6vigwXp9H9VhKQu+fSRIjKfKEBEZkQuoGMXz1pX67kAIzj6u31crLlriAjZf//9Nz0Viwt8pgTVYKAGBNW2iNTfOPabY+vtyyXbJvAirUFYfGKvxKdPk6/lSuom1a8EJn3HSbZa11N9J/FCthvbptL7py29UMb2uQjU4zV2Xtc+KHBjhCeN8bjp0047rfVfPFQjoxmkCI++/xvrG6uPiMwnChCRGVIvomN24KIbaj0pYoQ0j+Vl+gIpb3DmXRJc5LnwkxIEJBDoA+BQA4S+bhHpf+u039zX1XK/j6Xqqi325DeHfj8riaW+W1+f8hhj21V7Pben+S1V7u1jdWGp+tVGjkX/cIb0M7HxP5Fn5INHT19yySXD3nvv3dax0X9FgNDHsR6k9nd9H9iTOhGZPxQgIjNm7OJZL6pVgFTf1JFy0c6FmzuJvKCQF6zxngOmYvH0nxooZC59goJaV6l1i8bYb532m2tdv900JvlV23L3NY0+AF+J5DeSJjjt65KvxL5UXWWsvoru1I/51foxW6XWVd9FZDm/sQqO/McpU8/NEMQHC89vvvnmYf369a3P4iZK36eRT1/XlyH9pYjMPwoQkRVCLrIV7Ix61DnR9Y4hcCHngr7vvvsOV1xxRQtMs9CTAGBSYJC6Wl50xn5/rZ/E2HFargAY81vu5y4COXb9MeyPQV+/3Dp5ccl/05N61n4gQHhYxoYNG1rfRZ+Vvq32d0Bfl2mnESDpH2sqIvONAkTkRSLTqabBxTYX45rPhTl2BAjTGVjYyVu4WQ8CCX7HgoN5uIM+j2zN4zrv/1E9/2p5ueBft+nL8uKQfiQ3NuoNjuT5nxiJZd0Hb6s/++yzh7Vr1/7X6AekP0t/GHv6t/SFIXUiMt8oQERWKLkgR2TUcsgFnAs6AoS7hx/72Mfa3ca8aZtAIMEB+QSD2GowEWqgISKrl9ofRFjUMtM6kyeNOKSM+GDkgz7om9/85nDggQe2h2bw5Cv6K0Zyq9hIvtpEZHFRgIiscPoL8pgAARaj80KvNWvWDGeeeWZ72gyjIHkTd8RHSNBQbZRFRKD2DX3/QP+B7U9/+tMmX9JM/UR4wA9+8IPh3e9+d3uBKuID4QHpy9K3pZ+rpM8TkcVDASKyAqkX4LE8cPFmVCR5Ui7wO+6447DffvsNX/va1zYFAjUwIFCody9FRMaI8AjYMsqRcm5k5CEXlOlruPlx//33D8cff3wTHIzQ0kcx+kF/Na1vq3YRWUwUICIrkLELcV/ORbzWMQrCNAcu9m9/+9vbU2cIBpgKkVEQAgTuWuYOJsGDiEjtD8iHaX0Fdamnf6GfYfrnH//4x+Gss85qj9blfR+ZdkW/lYXmtT/r8+nbRGQxUYCIrFC4CGdkI+V6Ya51qc+bhREh1H/wgx9s7wfhSTRMxSJQIGjI3cox+gBDRFYHtf33/cIY9CfczEie7Vh0/uyzzw4bN25sI7FMC83Cc/okhAfkpYO1D6t9WW8TkcVCASKygukv0ClDLubVPxd5hAijIK9//euHT3ziE8NDDz00PP/8802EcJeyTqNI8JC7mAlA4iMiq4/0C+kj0jckT12mcWZkNQ++uOGGG4a3vvWtbd0H4qPeLCGt/VbsIrK6UICIzBFcyHuw564i5SzyZCSEtw3vsssuw5e+9KXhmWee+a9F6X2g0QsQEVl9RGCQrwKk9g+kGUWlPwHEB1M9f/7znw/HHHNM63sQILWfys2TjH7Elv4tfVkti8hiogARWWFMuiOIPRfz0E9j4OKdMvWMiDASwlSIyy67rAUNf/7zn9uULAKKBBMKEJHVRx0JjY18X6ZvoO8gzTbpLygjPP7+978PDzzwwHDCCSe0fomRDwRI7b/ST9E3VXvyIrJ6UICIrGDqxTmiopK7hbm4V7LgM9Mg1q9f357HzygIAUOCDAKIBB0JKBJ4pJ60kjoRmW9qW+7bNeU8ZjcjHhk9JR/oTx5//PHhnHPOGXbeeedNa9G4AUL/VEc1xvqq1InI6kEBIjIn5GId8VEv3P2FnHwECCmjIMCb0n/0ox+1ERCChqwJyd1MILiodzonsVS9iKx80ubHbLU/SJ9Q+wn6D0ZUeeLVZz/72Tbdk5sdCJCsR6t9Us33fZaIrC4UICJzQr1o9xfvMXvyWRPCozC5K/mRj3xkuPXWW9vTahgNQYwksMhdToKNBCMisrqIwEhKf8BISJ2GBfQflK+88sphn332aX0M4oP+J+KDPig3TdJfiYgoQETmhAiKgI2pDZCRjox6xJ+62CCPxGSR6L333tsCCBaP1tEMgo4EHmOkfpqPiMwvtW0jMNLe00/k3UKIEl54uv/++7e+heme9Dd5zwfQD6X/qf2ZiKxuFCAic0QVH9ALEKY9kPZ+CQC4O/mSl7ykvRyM+dqPPvropkXpBBj16Vg9CUJ6xnxFZL5IW85oKPmMePTtPCOnN91003DwwQc38cFTr+h70t/Q/9A3Ue77o5oXkdWJAkRkjsmFnDQiJBf//iIfOyKFUZDdd9+9iZDf//73w1//+tdNIgQIQhJ4kNa7oDUQ6csiMl9kVKO25dr2U44PNywQID/+8Y+Ho446qvU59Cfpe+hrIkRC3xf1ZRFZfShAROaYXMhJK7HV0ZFax1SJHXbYoS0aveSSS4ann356+Mtf/tJeIpZAJAEId0FzJzSByFjQIiLzS23Ltb2n/eddH/CLX/xiOO6449rNDEY+IjyYepW+Jzc8av9EPuXkRWR1ogARmWO4kPfTHHJxr2UECH7Jk7IgnSdjHXTQQcOll17aRAh3Nwk0CEaYjkXaC5AEKqQ1aIkoEZH5oLbfmk+bTxunL+DmBCMfd9xxx3DiiSe2aZzcyKAfyY2O9DeU08+kL6qCREREASKyAESEcJHPhX4sAKj1pKwJYfrE3nvvPWzcuHF49tln21QsyHoQRAeLTROMUI49AQv0AkRBIrKyichIW06elDps9AP0Bzw1jwdXID7ob7Lmg36k9j3pk/qyiEhFASKyIER0cNGPwOjre/DnLiasW7dukwhhmgWBR0QEKdQAJWVIQCMiK5e017TZ2nZruw70AYyIwv333z+ccsopw+tf//o2cpq+pvY3tc/pyyIiFQWIyILQBwGUk/bgkzw+CBCCigMPPLA90x8RwnSLPO2GYCTvASBfA5rkRWRlE/GRdkuaN51DRkJo44iOTLt68MEHhw0bNrQ1HvQVrP3ItKval6Tvqf1OyiIiFQWIyAKRi34NBvpAoJYTPBBQMJebx2nut99+w9VXX90CkwiQBCc1gKlCpOZFZGWStlttER21DvFBuyd9+OGHh1NPPbX1FTvuuOMm8ZH+I31IpfY1yYuIVBQgIgtEDQKqAOn9AoFEgok80Wb77bdvIyHf+MY3mrB47rnn2lQMAhXKvRBJINOXRWRlMamNpk3HhxsPPJDigQceaI/qfsMb3tCemseasbq2LAIk/Untf2ITERlDASKyIEy7+Ne6HgIIREgCC6ZiIUR4wdg111wzPPPMM+0RvVmUToCCEGE6FoFLpQY3Y4GOiLx40CYr2BjppO3GhzecA2s+Tj755GHNmjXtQRWID25SMA0r/YYCREReKAoQkQVhORf+vp5gggAi2waCjZe97GXDvvvuO1x11VUtQOFlhQQmBC4IEFLsCJGIkQQ1CXaSF5HZQxvs22HabaDtcnMBMvJx3333DZ/+9KfbjQmmXTE9M+/44EYF9tpvZBQ15drHiIiMoQARWUASCNRgoLclTfAQGwEGdzpZbErwccghh7SF6U899dSm94QgQAhYEswQxCg4RFYWERm1bfZtlrZMm+bmAtMt77nnnva0K6ZdMRLKzQj6iKz9iPiofUr6kIiS9CciIpNQgIgsCAkGwlI+NYggTRCRuggRpl/sueeew4UXXjg89thj7S4pZBQkQUwCG/I1CAJsY3YR2XakTfblpNxEoF3yjg8evX3bbbcNxx9/fOsDmIpJ++9FBXmIEEl9Jb4iIpNQgIgsCH0QkEAgaZ+vAqT3iQAB8jwdi5cVXnDBBU2EsCYkT8fi7ilpnYYFsYvIiwPtMGs8yGPLjQDKCBCEB2351ltvHU444YT2ng/ae23/fR9R+4q+7xjzExHpUYCILAi5+Fdirz59vvrWMoFH7nIyHevlL3/5sPvuu7en4vB0HIIWpm3wrgACmQQ1CXQQJKSV1InI1mVS28oISNpmoP0iPhAoN9xww3DEEUe0EY+8ZDD9QPoCoH/ISKmIyJagABFZEGrAEKb51DubBBWQcvwTeFDHQlQWpu+8887t6Tg8JYeREKZvJNjh7moVHpOCotDXJziqNhH5f0xqG9PaDQIkIyBJIz7IX3fddcM73/nONtWSmwzpG9JfJO0FSO0nREQ2FwWIyAJBUDAtMEh9hAVQjgCJT/WPMMnCdN4T8rrXvW448cQTh9tvv72JDtaEJAAiyMkC19igL8fWl8f8RFY709rFmD3+GQHJKGXebs5Uyssuu2xYv359G/VAgKQ/oK3TxtMXkKYufYOIyJagABFZIJYTINRgYlJgEXvER8pZlM4ccWxHH330cPPNN7f1HoyEkCYYSuCTYAhR0q8TiW/1620iq5naVmr7qGny/TY1z42CtNPf/va3w0UXXTTss88+bdSDp11lzUftA6CWx+wiIi8EBYjIAjEpaKhgqwIk9D4EIxkZwT8BCnUIER7PCcwd/9a3vtWEBe8KyeLzpQRIrReRcSIgQrXRhtKeUpf6WseoB4/QZs3Wgw8+OHz2s58d9tprrzbywahmbfd9XxB7zY/5iIhsDgoQkQUhgUENEGqgUG0IitgrvU8tk2KLHTFC8MLdU6ZxfP3rX29vTc/CdO64hhoU1eAoAZOI/C+0ldpuIHZsvaiv28VG+2O9B22SFwyeeuqp7UlXjHxwA6G28bzlPEyallnrREReCAoQkVVAgoYIiDAWYKRMfbX1dQgQAhgWpxPMrFu3bjj//PPb4nQCHoQIwRABUF5amICINMET+Rps1SCqlkVWE2knERpVhKRdpK62kyr4GY2kHdL+vvvd7w7HHnvssHbt2jaFkpsHtF3adBUT6Sv6vIjI1kQBIrJKSDBRBUi1V2p974O9pnl0JyMheULW3Xff3e648pSsBEZAwFTTGlCF+PZlkdXCWDuoRIwgPiI4IHlSxAdTIp944onhmmuuGQ4++OBNi80RH7TbTKlMe67tvbb72EVEthYKEJFVRoKKSUR8JCCJrdbFngAGG4ENImSnnXYa3v/+9w/XXnttm5KVF50RFHEnlqApQVKCqQRUIQFVzY+VRRaNSe0g1PZCHfkIEdpXRj0oP/zww8O55547vOUtb2mjHYx8kFbh0bfrtO2aiohsbRQgIquYsQAjQUkgMIlfbFmYTp5gBrIwnSAHMXLAAQcMV1111fDkk08Ozz333KZ1IQRMER81uKrBFmn1qXW9TWTRqec9aRUgUNsKox55s/mGDRuGNWvWDDvuuON/3SyoTGrzsadfEBHZmihARFYJY8FEAo7enjpSgpHk448AST51ESHASAhChMd8nnbaacO9997bBEjuzOaOLUETKSSYii35Gmj1ZZFFJud7zvmxdkFbQpAgOmhjjDryVLrDDz+8tUvaYqZcATYWm2fBOeW6FqwKExGRbYUCRGSV0AuG3hb72ML05ONXF63W0RDK5Al4mG/OnVcCnZNOOmm45ZZbhj/96U/tJWhME6kChJQgKiQASznBlshqIuKinv9pK6RMuQKEPVMdeb/HhRde2J5Kl5sAjEYiPGiXtFWegEUKfRsPsYmIbCsUICKrhEkBRrXXuj4/5gO5Y5qAJiToYVoWde9617uGiy++uM1LJ1jihWjctUWMRGgQcEGCrdgVILKa4HwHBHvO/5AywoN2xJQrRPxPfvKT4ZRTThn23HPPJv5Z60H7ox1m+hXtlbY41qZDbdsiItsKBYiINMYCkJSrPX4BG4EOaURIykkJghgN2XXXXYfTTz99+OUvf9kCKIInhEhGQQABUoMtBYgsKjnPx+yc97UtxEaKaI+If/zxx4frr7++vRCUkUceiU27q+0wbbUXH/GrNvIpJy8isrVRgIjIVMYCkz44GfMhuMmcc8rckSVAIgg68sgj24sLWaBOIMW0LEQIIEwIwqr4AOpiT6AW4ZKgrbeJrGRyfpPm/E45dbGR4oP44K3mtJO77rprOOecc4b999+/tS+mW9HuGPGoImSS0EhaqfUiItsKBYiIbDF90EKeoId8AiJgOtYOO+zQhAgL1HlE6K9+9asmQAiqWERLsFWDsQiK3A3GXoOyagMFiMwDnKMRGZzbY4IDsJMyXZF28vzzzzfbjTfeOBx33HFN0G+33XatbSH4M/UxbbKKj9o2e3tf39tFRLYmChAR2WIIWhLM1ACHcvJAXd5HALvsssvw4Q9/eLjpppuGZ599to2G5ElZ3OGtQiQkUONOcIK0MbKtyEokIiPndLVTzvnLeZ4pV4iQBx54YLjgggvaQnPaFFMbGfmgbU0a+eipdbUN17Zc60REtjYKEBHZYmrAQloDn8w7z51ZyqTcsc1i2YMOOqhNJbnjjjvaXV5ECAKEwCvBWQKyCJO6WB0I3BLUjbFUvci2ZtI5iI3zGaroJqUtMDrIgvTvfOc7bdRjt912a2s9aD+IDtpURhnJp92lDfbUNptyGLOJiGxtFCAissXUoIW03l2NAKn1BEqkiI+8vBC/o446arjuuuuGRx99tC2wZUoWQVhGPUgJxMgTqJGGBHMJ3upd5diqb7+NyHKp51Fvq/YqJsbqOUfreZqpWIhsRjsY9cDOQxs+97nPtVEPpi/SXhAftLM66lHb2yQBQp2IyIuNAkREtog+sOnLCYiSpy4ChMApoyEve9nL2l3dfffddzj77LOHu+++uwVi3P3Nu0MoE6QhQmpwl0CuBng10BvzqfUiy6GeO/X8mWSPSM65l/Mv9ZQjOmLjHEd8c84/8cQTba3Hscce296nk/d6RHT06z3SxtLmqr1nzD7JV0Rka6MAEZEtog9yyCcoypSQCI/4UJ+6+BNYAXd2X/e61w1HH330cPnllw+PPPJIEyERIhEelQR3mcYSe4K9GgRWW/xElgvnTRgrVxv5nJf1/AuU40/K+c2jqcnfdtttw5lnntmmJ9JGGPmAPFmOtlPbWdpT2lfaYm13S7E5viIiW4ICRES2iD7IIZ87tFVgxCdlfMgnkIqNaVm8xRl233339t4Q3qL+zDPPtOAMIcK8eII0ArsEcwnkapDXB3yAX3yTF3mh9OdVtXH+RRSTz/mYPL6M7HE+/+Uvf2kCBMF99dVXt/d60BYYFUR0kI/ISHuh/VTS7tIW094qsUesVFvyqRMR2VYoQERkq0IQEzFRA5nY+7TWEWgFpmUB+3jHO94xfPGLXxzuvPPOFrgRsLE+hOkqBHSkBHI18GOkJAFfhEqCw7FRFJGlyDmUqVX1vEp9oC5vMs952PtxDmet02OPPTZ897vfHT72sY8Ne+21V2s/nP+kgXZS20/yKaetiYisdBQgIrJF9IFPDYpqfew1rdskTbCFTxapZ8HtIYcc0oTIPffc04K2uj4ECAwTHNZArw8AU1fLIkuR84k851RvI825ljziOIKXlDLnLgvM4emnn26Pof7oRz/ahAfTrBj14LxHiNMmQm0vCHPSvi2lvreJiKwkFCAiskUk2KlTOgiKEhglEEo+9TUP8al3ewnAqEOIZJE67w456aSTWtDGm9Sfe+65TdNXECEEeiGBIFT7C2Fr7ktWDtP+z/qfB+wRuaGKjky3yj4iPjLVivOUUQ/y995773DRRRcNBx98cBMc22+/fZt6GOGddlDbSNpJ36ZS1/uIiKxEFCAiskUkAIoASbCErearby33+0k5ARe2iBICM54EhDDhaVncNebdCDy2NwFeAsFMzyIYTFBIuQaG8Y0tjNljq9R6mQ/6/285/2Wtr9tFaNT6ep5xjgVGPRAf1PFY3QsvvHA47LDDmqBGdDDKx+gH5zjnfNpNzn/KtDGehpV2UdtNyiIi84ACRES2iD7wiehIXR8c1TJpHTkhJcACygm8si157gwzGvLSl760BWtve9vbhlNOOaWNiDz11FObnpiFAMn0F4JCSDBIEFiDxuWS7SpjfrJyGfvvJuUh50utD9Rhi8AF8tgy1SojHnmL+aWXXtred7N27domOjiXSSOy0yZqGwnY+/bS+8QmIrKSUYCIyFalBkJjgREiotohtvhkW4Kt1CWfBeo8sjdvg6aO9SFnnHHG8L3vfa8t6CXwy1x7gkGCwxpA9gFlAshan3y1VcZsMj9EQFTG/utqS763ZV+cQ4zG1RGP+++/f9i4ceNwzDHHDHvuuWc7f3fcccc24sH5jPDIeo8IDFLKtV2Qpw2MtZdKv52IyEpDASIi25w+iEo5+Vpfg6tax6hIDcqAwI1REMQI01jYlrdFR4iwwLeuESEoHAsic+e6TtWaBNtDf2dc5pP+f0252mu5jnbERp7zIW8v53HRnG8PP/xwe5cNwoNHSnOe1reY13OZc5z335ByXkeIAPmc+xEg2LNdT/zG6kREVgIKEBF5wUwKgCr4VL9J+ZQJvmpwRj53iWsQhiCpQVbECMEdPoceeujwpS99abj11luHxx9/vN2VziNPs1i9BpCV2Pv6lNm2FyBjd9NlZVP/V8r5T0Meo1uFaS9SM9rBuQXs51e/+tVw/fXXDx//+MeHvffeu52XjHYw8pHzGnLO1/M/wqPmK9m2blfttVzrRURWEgoQEdlmJAiqgVQCpdT15dgiQkir0Kh+vQ9CJW9UJ+DDhzUiZ599dlsj8utf/7oFmawR4U41wSMk8CSwTGCalIAzwWYCzxqskg99eSkULf9LjnUY85nG5mzH/5n/tG6TMv/9s88+u6kM+c+Y1scoR9Yc8aLMO+64Y7jiiiuGD37wg8Mee+zRBEeIiM45m3O5z1f6877fNnUiIvOGAkREZkYCqxpE9bbqm7QPxAIBXbVTJtjL3ebceUYArVu3rr3k7ZprrhkefPDBFkjmXQw8PQsSXCYl4Exap96Qr/U9CVbH6uT/k+P0Qo9V/z9VW1/ffwZl6vO/ks9/O+aLUGWKFcKDcyUjHk888cRw2223tdG29773vcOuu+7axEbWd3AORoBUAZHRvJT7c3tSXcq1TYiIzBsKEBGZGZOCqmqrYCfQqsFWytRFgNRpKwR6geAv07J22GGHtmh9t912Gz784Q8PX/3qV4f77ruvBZ3cwWbePutFmE5DMAoJUhOcUobka5Baqdv3ftWWfO+zHNj/mH3e6Y9Jf3wm1adciS3HqvrFxn8JtT5PTyPNdD1EB+fH3/72tyZa//CHPwy33HLLcM4557R1R5x7nF95MALnHedpzsN6rtbzFciPUet6v2nbiYisdBQgIjIzlgq4evBdrgBJUJd6oJ6UIDBPzcp7RBAiRx99dHuz+g9+8IPhN7/5TQs2CTJzpzvTs8gThOZueQ1gp5Fgt5YrY/bYltr/cj5/Hqi/vafWT/Mfs8eW7UK18V9yHKuNfP5z/n+mWSE+EB2sCbn77ruHq666ajj55JOHgw46aNh5553bo3TrSwRDzkHgfB0TH5Bzu6duR3kpfxGReUEBIiIrihpkEXjVfMoEdknrtj3Uh+yX6TCIkDwGlScPcQeblxpefPHFw+23396envX3v/+9jYpkrUgfvEJGQno7jNm2hHzO1t7vSqD+tvr7Ig5i6+trvq9n24i0Sbb8fxGW8UOAIjr+8Y9/tP//kUceaWuIPve5zw1HHHFEW9/BOYXw4FxC3GaUI+ca51/OuZTHhET1iS2+ESCxVZ/sS0RkHlGAiMiKYSwIq+X4JMgjja3360nAxjZAcMeIyHbbbbdpVIT5+8zjP/fcc4fvf//77WlGBKaMihCQZiQEW/IErT3YJ9VBX59ypbfHd5L/vDP2+6YJkOR7al0ViClXoRH4HERHhAcpT07jjeVXXnnl8MlPfnJ461vf2s4hzhmERwRsFQk5D+u52J+XfX211To+K+d5tffb9bYwrU5E5MVGASIiLzqTAqxaV32SjgVosdVtydf3iESAkALig+kzeUcDfixa5zGql1122fDzn/+8zfln0fE///nPJkjIJ1itYoQAN3fUA+WQADi+yfdQV4Pk7B96+7xSfz/lmu9HL6p/8pPgODNdiidTkc9+U8++8+jcrOsAfHlp4A033NBGO973vve193cwapZ3eJDmHKvnGudMzjHKlfiQVv/eVn1rufcREZl3FCAisiIYC7BqMDcWhOXuc+ykERaUk/Y+Y2U+C3+m0hBkEnQSUO61117DYYcdNpx55pnDt7/97eGuu+4aHn300SY8eMEhC9gJZFkrgI3gNkFw0h7sCYprYFzrkib4XkT635jjEWKPGIk/9MeRPDaER8AWn4xy5NG5GdXiMbu8MJD3xVx66aXtAQUHHnjgsNNOO206HzgXyHOOcK6QHzuHyKc8dq7Vulqf8iRbZVqdiMi8oAARkbkjQRqBYB8Mph57zVe/lHt76hAxjIoQeNZH+rJehIXHn/rUp4Zrr722rRfpxQhrBki5w87ICMFvDZ4jUGrgHHoBknzKpGxPmuB8a1D3t7X3PY38RqBcf2dvT8oxgj4f8OMYsW6H/wCRARntyGJyptfdfPPNw4UXXtgeRrDnnnu284X/m9GwPEY3gpZzg/qI4pw75HOe1XzKNT9WFhFZjShARGTuSBCXIDDlnvj3filXah1BZ0B4AFOzmPvPGgD8mJrznve8Z/jMZz7T3i3ys5/9rL3okGk/3GUn2CUl4IVM14qAIIUEzAmwE0TXMvQBebZZiqX8lrufMep33Vz43Pwe8pDfmRRxQX3K1TflUMVGRjgiOhCCCMV77rmnPfEM0XH88ccP++2337B27domNPKEtCwoxzZ2jtRzEFs9H1Nf8yIi8r8oQERk7qgB3xhj/gkg+/w0EnhGiHBXHCHCAmQgYMXGXfF99tln+NCHPtReSMcCdl52+Mc//rEFxqwvyHtGsnaEoDjBNPm6jiSBdg28Uxfik7rNZTn7GKvbnM/MZwDbhdT1v40y1M+o28XOsULMMcrBseQYI/I4vkAe8cLUKhaSX3fddcPpp58+vOMd72iCg/+SUQ4EJeS9HREdY+dOzpm+biwvIiLTUYCIyFxCwBfGypN8x+j9Qw06E4QCwSpEjLz0pS9tKXUEuPvvv/9w5JFHDqeddlp74SFTfVg7wkJ2AmxGRrJuBPK+kT7oJignkE6gXgP6agu13OensRyfaeRz+s/Lb4qwqHXk89uqPeT39bDPCA5gtIPj99RTT7V3uTAt7pvf/GZ7vwujHIccckh7uhnT55hKx1PPgBGPrO2o50L+Y/7zWs55EHuotuRFRGQ6ChARmUv6AHAa8a1gHwsuexjdyNONMv8//nVf3D2PIOGt64yMYCf4fctb3tLWGTBd66KLLmqL2Vn0TMBMEM76EZ6u9fzzzzdhQoDNHf46KgIJ1mueNFQ727HvBPmxT6MG+vncvtz7VtsY+ez+O6Sc74gt+4wAI8+x4JhwjHgvB+9n4djwmFyeWPXjH/94uPrqq4fzzjtvOOmkk4Z3vvOdw957771pahUjHRmtYnoVtvxvMOk/xU5az4/45ryBug35lJMXEZH/RQEiIgtPDRBrPsFlyj010MQnASiQT5CaMillxEfWFCBGgLvt3IV/wxve0EZIeLIW75e44IILmiDhUb+8Zfuhhx4annzyySY+spaBNCMmBOQZMempgqAXBwnuqw2qKIDq09dFNPT2MPYZlOv3A34bv6HW87uyZqZOpcKH9RtMabvjjjuGH/7wh8MVV1wxfP7zn29T3hjheNOb3jSsWbOmTZXjuGdEKoKD/4804qP+b/3/l3w9N+IT/3pOxC4iIstHASIiq4IEizWg7APIGoTGr/ozElLr4huwEQQTnFImrYvZ6wgJd+bxR5Bwx/5tb3vb8IEPfKA9YYt1JLwAj2CbNQwsbn/iiSdasI4QYRTg3//+dxsRyKgA60wQKgTtWRfBSEGFoJ/gP4Kg5qfZJoFvYN9QP4/vkIXhmXbGWhi+87/+9a/hP//5T0sZ+eF7I2yYpnbvvfe2Rf033njjsHHjxuHss88eTjzxxPaSyAMOOGDYbbfdmpiL4OB4clw5pgi9iI4qFEJs9T+D/h0e2S7lEP/U9cIleRERmYwCRERWBQkYa/A4Cer7ADTbJXgl2Ex96hKAVr/4RIhgJ0BGkHCHPqMl5PElsN5ll13a+0eYunX44YcPGzZsaC/GIxhntOSnP/3pcOedd7bRkkceeWR47LHH2tO3ECgE+wgRpiwR2OclewT+9b0lIaMOSZOPYIDY63aUM1LBPoE8n8Fn8Zl8Pnn8ESQIDEZ3fv/737cF4vfdd1/7HUyj+sY3vjF8+ctfbovFjz322OHggw9uC/t52hijGxxDxAUiDqFBWsXG2HHvwV79IHlS/r/Y45dtlmJzfEVEVjsKEBFZeAgOK31dX04QmkA0wiK2bJP9hbqPlKu9UuvZJ+KEYLoG2QgTBAr1fAdejrfzzjtvGjU59NBDh2OOOWY45ZRT2pSkCJRbbrmlTVdiJIGpSwT7v/3tb4ff/e537clcjKYgBJ5++ukmXHgZX8gL/DJdKtOtSFNPmm3ZF/tEVPAZrGvhHRt8No+9Za0Lj75lYTgC46yzzmprNRjN4IV/b3zjG9tvAsQXv5VjgCALlLPwn+M0dkw5PnUUA58w9p9FbPS+kH2GSfVjNhERWRoFiIgsPDVQrMFiX+59+8CVcm+r2/T7GMuP+VRbFSIE3KSIkIgS1pXkfSQE53wfAndGCRg5YXrSHnvs0QTKunXr2kgC600YVfjoRz86nHrqqcM555zTFm1/4QtfaNO9WBh/ySWXNAHD1C8WdfNuEx5fS3rVVVcNl19+efP5yle+0t6jwVOmzj///OHcc88dzjjjjCaCeOrU+9///uFd73rXsH79+vaeDb4HIoPF+BEZBP+ZksbvAX4Pv4/fxO8FjkNGOHK86jGL2OjBJ/9VyHapSxpbpe5rWn1fFhGR5aEAEZFVy1hQOQl8EsxSJvidtF3s2XctV58aGNc79/kcqIIkEKQTvJNmOlJsBPIJ6hEq1BPMZwQhowj5HflsYAShErGQcv89yZOyP/Yb4cB34XtEKIWM6vA98aPM7+H35bvlmNTjQD7fNVRb/PtyBXu+b8o1TV5ERLY9ChARkWVAgNoHxJOC1tgJzGHMD1tlrL5P8/mQkQECeAL3GsRDFQME/CHCII+mjVCJLVBmcff222+/qZw0+QiKCp+Rz+Tz+S4RTsmT1t9Qj8FYPuXlUrer1Lrke1voyyIisvVQgIiILIMEqTVY7YPUjA6EiIW+ju0iTCBBeOrjwzb99qSVul32U+2ksQfKoZYjmGKvAmrML8Qev/jme4R8zwo+STPKEt9p2/a/vdJvNylf/fm+k8oiIrJ1UYCIiLxA+kB2OSQAroE71H3FhyA79alLoE4KsZHGL/XVLz75nJQr1OW7VHq//vtW6ufx+fEjz5SuTOvKvuNbt00+28a3gr1+V8qVMVv2PVZXfxNpjqWIiGx9FCAiIlMgGA3TbJOY5je2nwTJgUA4VL/ke1sth36flHvbcuy1vvfr6/keiI7qE7/Uj33XMKm+2idtj70XFGP5ynJ8RERk66AAEZFVy3KDzDG/LQ1Q++0ph9jqXfjUEcCTThMmff0kv6SpT11f39uzr2nUz4zoCKmDjAT1+w91u+ozZp9EvlPAluNYfcbyIiKy9VGAiIgsQQLXMOazpSz1GX19SJCegBooY68+Kdf9Vb/qjyhIvtqhbj8JtmEfvd+kbWOv9L+nMm07ERFZ+ShARESWwbYIegmy6+hAPqOKhdhC9a315Pvt4jutnG3qtuQDtlqfPPQL0Pv9T7JVxurrPnuf6tfbRURkPlCAiIisEBJY1wCbdCzIJ19HCeJXfXp6X2zZd7bNPmPLdjUf4UG+32/1rz69X3yS7+trXSX7EhGR+UUBIiLyItEH1WMBNraxYL7Wj+WngV/IfpNmRCb1dZvkx75L9U8epn332MfqQt1P9Y1Q6v1FRGTlowAREVkhJMAeC6yn1W0OdR+T8pVqm+Y/Vq72Wl/zlaXsff2Yr4iIrHwUICIiK4SxIHusnnxdO7Icsm0dSci+an1vx7/mU5e0HzGpZLuw3Lqx+spyfEREZOWiABERWSFsTlBdBcikgHxMpEwL3lNX6/t8ytVe62r9JB/y/XdLXb9NWM7vFRGR+UABIiKyQhkTEMtlUoCe4D31NZ9y8j31+2yugBAREQkKEBGRVUwVDpUxXxERka2BAkREZJWj+BARkVmiABERERERkZmhABERERERkZmhABERERERkZmhABERERERkZmhABERERERkZmhABERERERkZmhABERERERkZmhABERERERkZmhABERERERkZmhABERERERkZmhABERERERkZmhABERERERkZmhABERERERkZmhABERERERkZmhABERERERkZmhABERERERkZmhABERERERkZmhABERERERkZmhABERERERkZmhABERERERkZmhABERERERkZmhABERERERkZmhABERERERkZmhABERERERkZmhABERERERkZmhABERERERkZmhABERERERkZmhABERERERkZmhABERERERkZmhABERERERkZmhABERERERkZmhABERERERkZmhABERERERkZmhABERERERkZmhABERERERkZmhABERERERkZmhABERERERkZmhABERERERkZmhABERERERkZmhABERERERkZmhABERERERkZmhABEREYTjjkMAAAHuSURBVBERkZmhABERERERkZmhABERERERkZmhABERERERkZmhABERERERkZmhABERERERkZmhABERERERkZmhABERERERkZmhABERERERkZmhABERERERkZmhABERERERkZmhABERERERkZmhABERERERkZmhABEREZnCa17zmlG7iIi8MBQgIiIiIrIqefWrXz1ql22LAkRERGSEPjAxUBFZHGjPlTEf2XYoQERERDr6gMQgRWSxSJuexNg2leX4yGQUICIiIhPYnIBEROaH2rYrY74wzW/adjKOAmQVM4sGM9ZQRUTmhfRh9mMii0Vt25Xl+o7V1W1kOgqQVcqsGouNUkTmmfRhlTE/EZlPlmrj1f6qV72qUf1qfd1OpqMAWaUst7FM8ot9Er1f3VZEZCVQ+6y+r6q2GnBA3YeIzD9p5724SF2IT98nhLpPmY4CZEGhIdBAyCeNvaZ9Q0pdbKSvfOUrm/21r31tgzw2iM/YfrL/WhYRmRW1f+r7ofRh1NV8tnnFK17xX/X99vZrIotD7StCbLV/6H3H+gZZHgqQBYUGkUYxrXGkkZHvt0m+b2Dka2OMLQ2y+qYuVLuIyLYk/VHfB+XFgunDSNPPhdgCftyASR1lEVkMatuv0NZre0+ZumyXOtkc/s/wfwG2mHGftZ1Z8gAAAABJRU5ErkJggg==;" parent="1" vertex="1">
          <mxGeometry x="-830" y="725.4" width="225.67" height="142.74" as="geometry" />
        </mxCell>
        <mxCell id="iftpOIWhje2gakNTgD5A-75" value="" style="shape=image;html=1;verticalAlign=top;verticalLabelPosition=bottom;labelBackgroundColor=#ffffff;imageAspect=0;aspect=fixed;image=https://cdn2.iconfinder.com/data/icons/browsers/Firefox.png" parent="1" vertex="1">
          <mxGeometry x="-410" y="740" width="128" height="128" as="geometry" />
        </mxCell>
        <mxCell id="iftpOIWhje2gakNTgD5A-76" value="&lt;span style=&quot;font-size: 31px;&quot;&gt;client&lt;/span&gt;" style="rounded=0;whiteSpace=wrap;html=1;fontStyle=1;fontSize=31;" parent="1" vertex="1">
          <mxGeometry x="-680" y="491" width="170" height="58.58" as="geometry" />
        </mxCell>
        <mxCell id="5I6KbbuqI9N9IZFCoAGK-1" value="auth" style="image;aspect=fixed;html=1;points=[];align=center;fontSize=20;image=img/lib/azure2/general/Folder_Blank.svg;" vertex="1" parent="1">
          <mxGeometry x="367.41999999999996" y="240" width="69" height="56.00000000000001" as="geometry" />
        </mxCell>
        <mxCell id="5I6KbbuqI9N9IZFCoAGK-2" value="home" style="image;aspect=fixed;html=1;points=[];align=center;fontSize=20;image=img/lib/azure2/general/Folder_Blank.svg;" vertex="1" parent="1">
          <mxGeometry x="457.41999999999996" y="240" width="69" height="56.00000000000001" as="geometry" />
        </mxCell>
        <mxCell id="5I6KbbuqI9N9IZFCoAGK-3" value="myaccount" style="image;aspect=fixed;html=1;points=[];align=center;fontSize=20;image=img/lib/azure2/general/Folder_Blank.svg;" vertex="1" parent="1">
          <mxGeometry x="546.4200000000001" y="240" width="69" height="56.00000000000001" as="geometry" />
        </mxCell>
        <mxCell id="5I6KbbuqI9N9IZFCoAGK-7" value="user" style="image;aspect=fixed;html=1;points=[];align=center;fontSize=20;image=img/lib/azure2/general/Folder_Blank.svg;" vertex="1" parent="1">
          <mxGeometry x="640" y="240" width="69" height="56.00000000000001" as="geometry" />
        </mxCell>
        <mxCell id="5I6KbbuqI9N9IZFCoAGK-11" value="admin" style="image;aspect=fixed;html=1;points=[];align=center;fontSize=20;image=img/lib/azure2/general/Folder_Blank.svg;" vertex="1" parent="1">
          <mxGeometry x="730" y="240" width="184.82" height="150" as="geometry" />
        </mxCell>
        <mxCell id="5I6KbbuqI9N9IZFCoAGK-14" value="home" style="sketch=0;pointerEvents=1;shadow=0;dashed=0;html=1;strokeColor=none;labelPosition=center;verticalLabelPosition=bottom;verticalAlign=top;outlineConnect=0;align=center;shape=mxgraph.office.concepts.folder;fillColor=#2072B8;fontSize=20;" vertex="1" parent="1">
          <mxGeometry x="765" y="292.5" width="50" height="45" as="geometry" />
        </mxCell>
        <mxCell id="5I6KbbuqI9N9IZFCoAGK-16" value="product" style="sketch=0;pointerEvents=1;shadow=0;dashed=0;html=1;strokeColor=none;labelPosition=center;verticalLabelPosition=bottom;verticalAlign=top;outlineConnect=0;align=center;shape=mxgraph.office.concepts.folder;fillColor=#2072B8;fontSize=20;" vertex="1" parent="1">
          <mxGeometry x="840" y="292.5" width="50" height="45" as="geometry" />
        </mxCell>
        <mxCell id="5I6KbbuqI9N9IZFCoAGK-22" value="&lt;font style=&quot;font-size: 20px;&quot;&gt;CartController&lt;/font&gt;" style="rounded=0;whiteSpace=wrap;html=1;fontSize=16;strokeWidth=3;" vertex="1" parent="1">
          <mxGeometry x="370" y="620" width="200" height="43.23" as="geometry" />
        </mxCell>
        <mxCell id="5I6KbbuqI9N9IZFCoAGK-23" value="&lt;font style=&quot;font-size: 20px;&quot;&gt;Controller&lt;/font&gt;" style="rounded=0;whiteSpace=wrap;html=1;fontSize=16;strokeWidth=3;" vertex="1" parent="1">
          <mxGeometry x="370" y="680" width="200" height="43.23" as="geometry" />
        </mxCell>
        <mxCell id="5I6KbbuqI9N9IZFCoAGK-24" value="&lt;font style=&quot;font-size: 20px;&quot;&gt;HomeController&lt;/font&gt;" style="rounded=0;whiteSpace=wrap;html=1;fontSize=16;strokeWidth=3;" vertex="1" parent="1">
          <mxGeometry x="370" y="800" width="200" height="43.23" as="geometry" />
        </mxCell>
        <mxCell id="5I6KbbuqI9N9IZFCoAGK-25" value="&lt;font style=&quot;font-size: 20px;&quot;&gt;MyAccountController&lt;/font&gt;" style="rounded=0;whiteSpace=wrap;html=1;fontSize=16;strokeWidth=3;" vertex="1" parent="1">
          <mxGeometry x="370" y="560" width="200" height="43.23" as="geometry" />
        </mxCell>
        <mxCell id="5I6KbbuqI9N9IZFCoAGK-26" value="&lt;font style=&quot;font-size: 20px;&quot;&gt;ProductController&lt;/font&gt;" style="rounded=0;whiteSpace=wrap;html=1;fontSize=16;strokeWidth=3;" vertex="1" parent="1">
          <mxGeometry x="370" y="740" width="200" height="43.23" as="geometry" />
        </mxCell>
        <mxCell id="5I6KbbuqI9N9IZFCoAGK-33" value="&lt;font style=&quot;font-size: 25px;&quot;&gt;Eloquent/Model&lt;/font&gt;" style="rounded=0;whiteSpace=wrap;html=1;fontSize=25;strokeWidth=3;" vertex="1" parent="1">
          <mxGeometry x="605" y="1290" width="210" height="102.74" as="geometry" />
        </mxCell>
        <mxCell id="5I6KbbuqI9N9IZFCoAGK-34" value="routes/&lt;br&gt;web.php" style="rounded=0;whiteSpace=wrap;html=1;fontSize=20;strokeWidth=3;" vertex="1" parent="1">
          <mxGeometry x="160" y="650" width="110" height="110" as="geometry" />
        </mxCell>
        <mxCell id="5I6KbbuqI9N9IZFCoAGK-35" value="" style="endArrow=classic;startArrow=classic;html=1;rounded=0;fontSize=20;startSize=8;endSize=8;curved=1;strokeWidth=3;exitX=0.5;exitY=0;exitDx=0;exitDy=0;exitPerimeter=0;entryX=0.615;entryY=1.019;entryDx=0;entryDy=0;entryPerimeter=0;" edge="1" parent="1" source="iftpOIWhje2gakNTgD5A-53" target="iftpOIWhje2gakNTgD5A-28">
          <mxGeometry width="50" height="50" relative="1" as="geometry">
            <mxPoint x="1130" y="840" as="sourcePoint" />
            <mxPoint x="1180" y="790" as="targetPoint" />
          </mxGeometry>
        </mxCell>
        <mxCell id="5I6KbbuqI9N9IZFCoAGK-38" value="" style="endArrow=classic;startArrow=classic;html=1;rounded=0;fontSize=20;startSize=8;endSize=8;curved=1;strokeWidth=3;exitX=0.5;exitY=0;exitDx=0;exitDy=0;exitPerimeter=0;entryX=0.25;entryY=1;entryDx=0;entryDy=0;entryPerimeter=0;" edge="1" parent="1" source="iftpOIWhje2gakNTgD5A-28" target="iftpOIWhje2gakNTgD5A-6">
          <mxGeometry width="50" height="50" relative="1" as="geometry">
            <mxPoint x="620" y="997" as="sourcePoint" />
            <mxPoint x="719" y="938" as="targetPoint" />
          </mxGeometry>
        </mxCell>
        <mxCell id="5I6KbbuqI9N9IZFCoAGK-39" value="" style="endArrow=classic;startArrow=classic;html=1;rounded=0;fontSize=20;startSize=8;endSize=8;curved=1;strokeWidth=3;exitX=0.592;exitY=1.038;exitDx=0;exitDy=0;exitPerimeter=0;entryX=0.5;entryY=0;entryDx=0;entryDy=0;" edge="1" parent="1" source="iftpOIWhje2gakNTgD5A-53" target="5I6KbbuqI9N9IZFCoAGK-33">
          <mxGeometry width="50" height="50" relative="1" as="geometry">
            <mxPoint x="620" y="997" as="sourcePoint" />
            <mxPoint x="719" y="938" as="targetPoint" />
          </mxGeometry>
        </mxCell>
        <mxCell id="5I6KbbuqI9N9IZFCoAGK-40" value="" style="endArrow=classic;startArrow=classic;html=1;rounded=0;fontSize=20;startSize=8;endSize=8;curved=1;strokeWidth=3;exitX=1;exitY=0.5;exitDx=0;exitDy=0;exitPerimeter=0;" edge="1" parent="1" source="iftpOIWhje2gakNTgD5A-67" target="5I6KbbuqI9N9IZFCoAGK-33">
          <mxGeometry width="50" height="50" relative="1" as="geometry">
            <mxPoint x="681" y="1205" as="sourcePoint" />
            <mxPoint x="720" y="1300" as="targetPoint" />
          </mxGeometry>
        </mxCell>
        <mxCell id="5I6KbbuqI9N9IZFCoAGK-41" value="" style="endArrow=classic;startArrow=classic;html=1;rounded=0;fontSize=20;startSize=8;endSize=8;curved=1;strokeWidth=3;exitX=0;exitY=0.5;exitDx=0;exitDy=0;exitPerimeter=0;entryX=1;entryY=0.5;entryDx=0;entryDy=0;" edge="1" parent="1" source="iftpOIWhje2gakNTgD5A-28" target="5I6KbbuqI9N9IZFCoAGK-34">
          <mxGeometry width="50" height="50" relative="1" as="geometry">
            <mxPoint x="620" y="997" as="sourcePoint" />
            <mxPoint x="719" y="938" as="targetPoint" />
          </mxGeometry>
        </mxCell>
        <mxCell id="5I6KbbuqI9N9IZFCoAGK-42" value="v" style="endArrow=classic;html=1;rounded=0;fontSize=12;startSize=8;endSize=8;curved=1;exitX=1;exitY=0.25;exitDx=0;exitDy=0;entryX=0;entryY=0.25;entryDx=0;entryDy=0;fillColor=#ffff88;strokeColor=#E6E600;strokeWidth=3;" edge="1" parent="1" source="iftpOIWhje2gakNTgD5A-68" target="5I6KbbuqI9N9IZFCoAGK-34">
          <mxGeometry width="50" height="50" relative="1" as="geometry">
            <mxPoint x="-70" y="740" as="sourcePoint" />
            <mxPoint x="-20" y="690" as="targetPoint" />
          </mxGeometry>
        </mxCell>
        <mxCell id="5I6KbbuqI9N9IZFCoAGK-43" value="Requests&lt;br&gt;(HTTP protocol)" style="edgeLabel;html=1;align=center;verticalAlign=middle;resizable=0;points=[];fontSize=16;" vertex="1" connectable="0" parent="5I6KbbuqI9N9IZFCoAGK-42">
          <mxGeometry x="-0.2457" relative="1" as="geometry">
            <mxPoint as="offset" />
          </mxGeometry>
        </mxCell>
        <mxCell id="5I6KbbuqI9N9IZFCoAGK-46" value="v" style="endArrow=classic;html=1;rounded=0;fontSize=12;startSize=8;endSize=8;curved=1;fillColor=#ffff88;strokeColor=#E6E600;strokeWidth=3;exitX=0;exitY=0.5;exitDx=0;exitDy=0;entryX=0.998;entryY=0.807;entryDx=0;entryDy=0;entryPerimeter=0;" edge="1" parent="1" source="5I6KbbuqI9N9IZFCoAGK-34" target="iftpOIWhje2gakNTgD5A-68">
          <mxGeometry width="50" height="50" relative="1" as="geometry">
            <mxPoint x="-30" y="880" as="sourcePoint" />
            <mxPoint x="-220" y="770" as="targetPoint" />
          </mxGeometry>
        </mxCell>
        <mxCell id="5I6KbbuqI9N9IZFCoAGK-47" value="&lt;div&gt;Response&lt;/div&gt;&lt;div&gt;(HTML,CSS,JavaScript)&lt;/div&gt;" style="edgeLabel;html=1;align=center;verticalAlign=middle;resizable=0;points=[];fontSize=16;" vertex="1" connectable="0" parent="5I6KbbuqI9N9IZFCoAGK-46">
          <mxGeometry x="-0.2457" relative="1" as="geometry">
            <mxPoint as="offset" />
          </mxGeometry>
        </mxCell>
        <mxCell id="5I6KbbuqI9N9IZFCoAGK-48" value="&lt;span style=&quot;background-color: rgb(255, 255, 255); font-size: 25px;&quot;&gt;Layer&lt;/span&gt;" style="points=[[0.25,0,0],[0.5,0,0],[0.75,0,0],[1,0.25,0],[1,0.5,0],[1,0.75,0],[0.75,1,0],[0.5,1,0],[0.25,1,0],[0,0.75,0],[0,0.5,0],[0,0.25,0]];shape=mxgraph.bpmn.task;whiteSpace=wrap;rectStyle=rounded;size=10;html=1;container=1;expand=0;collapsible=0;taskMarker=abstract;align=left;verticalAlign=top;labelBackgroundColor=#D5E8D4;fontSize=25;fontStyle=1;fillColor=#D5E8D4;" vertex="1" parent="1">
          <mxGeometry x="-818" y="1080" width="176" height="87.26" as="geometry" />
        </mxCell>
        <mxCell id="5I6KbbuqI9N9IZFCoAGK-49" value="&lt;font style=&quot;font-size: 25px;&quot;&gt;Class/File&lt;/font&gt;" style="rounded=0;whiteSpace=wrap;html=1;fontSize=25;strokeWidth=3;" vertex="1" parent="1">
          <mxGeometry x="-600" y="1077.26" width="160" height="90" as="geometry" />
        </mxCell>
        <mxCell id="5I6KbbuqI9N9IZFCoAGK-54" value="&lt;font style=&quot;font-size: 25px;&quot;&gt;DB&lt;/font&gt;" style="verticalLabelPosition=bottom;html=1;verticalAlign=top;align=center;strokeColor=none;fillColor=#00BEF2;shape=mxgraph.azure.sql_database;" vertex="1" parent="1">
          <mxGeometry x="-370.00000000000006" y="1070" width="100" height="120" as="geometry" />
        </mxCell>
        <mxCell id="5I6KbbuqI9N9IZFCoAGK-55" value="package" style="image;aspect=fixed;html=1;points=[];align=center;fontSize=25;image=img/lib/azure2/general/Folder_Blank.svg;" vertex="1" parent="1">
          <mxGeometry x="-820" y="1240" width="120" height="97.39" as="geometry" />
        </mxCell>
        <mxCell id="5I6KbbuqI9N9IZFCoAGK-56" value="v" style="endArrow=classic;html=1;rounded=0;fontSize=12;startSize=8;endSize=8;curved=1;fillColor=#ffff88;strokeColor=#E6E600;strokeWidth=3;" edge="1" parent="1">
          <mxGeometry width="50" height="50" relative="1" as="geometry">
            <mxPoint x="-641" y="1300" as="sourcePoint" />
            <mxPoint x="-450" y="1300" as="targetPoint" />
            <Array as="points">
              <mxPoint x="-491" y="1300" />
            </Array>
          </mxGeometry>
        </mxCell>
        <mxCell id="5I6KbbuqI9N9IZFCoAGK-57" value="&lt;div&gt;Response/&lt;/div&gt;&lt;div&gt;Requests&lt;br style=&quot;border-color: var(--border-color);&quot;&gt;&lt;/div&gt;" style="edgeLabel;html=1;align=center;verticalAlign=middle;resizable=0;points=[];fontSize=16;" vertex="1" connectable="0" parent="5I6KbbuqI9N9IZFCoAGK-56">
          <mxGeometry x="-0.2457" relative="1" as="geometry">
            <mxPoint as="offset" />
          </mxGeometry>
        </mxCell>
        <mxCell id="5I6KbbuqI9N9IZFCoAGK-58" value="" style="endArrow=classic;startArrow=classic;html=1;rounded=0;fontSize=20;startSize=8;endSize=8;curved=1;strokeWidth=3;" edge="1" parent="1">
          <mxGeometry width="50" height="50" relative="1" as="geometry">
            <mxPoint x="-200" y="1300" as="sourcePoint" />
            <mxPoint x="-370" y="1300" as="targetPoint" />
          </mxGeometry>
        </mxCell>
        <mxCell id="5I6KbbuqI9N9IZFCoAGK-59" value="&lt;font style=&quot;font-size: 20px;&quot;&gt;Communication&lt;/font&gt;" style="text;html=1;strokeColor=none;fillColor=none;align=center;verticalAlign=middle;whiteSpace=wrap;rounded=0;fontSize=16;" vertex="1" parent="1">
          <mxGeometry x="-350" y="1330" width="120" height="30" as="geometry" />
        </mxCell>
      </root>
    </mxGraphModel>
  </diagram>
</mxfile>
